<?xml version="1.0" standalone="no"?><!DOCTYPE svg PUBLIC "-//W3C//DTD SVG 1.1//EN" "http://www.w3.org/Graphics/SVG/1.1/DTD/svg11.dtd"><svg t="1645017974130" class="icon" viewBox="0 0 1024 1024" version="1.1" xmlns="http://www.w3.org/2000/svg" p-id="7576" xmlns:xlink="http://www.w3.org/1999/xlink" width="200" height="200"><defs><style type="text/css"></style></defs><path d="M118.857143 402.285714h784.749714v219.428572H118.784v-219.428572z m0 219.428572q-5.412571 0-10.752-0.512-5.412571-0.512-10.678857-1.536-5.266286-1.097143-10.459429-2.633143-5.12-1.609143-10.093714-3.657143-4.973714-2.048-9.728-4.608T57.782857 603.282286q-4.388571-2.998857-8.630857-6.436572-4.169143-3.437714-7.972571-7.241143-3.803429-3.803429-7.241143-7.972571-3.437714-4.169143-6.363429-8.630857-2.998857-4.534857-5.558857-9.289143-2.56-4.754286-4.608-9.728-2.048-4.973714-3.657143-10.093714-1.536-5.12-2.56-10.459429-1.097143-5.266286-1.609143-10.678857Q9.142857 517.412571 9.142857 512q0-5.339429 0.512-10.752 0.512-5.339429 1.609143-10.605714 1.024-5.339429 2.56-10.459429 1.609143-5.12 3.657143-10.166857 2.048-4.973714 4.608-9.728t5.485714-9.216q2.998857-4.461714 6.436572-8.630857 3.437714-4.169143 7.314285-8.045714 3.730286-3.730286 7.899429-7.168 4.169143-3.437714 8.630857-6.436572 4.534857-2.925714 9.289143-5.558857 4.754286-2.486857 9.728-4.534857 4.973714-2.121143 10.093714-3.657143t10.459429-2.633143q5.266286-1.024 10.678857-1.536 5.339429-0.585143 10.752-0.585143 5.339429 0 10.752 0.585143 5.339429 0.512 10.605714 1.536 5.339429 1.097143 10.459429 2.633143 5.12 1.536 10.166857 3.657143 4.973714 2.048 9.728 4.534857 4.754286 2.56 9.216 5.558857 4.461714 2.998857 8.630857 6.436572 4.169143 3.437714 8.045714 7.241142 3.730286 3.803429 7.168 7.972572 3.437714 4.169143 6.436572 8.630857 2.925714 4.461714 5.558857 9.216 2.486857 4.754286 4.608 9.728 2.048 4.973714 3.657143 10.166857 1.462857 5.12 2.56 10.459429 1.024 5.266286 1.536 10.605714 0.585143 5.412571 0.585143 10.752 0 5.412571-0.585143 10.752-0.512 5.412571-1.536 10.678857-1.024 5.266286-2.633143 10.459429-1.536 5.12-3.657143 10.093714-2.048 4.973714-4.534857 9.728-2.56 4.754286-5.558857 9.289143-2.998857 4.388571-6.436572 8.630857-3.364571 4.169143-7.241143 7.972571-3.803429 3.803429-7.972571 7.241143-4.169143 3.437714-8.630857 6.436572-4.461714 2.925714-9.216 5.485714-4.754286 2.56-9.728 4.608-4.973714 2.048-10.166857 3.657143-5.12 1.536-10.459429 2.633143-5.266286 1.024-10.605714 1.536-5.412571 0.512-10.752 0.512z m784.749714 0q-5.412571 0-10.752-0.512t-10.678857-1.536q-5.266286-1.097143-10.459429-2.633143-5.12-1.609143-10.093714-3.657143-4.973714-2.048-9.728-4.608t-9.216-5.485714q-4.534857-2.998857-8.704-6.436572-4.169143-3.437714-7.972571-7.241143-3.803429-3.803429-7.241143-8.045714-3.364571-4.096-6.363429-8.557714-2.998857-4.534857-5.558857-9.289143-2.56-4.754286-4.608-9.728-2.048-4.973714-3.657143-10.093714-1.462857-5.12-2.56-10.459429-1.097143-5.266286-1.609143-10.678857-0.512-5.339429-0.512-10.752 0-5.339429 0.512-10.752 0.512-5.339429 1.609143-10.605714 1.024-5.339429 2.56-10.459429 1.609143-5.12 3.657143-10.166857 2.048-4.973714 4.608-9.728t5.558857-9.216q2.925714-4.461714 6.363429-8.630857 3.437714-4.169143 7.314286-8.045714 3.730286-3.730286 7.899428-7.168 4.169143-3.437714 8.704-6.436572 4.388571-2.925714 9.216-5.558857 4.754286-2.486857 9.728-4.534857 4.973714-2.121143 10.093714-3.657143t10.459429-2.633143q5.266286-1.024 10.678857-1.536 5.339429-0.585143 10.752-0.585143t10.752 0.585143q5.339429 0.512 10.605714 1.536 5.339429 1.097143 10.459429 2.633143 5.12 1.536 10.166857 3.657143 4.973714 2.048 9.728 4.534857 4.754286 2.56 9.216 5.558857 4.461714 2.998857 8.630857 6.436572 4.169143 3.437714 8.045715 7.241142 3.803429 3.803429 7.168 7.972572 3.437714 4.169143 6.436571 8.630857 2.998857 4.461714 5.558857 9.216 2.486857 4.754286 4.608 9.728 2.048 4.973714 3.657143 10.166857 1.462857 5.12 2.56 10.459429 1.024 5.266286 1.609143 10.605714 0.512 5.412571 0.512 10.752 0 5.412571-0.512 10.752-0.585143 5.412571-1.609143 10.678857-1.024 5.266286-2.633143 10.459429-1.536 5.12-3.657143 10.093714-1.974857 4.973714-4.534857 9.728t-5.558857 9.289143q-2.925714 4.388571-6.436571 8.630857-3.364571 4.169143-7.168 7.972571-3.876571 3.803429-8.045715 7.241143-4.096 3.437714-8.630857 6.436572-4.461714 2.925714-9.216 5.485714-4.754286 2.56-9.728 4.608-4.973714 2.048-10.166857 3.657143-5.12 1.536-10.386286 2.633143-5.339429 1.024-10.678857 1.536-5.339429 0.512-10.752 0.512z" fill="#414141" p-id="7577"></path><path d="M401.554286 906.093714V117.979429h219.428571v788.114285h-219.428571z m219.428571 0q0 5.339429-0.585143 10.752-0.512 5.339429-1.536 10.605715-1.097143 5.266286-2.633143 10.459428-1.609143 5.12-3.657142 10.166857-2.048 4.973714-4.608 9.728-2.486857 4.754286-5.485715 9.216-2.998857 4.461714-6.436571 8.630857-3.437714 4.169143-7.241143 8.045715-3.803429 3.730286-7.972571 7.168-4.169143 3.437714-8.630858 6.436571-4.534857 2.925714-9.289142 5.485714-4.754286 2.56-9.728 4.608-4.973714 2.121143-10.093715 3.657143t-10.459428 2.633143q-5.266286 1.024-10.678857 1.536-5.339429 0.585143-10.752 0.585143-5.339429 0-10.752-0.585143-5.339429-0.512-10.605715-1.536-5.339429-1.097143-10.459428-2.633143-5.12-1.536-10.166857-3.657143-4.973714-2.048-9.728-4.608-4.754286-2.486857-9.216-5.485714-4.461714-2.998857-8.630858-6.436571-4.169143-3.437714-8.045714-7.241143-3.730286-3.803429-7.168-7.972572-3.437714-4.169143-6.436571-8.630857-2.925714-4.461714-5.558857-9.216-2.486857-4.754286-4.534858-9.728-2.121143-5.046857-3.657142-10.24-1.536-5.12-2.633143-10.386285-1.024-5.266286-1.536-10.605715-0.585143-5.412571-0.585143-10.752 0-5.412571 0.585143-10.825143 0.512-5.339429 1.536-10.605714 1.097143-5.266286 2.633143-10.459428 1.536-5.12 3.657142-10.166858 2.048-4.973714 4.534858-9.728 2.56-4.754286 5.558857-9.216 2.998857-4.461714 6.436571-8.630857 3.437714-4.169143 7.241143-8.045714 3.803429-3.730286 7.972571-7.168 4.169143-3.437714 8.630858-6.436571 4.461714-2.925714 9.216-5.485715 4.754286-2.56 9.728-4.608 4.973714-2.121143 10.166857-3.657143 5.12-1.536 10.459428-2.633142 5.266286-1.024 10.605715-1.536 5.412571-0.585143 10.752-0.585143 5.412571 0 10.752 0.585143 5.412571 0.512 10.678857 1.536 5.266286 1.097143 10.459428 2.633142 5.12 1.536 10.093715 3.657143 4.973714 2.048 9.728 4.608 4.754286 2.486857 9.289142 5.485715 4.461714 2.998857 8.630858 6.436571 4.169143 3.437714 7.972571 7.241143 3.803429 3.803429 7.241143 7.972571 3.437714 4.169143 6.436571 8.630857 2.925714 4.461714 5.485715 9.216 2.56 4.754286 4.608 9.728 2.048 5.046857 3.657142 10.166858 1.536 5.12 2.633143 10.459428 1.024 5.266286 1.536 10.605714 0.512 5.412571 0.512 10.825143z m0-788.114285q0 5.412571-0.585143 10.752-0.512 5.339429-1.536 10.605714-1.097143 5.339429-2.633143 10.459428-1.609143 5.12-3.657142 10.166858-2.048 4.973714-4.608 9.728-2.486857 4.754286-5.485715 9.216-2.998857 4.461714-6.436571 8.630857-3.437714 4.169143-7.241143 8.045714-3.803429 3.803429-7.972571 7.168-4.169143 3.437714-8.630858 6.436571-4.534857 2.998857-9.289142 5.558858-4.754286 2.486857-9.728 4.608-4.973714 2.048-10.093715 3.657142-5.12 1.462857-10.459428 2.56-5.266286 1.024-10.678857 1.609143-5.339429 0.512-10.752 0.512-5.339429 0-10.752-0.512-5.339429-0.585143-10.605715-1.609143-5.339429-1.024-10.459428-2.633142-5.12-1.536-10.166857-3.657143-4.973714-2.048-9.728-4.534857-4.754286-2.56-9.216-5.558858-4.461714-2.925714-8.630858-6.436571-4.169143-3.364571-8.045714-7.241143-3.730286-3.803429-7.168-7.972571-3.437714-4.169143-6.436571-8.630857-2.925714-4.461714-5.558857-9.216-2.486857-4.754286-4.534858-9.728-2.121143-4.973714-3.657142-10.166858-1.536-5.12-2.633143-10.459428-1.024-5.266286-1.536-10.605714-0.585143-5.339429-0.585143-10.752t0.585143-10.752q0.512-5.412571 1.536-10.678858 1.097143-5.266286 2.633143-10.459428 1.536-5.12 3.657142-10.093714 2.048-4.973714 4.534858-9.728 2.56-4.754286 5.558857-9.289143 2.998857-4.388571 6.436571-8.630857 3.437714-4.169143 7.241143-7.972572Q437.394286 36.571429 441.636571 33.133714q4.169143-3.364571 8.630858-6.363428 4.461714-2.998857 9.216-5.558857 4.754286-2.56 9.728-4.608 4.973714-2.048 10.166857-3.657143 5.12-1.536 10.459428-2.56 5.266286-1.097143 10.605715-1.609143 5.412571-0.512 10.752-0.512 5.412571 0 10.752 0.512 5.412571 0.512 10.678857 1.609143 5.266286 1.024 10.459428 2.56 5.12 1.609143 10.093715 3.657143 4.973714 2.048 9.728 4.608t9.289142 5.558857q4.461714 2.925714 8.630858 6.363428 4.169143 3.437714 7.972571 7.314286 3.803429 3.730286 7.241143 7.899429 3.437714 4.169143 6.436571 8.630857 2.925714 4.534857 5.485715 9.289143 2.56 4.754286 4.608 9.728 2.048 4.973714 3.657142 10.093714 1.536 5.12 2.633143 10.459428 1.024 5.266286 1.536 10.678858 0.512 5.339429 0.512 10.752z" fill="#F6691B" p-id="7578"></path></svg>