<?xml version="1.0" standalone="no"?><!DOCTYPE svg PUBLIC "-//W3C//DTD SVG 1.1//EN" "http://www.w3.org/Graphics/SVG/1.1/DTD/svg11.dtd"><svg t="1645017949429" class="icon" viewBox="0 0 1024 1024" version="1.1" xmlns="http://www.w3.org/2000/svg" p-id="7153" xmlns:xlink="http://www.w3.org/1999/xlink" width="200" height="200"><defs><style type="text/css"></style></defs><path d="M717.531429 214.162286H308.077714q-68.169143 0-116.370285 48.201143-48.274286 48.201143-48.274286 116.297142v334.701715q0 68.169143 48.274286 116.297143 48.201143 48.274286 116.297142 48.274285H717.531429q68.169143 0 116.297142-48.274285 48.274286-48.128 48.274286-116.297143V378.733714q0-68.169143-48.274286-116.370285-48.128-48.274286-116.297142-48.274286z m0-109.714286q113.590857 0 193.901714 80.310857 80.384 80.384 80.384 193.974857v334.628572q0 113.590857-80.384 193.901714-80.310857 80.384-193.901714 80.384H308.077714q-113.664 0-193.974857-80.384Q33.792 826.953143 33.792 713.362286V378.733714q0-113.590857 80.310857-193.974857 80.310857-80.310857 193.974857-80.310857H717.531429z" fill="#414141" p-id="7154"></path><path d="M258.340571 234.130286V84.48h109.714286V234.057143h-109.714286z m109.714286 0q0 5.412571-1.097143 10.752-1.024 5.266286-3.072 10.24-2.121143 5.046857-5.12 9.508571-2.925714 4.461714-6.802285 8.338286-3.803429 3.803429-8.338286 6.802286-4.461714 2.925714-9.508572 5.12-4.900571 1.974857-10.24 3.072-5.266286 1.024-10.678857 1.024t-10.752-1.024q-5.266286-1.097143-10.24-3.145143-5.046857-2.048-9.508571-5.12-4.461714-2.925714-8.338286-6.729143-3.803429-3.876571-6.802286-8.338286-2.925714-4.461714-5.12-9.508571-1.974857-4.973714-3.072-10.24-1.024-5.339429-1.024-10.752t1.024-10.678857q1.097143-5.266286 3.145143-10.24 2.048-5.046857 5.12-9.508572 2.925714-4.534857 6.729143-8.338286 3.876571-3.803429 8.338286-6.802285 4.461714-2.998857 9.508571-5.12 4.973714-2.048 10.24-3.072 5.339429-1.097143 10.752-1.097143t10.678857 1.097143q5.339429 1.024 10.24 3.072 5.046857 2.121143 9.508572 5.12 4.534857 2.925714 8.338286 6.802285 3.803429 3.803429 6.802285 8.338286 2.998857 4.461714 5.12 9.508572 2.048 4.973714 3.072 10.24 1.097143 5.266286 1.097143 10.678857z m0-149.650286q0 5.339429-1.097143 10.678857-1.024 5.266286-3.072 10.24-2.121143 5.046857-5.12 9.508572-2.925714 4.534857-6.802285 8.338285-3.803429 3.803429-8.338286 6.802286-4.461714 2.998857-9.508572 5.12-4.900571 2.048-10.24 3.072-5.266286 1.097143-10.678857 1.097143t-10.752-1.097143q-5.266286-1.024-10.24-3.145143-5.046857-2.048-9.508571-5.046857-4.461714-2.925714-8.338286-6.802286-3.803429-3.803429-6.802286-8.338285-2.925714-4.461714-5.12-9.508572-1.974857-4.973714-3.072-10.24-1.024-5.339429-1.024-10.678857 0-5.412571 1.024-10.752 1.097143-5.266286 3.145143-10.24 2.048-5.046857 5.12-9.508571 2.925714-4.534857 6.729143-8.338286 3.876571-3.803429 8.338286-6.802286 4.461714-2.998857 9.508571-5.12 4.973714-2.048 10.24-3.072 5.339429-1.024 10.752-1.024t10.678857 1.024q5.339429 1.024 10.24 3.145143 5.046857 2.048 9.508572 5.046857 4.534857 2.998857 8.338286 6.802286 3.803429 3.803429 6.802285 8.338286 2.998857 4.461714 5.12 9.508571 2.048 4.973714 3.072 10.24 1.097143 5.339429 1.097143 10.752zM657.554286 234.130286V84.48h109.714285V234.057143h-109.714285z m109.714285 0q0 5.412571-1.097142 10.752-1.024 5.266286-3.145143 10.24-2.048 5.046857-5.046857 9.508571-2.925714 4.461714-6.802286 8.338286-3.803429 3.803429-8.338286 6.802286-4.461714 2.925714-9.508571 5.12-4.973714 1.974857-10.24 3.072-5.339429 1.024-10.678857 1.024-5.412571 0-10.752-1.024-5.266286-1.097143-10.24-3.145143-5.046857-2.048-9.508572-5.12-4.534857-2.925714-8.338286-6.729143-3.803429-3.876571-6.802285-8.338286-2.998857-4.461714-5.12-9.508571-2.048-4.973714-3.072-10.24-1.024-5.339429-1.024-10.752t1.024-10.678857q1.024-5.266286 3.145143-10.24 2.048-5.046857 5.046857-9.508572 2.925714-4.534857 6.802285-8.338286 3.803429-3.803429 8.338286-6.802285 4.461714-2.998857 9.508572-5.12 4.973714-2.048 10.24-3.072 5.339429-1.097143 10.752-1.097143 5.339429 0 10.678857 1.097143 5.266286 1.024 10.24 3.072 5.046857 2.121143 9.508571 5.12 4.534857 2.925714 8.338286 6.802285 3.803429 3.803429 6.802286 8.338286 2.998857 4.461714 5.12 9.508572 2.048 4.973714 3.072 10.24 1.097143 5.266286 1.097142 10.678857z m0-149.650286q0 5.339429-1.097142 10.678857-1.024 5.266286-3.145143 10.24-2.048 5.046857-5.046857 9.508572-2.925714 4.534857-6.802286 8.338285-3.803429 3.803429-8.338286 6.802286-4.461714 2.998857-9.508571 5.12-4.973714 2.048-10.24 3.072-5.339429 1.097143-10.678857 1.097143-5.412571 0-10.752-1.097143-5.266286-1.024-10.24-3.145143-5.046857-2.048-9.508572-5.046857-4.534857-2.925714-8.338286-6.802286-3.803429-3.803429-6.802285-8.338285-2.998857-4.461714-5.12-9.508572-2.048-4.973714-3.072-10.24-1.024-5.339429-1.024-10.678857 0-5.412571 1.024-10.752 1.024-5.266286 3.145143-10.24 2.048-5.046857 5.046857-9.508571 2.925714-4.534857 6.802285-8.338286 3.803429-3.803429 8.338286-6.802286 4.461714-2.998857 9.508572-5.12 4.973714-2.048 10.24-3.072 5.339429-1.024 10.752-1.024 5.339429 0 10.678857 1.024 5.266286 1.024 10.24 3.145143 5.046857 2.048 9.508571 5.046857 4.534857 2.998857 8.338286 6.802286 3.803429 3.803429 6.802286 8.338286 2.998857 4.461714 5.12 9.508571 2.048 4.973714 3.072 10.24 1.097143 5.339429 1.097142 10.752z" fill="#414141" p-id="7155"></path><path d="M290.669714 612.425143a49.883429 49.883429 0 1 0 99.766857 0 49.883429 49.883429 0 1 0-99.766857 0Z" fill="#414141" p-id="7156"></path><path d="M640 762.148571a49.883429 49.883429 0 1 0 99.766857 0 49.883429 49.883429 0 1 0-99.766857 0Z" fill="#414141" p-id="7157"></path><path d="M465.334857 762.148571a49.883429 49.883429 0 1 0 99.766857 0 49.883429 49.883429 0 1 0-99.766857 0Z" fill="#FF6C1C" p-id="7158"></path><path d="M290.669714 762.148571a49.883429 49.883429 0 1 0 99.766857 0 49.883429 49.883429 0 1 0-99.766857 0Z" fill="#414141" p-id="7159"></path><path d="M640 612.425143a49.883429 49.883429 0 1 0 99.766857 0 49.883429 49.883429 0 1 0-99.766857 0Z" fill="#414141" p-id="7160"></path><path d="M465.334857 612.425143a49.883429 49.883429 0 1 0 99.766857 0 49.883429 49.883429 0 1 0-99.766857 0Z" fill="#FF6C1C" p-id="7161"></path><path d="M90.770286 511.634286h848.822857v-109.714286H90.770286v109.714286z" fill="#414141" p-id="7162"></path></svg>