<?xml version="1.0" standalone="no"?><!DOCTYPE svg PUBLIC "-//W3C//DTD SVG 1.1//EN" "http://www.w3.org/Graphics/SVG/1.1/DTD/svg11.dtd"><svg t="1645017926241" class="icon" viewBox="0 0 1024 1024" version="1.1" xmlns="http://www.w3.org/2000/svg" p-id="6729" xmlns:xlink="http://www.w3.org/1999/xlink" width="200" height="200"><defs><style type="text/css"></style></defs><path d="M412.16 669.988571V113.371429h219.428571V669.988571h-219.428571z m219.428571 0q0 5.412571-0.585142 10.825143-0.512 5.339429-1.536 10.605715-1.097143 5.266286-2.633143 10.459428-1.536 5.12-3.657143 10.166857-2.048 4.973714-4.534857 9.728-2.56 4.754286-5.558857 9.216-2.998857 4.461714-6.436572 8.630857-3.437714 4.169143-7.241143 8.045715-3.803429 3.730286-7.972571 7.168-4.169143 3.437714-8.630857 6.436571-4.461714 2.925714-9.216 5.485714-4.754286 2.56-9.728 4.608-4.973714 2.121143-10.166857 3.657143-5.12 1.536-10.459429 2.633143-5.266286 1.024-10.605714 1.536-5.412571 0.585143-10.752 0.585143-5.412571 0-10.752-0.585143-5.412571-0.512-10.678857-1.536-5.266286-1.097143-10.459429-2.633143-5.12-1.536-10.093714-3.657143-4.973714-2.048-9.728-4.608-4.754286-2.486857-9.289143-5.485714-4.461714-2.998857-8.630857-6.436571-4.169143-3.437714-7.972572-7.241143-3.803429-3.803429-7.241143-7.972572-3.437714-4.169143-6.436571-8.630857-2.925714-4.461714-5.485714-9.216-2.56-4.754286-4.608-9.728-2.048-4.973714-3.657143-10.166857-1.536-5.12-2.633143-10.459428-1.024-5.266286-1.536-10.605715-0.512-5.412571-0.512-10.752 0-5.412571 0.512-10.752 0.512-5.412571 1.536-10.678857 1.097143-5.266286 2.633143-10.459428 1.609143-5.12 3.657143-10.093715 2.048-5.046857 4.608-9.801143 2.56-4.681143 5.485714-9.216 2.998857-4.461714 6.436571-8.630857 3.437714-4.169143 7.241143-8.045714 3.803429-3.730286 8.045715-7.168 4.096-3.437714 8.557714-6.436571 4.534857-2.925714 9.289143-5.485715 4.754286-2.56 9.728-4.608 4.973714-2.048 10.093714-3.657143 5.12-1.536 10.459429-2.633142 5.266286-1.024 10.678857-1.536 5.339429-0.512 10.752-0.512 5.339429 0 10.752 0.512 5.339429 0.512 10.605714 1.536 5.339429 1.097143 10.459429 2.633142 5.12 1.609143 10.166857 3.657143 4.973714 2.048 9.728 4.608 4.754286 2.486857 9.216 5.485715 4.461714 2.998857 8.630857 6.436571 4.169143 3.437714 8.045714 7.241143 3.730286 3.803429 7.168 7.972571 3.437714 4.169143 6.436572 8.630857 2.925714 4.534857 5.558857 9.216 2.486857 4.754286 4.534857 9.801143 2.121143 4.973714 3.657143 10.093715t2.633143 10.459428q1.024 5.266286 1.536 10.678857 0.585143 5.339429 0.585142 10.752z m0-556.690285q0 5.339429-0.585142 10.752-0.512 5.339429-1.536 10.605714-1.097143 5.339429-2.633143 10.459429-1.536 5.12-3.657143 10.166857-2.048 4.973714-4.534857 9.728-2.56 4.754286-5.558857 9.216-2.998857 4.461714-6.436572 8.630857-3.437714 4.169143-7.241143 8.045714-3.803429 3.730286-7.972571 7.168-4.169143 3.437714-8.630857 6.436572-4.461714 2.925714-9.216 5.485714-4.754286 2.56-9.728 4.608-4.973714 2.121143-10.166857 3.657143-5.12 1.536-10.459429 2.633143-5.266286 1.024-10.605714 1.536-5.412571 0.585143-10.752 0.585142-5.412571 0-10.752-0.585142-5.412571-0.512-10.678857-1.536-5.266286-1.097143-10.459429-2.633143-5.12-1.536-10.093714-3.657143-4.973714-2.048-9.728-4.608-4.754286-2.486857-9.289143-5.485714-4.461714-2.998857-8.630857-6.436572-4.169143-3.437714-7.972572-7.241143-3.803429-3.803429-7.241143-7.972571-3.437714-4.169143-6.436571-8.630857-2.925714-4.461714-5.485714-9.216-2.56-4.754286-4.608-9.728-2.048-4.973714-3.657143-10.166857-1.536-5.12-2.633143-10.459429-1.024-5.266286-1.536-10.605714-0.512-5.412571-0.512-10.752 0-5.412571 0.512-10.752 0.512-5.412571 1.536-10.678857 1.097143-5.266286 2.633143-10.459429 1.609143-5.12 3.657143-10.093714 2.048-4.973714 4.608-9.728t5.485714-9.289143q2.998857-4.461714 6.436571-8.630857 3.437714-4.169143 7.241143-7.972572 3.803429-3.803429 8.045715-7.241143Q456.411429 25.014857 460.8 22.016q4.534857-2.925714 9.289143-5.485714 4.754286-2.56 9.728-4.608 4.973714-2.048 10.093714-3.657143 5.12-1.536 10.459429-2.633143 5.266286-1.024 10.678857-1.536 5.339429-0.512 10.752-0.512 5.339429 0 10.752 0.512 5.339429 0.512 10.605714 1.536 5.339429 1.097143 10.459429 2.633143 5.12 1.609143 10.166857 3.657143 4.973714 2.048 9.728 4.608 4.754286 2.486857 9.216 5.485714 4.461714 2.998857 8.630857 6.436571 4.169143 3.437714 8.045714 7.241143 3.730286 3.803429 7.168 7.972572 3.437714 4.169143 6.436572 8.630857 2.925714 4.534857 5.558857 9.289143 2.486857 4.754286 4.534857 9.728 2.121143 4.973714 3.657143 10.093714t2.633143 10.459429q1.024 5.266286 1.536 10.678857 0.585143 5.339429 0.585143 10.752z" fill="#414141" p-id="6730"></path><path d="M453.924571 828.342857l287.670858-299.300571 158.134857 152.137143-287.597715 299.154285-158.208-151.990857z m188.781715 78.482286q-0.146286 5.412571-0.731429 10.752-0.731429 5.339429-1.828571 10.605714-1.170286 5.266286-2.925715 10.386286-1.609143 5.12-3.803428 10.093714-2.194286 4.900571-4.827429 9.581714-2.633143 4.681143-5.705143 9.142858-3.145143 4.388571-6.582857 8.484571-3.584 4.096-7.460571 7.826286-3.876571 3.657143-8.118857 7.021714t-8.777143 6.217143q-4.608 2.925714-9.435429 5.339428-4.754286 2.413714-9.801143 4.388572-5.046857 1.901714-10.24 3.364571-5.12 1.462857-10.459428 2.413715-5.339429 0.877714-10.678857 1.316571-5.412571 0.438857-10.752 0.292571-5.412571-0.146286-10.752-0.731428-5.339429-0.731429-10.605715-1.901714t-10.386285-2.852572q-5.12-1.609143-10.093715-3.803428-4.900571-2.194286-9.581714-4.827429-4.754286-2.633143-9.142857-5.778286-4.388571-3.072-8.484571-6.582857-4.096-3.510857-7.826286-7.387428-3.657143-3.949714-7.021714-8.192t-6.217143-8.777143q-2.925714-4.534857-5.339429-9.362286-2.413714-4.827429-4.388571-9.801143-1.974857-5.046857-3.364572-10.24-1.462857-5.12-2.413714-10.459428-0.950857-5.339429-1.316571-10.752-0.438857-5.339429-0.292572-10.752 0.146286-5.339429 0.731429-10.752 0.731429-5.339429 1.828571-10.605715 1.170286-5.266286 2.925714-10.386285 1.609143-5.12 3.803429-10.020572t4.827429-9.654857q2.633143-4.681143 5.778285-9.069714 3.072-4.388571 6.582857-8.484572 3.510857-4.096 7.387429-7.826285 3.876571-3.730286 8.118857-7.021715 4.315429-3.364571 8.777143-6.217143 4.608-2.925714 9.435429-5.339428 4.754286-2.486857 9.801142-4.388572 5.046857-1.974857 10.24-3.437714 5.12-1.462857 10.459429-2.340571 5.339429-0.950857 10.678857-1.316572 5.412571-0.438857 10.825143-0.292571 5.339429 0.073143 10.678857 0.731428 5.412571 0.731429 10.605714 1.828572 5.266286 1.170286 10.386286 2.925714 5.12 1.609143 10.093714 3.803429 4.900571 2.194286 9.581715 4.827428 4.754286 2.633143 9.142857 5.705143 4.388571 3.145143 8.484571 6.582857 4.096 3.584 7.826286 7.460572 3.657143 3.876571 7.021714 8.118857t6.217143 8.777143q2.925714 4.608 5.339429 9.362285 2.413714 4.827429 4.388571 9.874286 1.974857 5.046857 3.364572 10.24 1.462857 5.12 2.413714 10.459429 0.950857 5.339429 1.316571 10.678857 0.438857 5.412571 0.292572 10.752z m287.670857-299.227429q-0.146286 5.339429-0.731429 10.752-0.731429 5.339429-1.901714 10.605715t-2.852571 10.386285q-1.682286 5.12-3.876572 10.020572-2.194286 4.973714-4.754286 9.654857-2.706286 4.681143-5.778285 9.069714t-6.582857 8.484572q-3.510857 4.096-7.460572 7.826285-3.876571 3.730286-8.045714 7.094857-4.315429 3.291429-8.850286 6.217143-4.534857 2.925714-9.362286 5.266286-4.827429 2.486857-9.874285 4.388571-4.973714 1.974857-10.24 3.437715-5.12 1.462857-10.459429 2.340571-5.266286 0.950857-10.678857 1.389714-5.339429 0.365714-10.752 0.219429-5.412571-0.073143-10.752-0.731429-5.339429-0.658286-10.605714-1.828571t-10.386286-2.852571q-5.12-1.682286-10.020571-3.876572-4.973714-2.194286-9.654858-4.827428-4.681143-2.633143-9.069714-5.705143-4.388571-3.145143-8.557714-6.582857-4.022857-3.584-7.753143-7.460572-3.730286-3.876571-7.094857-8.118857-3.291429-4.242286-6.217143-8.777143-2.925714-4.608-5.339429-9.362286-2.413714-4.827429-4.388571-9.874285-1.901714-4.973714-3.364571-10.24-1.462857-5.12-2.340572-10.459429-0.950857-5.339429-1.389714-10.678857-0.365714-5.412571-0.292572-10.752 0.146286-5.412571 0.804572-10.752t1.828571-10.605714q1.170286-5.266286 2.852572-10.386286 1.682286-5.12 3.876571-10.020571 2.194286-4.973714 4.827429-9.654858 2.633143-4.681143 5.705143-9.142857 3.072-4.388571 6.582857-8.484571 3.510857-4.096 7.460571-7.826286 3.876571-3.657143 8.118857-7.021714 4.242286-3.291429 8.777143-6.217143 4.534857-2.925714 9.362286-5.339429 4.827429-2.413714 9.874286-4.388571 4.973714-1.901714 10.24-3.364571 5.12-1.462857 10.459428-2.413715 5.266286-0.877714 10.678857-1.316571 5.339429-0.365714 10.752-0.292572 5.412571 0.146286 10.752 0.731429 5.339429 0.731429 10.605715 1.901714t10.386285 2.852572q5.12 1.682286 10.020572 3.803428 4.973714 2.194286 9.654857 4.827429 4.681143 2.706286 9.069714 5.778286t8.557714 6.582857q4.096 3.510857 7.753143 7.387428 3.730286 3.949714 7.094857 8.192 3.291429 4.242286 6.217143 8.777143 2.925714 4.534857 5.339429 9.362286 2.413714 4.827429 4.388571 9.801143 1.901714 5.12 3.364572 10.24 1.462857 5.193143 2.340571 10.532571 0.950857 5.266286 1.389714 10.678857 0.365714 5.339429 0.292572 10.752z" fill="#414141" p-id="6731"></path><path d="M314.368 535.917714l295.497143 290.889143-153.892572 156.379429-295.497142-290.816 153.892571-156.452572zM222.354286 722.797714q-5.339429-0.731429-10.532572-1.974857-5.266286-1.243429-10.386285-3.072-5.12-1.755429-9.947429-4.022857-4.900571-2.194286-9.508571-4.973714-4.681143-2.706286-9.069715-5.851429-4.388571-3.218286-8.338285-6.802286-4.022857-3.584-7.68-7.533714-3.657143-3.949714-6.948572-8.265143-3.218286-4.315429-5.997714-8.923428-2.852571-4.608-5.193143-9.435429-2.340571-4.827429-4.242286-9.874286-1.828571-5.12-3.218285-10.24-1.316571-5.266286-2.194286-10.605714-0.804571-5.339429-1.097143-10.678857-0.365714-5.412571-0.146286-10.825143 0.219429-5.339429 0.950857-10.678857 0.731429-5.339429 2.048-10.605714 1.243429-5.193143 2.998858-10.313143 1.755429-5.12 4.022857-10.020572 2.267429-4.827429 5.046857-9.508571 2.706286-4.681143 5.851428-8.996571 3.218286-4.388571 6.802286-8.411429 3.584-4.022857 7.533714-7.68 3.949714-3.657143 8.265143-6.875429 4.315429-3.291429 8.850286-6.070857 4.608-2.779429 9.508571-5.12 4.827429-2.413714 9.874286-4.242285 5.12-1.901714 10.24-3.218286 5.266286-1.389714 10.605714-2.194286 5.266286-0.877714 10.678858-1.170286t10.752-0.073142q5.412571 0.219429 10.752 0.950857 5.339429 0.731429 10.532571 1.974857 5.266286 1.316571 10.386286 3.072 5.12 1.755429 9.947428 4.022857 4.900571 2.194286 9.508572 4.973714 4.681143 2.706286 9.069714 5.851429 4.388571 3.218286 8.338286 6.802286 4.022857 3.657143 7.68 7.533714 3.657143 3.949714 6.948571 8.265143 3.218286 4.315429 6.070857 8.923428 2.779429 4.608 5.12 9.508572 2.340571 4.754286 4.242286 9.874285 1.828571 5.046857 3.218286 10.24 1.316571 5.193143 2.194285 10.532572 0.804571 5.339429 1.170286 10.678857 0.292571 5.412571 0 10.825143-0.146286 5.339429-0.877714 10.678857t-2.048 10.605714q-1.243429 5.266286-2.998857 10.313143-1.755429 5.12-4.022857 10.020572t-4.973715 9.508571q-2.779429 4.681143-5.924571 8.996571-3.145143 4.388571-6.729143 8.411429-3.657143 4.022857-7.606857 7.68-3.949714 3.657143-8.265143 6.875429-4.242286 3.291429-8.850286 6.070857-4.608 2.852571-9.508571 5.12-4.827429 2.413714-9.874286 4.242285-5.046857 1.901714-10.24 3.218286-5.266286 1.389714-10.532571 2.194286-5.339429 0.877714-10.752 1.170286-5.339429 0.292571-10.752 0.073142t-10.752-0.950857z m295.497143 290.816q-5.266286-0.731429-10.532572-1.974857t-10.313143-2.998857q-5.12-1.828571-10.020571-4.096-4.900571-2.194286-9.508572-4.973714-4.681143-2.706286-8.996571-5.851429-4.388571-3.218286-8.411429-6.802286-4.022857-3.584-7.68-7.533714-3.657143-3.949714-6.875428-8.265143-3.291429-4.315429-6.070857-8.923428-2.852571-4.534857-5.12-9.435429-2.413714-4.827429-4.242286-9.874286-1.901714-5.12-3.218286-10.24-1.389714-5.266286-2.194285-10.605714-0.877714-5.339429-1.170286-10.678857-0.292571-5.412571-0.146286-10.752 0.219429-5.412571 1.024-10.752 0.731429-5.339429 1.974857-10.605714 1.243429-5.193143 2.998857-10.24 1.828571-5.12 4.096-10.020572 2.194286-4.900571 4.973715-9.508571 2.706286-4.681143 5.851428-9.069714 3.218286-4.388571 6.802286-8.338286 3.584-4.096 7.533714-7.753143 3.949714-3.657143 8.265143-6.875429 4.315429-3.218286 8.923429-6.070857 4.534857-2.779429 9.435428-5.12 4.827429-2.340571 9.874286-4.242285 5.12-1.828571 10.24-3.218286 5.266286-1.316571 10.605714-2.194286 5.339429-0.804571 10.678857-1.170286 5.412571-0.292571 10.752-0.073142 5.412571 0.219429 10.752 0.950857 5.339429 0.731429 10.605715 2.048 5.193143 1.243429 10.24 2.998857 5.12 1.755429 10.020571 4.022857t9.508572 4.973714q4.681143 2.779429 9.069714 5.924572 4.388571 3.145143 8.411428 6.729143 4.022857 3.657143 7.68 7.606857 3.657143 3.949714 6.875429 8.192 3.218286 4.388571 6.070857 8.923428 2.779429 4.608 5.12 9.508572 2.413714 4.827429 4.242286 9.874285t3.218286 10.24q1.389714 5.266286 2.194285 10.532572 0.804571 5.339429 1.170286 10.752 0.292571 5.339429 0.073143 10.752t-0.950857 10.752q-0.731429 5.339429-1.974857 10.532571-1.316571 5.266286-3.072 10.313143-1.755429 5.12-4.022858 10.020572-2.194286 4.900571-4.973714 9.508571-2.779429 4.681143-5.851428 8.996571-3.218286 4.388571-6.802286 8.411429-3.657143 4.022857-7.533714 7.68-4.022857 3.657143-8.265143 6.948571-4.388571 3.218286-8.923429 5.997715-4.608 2.852571-9.508571 5.193143-4.827429 2.340571-9.874286 4.242285-5.046857 1.828571-10.24 3.218286-5.266286 1.316571-10.532571 2.194286-5.339429 0.804571-10.752 1.097143-5.339429 0.365714-10.752 0.146285-5.339429-0.219429-10.678858-1.024z" fill="#FF6C1C" p-id="6732"></path></svg>