<?xml version="1.0" standalone="no"?><!DOCTYPE svg PUBLIC "-//W3C//DTD SVG 1.1//EN" "http://www.w3.org/Graphics/SVG/1.1/DTD/svg11.dtd"><svg t="1645018045889" class="icon" viewBox="0 0 2047 1024" version="1.1" xmlns="http://www.w3.org/2000/svg" p-id="8844" xmlns:xlink="http://www.w3.org/1999/xlink" width="399.8046875" height="200"><defs><style type="text/css"></style></defs><path d="M665.11238058 846.043429h743.570286v-109.714286H665.11238058v109.714286z m0-188.489143H1156.63238058v-109.714286H665.18552358v109.714286z m0-195.510857H1156.63238058v-109.714286H665.18552358v109.714286z m0-174.372572h743.570286v-109.714286H665.11238058v109.714286z m-54.857143 503.515429q0 5.412571 1.097143 10.678857 1.024 5.266286 3.145143 10.24 2.048 5.046857 5.046857 9.508571 2.925714 4.534857 6.802286 8.338286 3.803429 3.803429 8.338286 6.802286 4.461714 2.998857 9.508571 5.12 4.973714 2.048 10.24 3.072 5.339429 1.097143 10.752 1.097143 5.339429 0 10.678857-1.097143 5.266286-1.024 10.24-3.072 5.046857-2.121143 9.508572-5.12 4.534857-2.925714 8.338285-6.802286 3.803429-3.803429 6.802286-8.338286 2.998857-4.461714 5.12-9.508571 2.048-4.973714 3.072-10.24 1.024-5.266286 1.024-10.678857t-1.024-10.752q-1.024-5.266286-3.145143-10.24-2.048-5.046857-5.046857-9.508572-2.925714-4.461714-6.802286-8.338285-3.803429-3.803429-8.338285-6.802286-4.461714-2.998857-9.508572-5.12-4.973714-2.048-10.24-3.072-5.339429-1.024-10.678857-1.024-5.412571 0-10.752 1.024-5.266286 1.024-10.24 3.145143-5.046857 2.048-9.508571 5.12-4.534857 2.925714-8.338286 6.729143-3.803429 3.876571-6.802286 8.338285-2.998857 4.461714-5.12 9.508572-2.048 4.973714-3.072 10.24-1.024 5.339429-1.024 10.752z m743.570286 0q0 5.412571 1.024 10.678857t3.145143 10.24q2.048 5.046857 5.046857 9.508571 2.998857 4.534857 6.802286 8.338286 3.803429 3.803429 8.338286 6.802286 4.461714 2.998857 9.508571 5.12 4.973714 2.048 10.24 3.072 5.339429 1.097143 10.752 1.097143 5.339429 0 10.678857-1.097143 5.266286-1.024 10.24-3.072 5.046857-2.121143 9.508572-5.12 4.534857-2.925714 8.338285-6.802286 3.803429-3.803429 6.802286-8.338286 2.998857-4.461714 5.12-9.508571 2.048-4.973714 3.072-10.24 1.097143-5.266286 1.097143-10.678857t-1.097143-10.752q-1.024-5.266286-3.145143-10.24-2.048-5.046857-5.046857-9.508572-2.925714-4.461714-6.802286-8.338285-3.803429-3.803429-8.338285-6.802286-4.461714-2.998857-9.508572-5.12-4.973714-2.048-10.24-3.072-5.339429-1.024-10.678857-1.024-5.412571 0-10.752 1.024-5.266286 1.024-10.24 3.145143-5.046857 2.048-9.508571 5.12-4.534857 2.925714-8.338286 6.729143-3.803429 3.876571-6.802286 8.338285-2.998857 4.461714-5.12 9.508572-2.048 4.973714-3.072 10.24-1.024 5.339429-1.024 10.752zM610.25523758 602.697143q0 5.412571 1.024 10.752 1.024 5.266286 3.145143 10.24 2.048 5.046857 5.046857 9.508571 2.925714 4.461714 6.802286 8.338286 3.803429 3.803429 8.338286 6.802286 4.461714 2.925714 9.508571 5.12 4.973714 1.974857 10.24 3.072 5.339429 1.024 10.752 1.024 5.339429 0 10.678857-1.024 5.266286-1.097143 10.24-3.145143 5.046857-2.048 9.508572-5.12 4.534857-2.925714 8.338286-6.729143 3.803429-3.876571 6.802285-8.338286 2.998857-4.461714 5.12-9.508571 2.048-4.973714 3.072-10.24 1.024-5.339429 1.024-10.752t-1.024-10.678857q-1.024-5.339429-3.145143-10.24-2.048-5.046857-5.046857-9.508572-2.925714-4.534857-6.802285-8.338285-3.803429-3.803429-8.338286-6.802286-4.461714-2.998857-9.508572-5.12-4.973714-2.048-10.24-3.072-5.339429-1.097143-10.678857-1.097143-5.412571 0-10.752 1.097143-5.266286 1.024-10.24 3.072-5.046857 2.121143-9.508571 5.12-4.534857 2.925714-8.338286 6.802286-3.803429 3.803429-6.802286 8.338285-2.998857 4.461714-5.12 9.508572-2.048 4.900571-3.072 10.24-1.024 5.266286-1.024 10.678857z m491.373715 0q0 5.412571 1.024 10.752 1.097143 5.266286 3.145143 10.24 2.048 5.046857 5.12 9.508571 2.925714 4.461714 6.802285 8.338286 3.803429 3.803429 8.265143 6.802286 4.534857 2.925714 9.508572 5.12 4.973714 1.974857 10.24 3.072 5.339429 1.024 10.752 1.024t10.678857-1.024q5.339429-1.097143 10.313143-3.145143 4.973714-2.048 9.508571-5.12 4.461714-2.925714 8.265143-6.729143 3.876571-3.876571 6.875428-8.338286 2.925714-4.461714 5.046858-9.508571 2.048-4.973714 3.145142-10.24 1.024-5.339429 1.024-10.752t-1.024-10.678857q-1.097143-5.339429-3.145142-10.24-2.048-5.046857-5.12-9.508572-2.925714-4.534857-6.802286-8.338285-3.803429-3.803429-8.265143-6.802286-4.534857-2.998857-9.508571-5.12-4.973714-2.048-10.24-3.072-5.339429-1.097143-10.752-1.097143t-10.678858 1.097143q-5.339429 1.024-10.313142 3.072-4.973714 2.121143-9.508572 5.12-4.461714 2.925714-8.265143 6.802286-3.876571 3.803429-6.875428 8.338285-2.925714 4.461714-5.046857 9.508572-2.048 4.900571-3.145143 10.24-1.024 5.266286-1.024 10.678857zM610.32838058 407.186286q0 5.412571 1.024 10.752 1.024 5.266286 3.145143 10.24 2.048 5.046857 5.046857 9.508571 2.925714 4.461714 6.802286 8.338286 3.803429 3.803429 8.338286 6.802286 4.461714 2.998857 9.508571 5.12 4.973714 1.974857 10.24 3.072 5.339429 1.024 10.752 1.024 5.339429 0 10.678857-1.024 5.266286-1.097143 10.24-3.145143 5.046857-2.048 9.508572-5.12 4.534857-2.925714 8.338285-6.729143 3.803429-3.876571 6.802286-8.338286 2.998857-4.461714 5.12-9.508571 2.048-4.973714 3.072-10.24 1.024-5.339429 1.024-10.752t-1.024-10.678857q-1.024-5.266286-3.145143-10.24-2.048-5.046857-5.046857-9.508572-2.925714-4.534857-6.802286-8.338286-3.803429-3.803429-8.338285-6.802285-4.461714-2.998857-9.508572-5.12-4.973714-2.048-10.24-3.072-5.339429-1.097143-10.678857-1.097143-5.412571 0-10.752 1.097143-5.266286 1.024-10.24 3.072-5.046857 2.121143-9.508571 5.12-4.534857 2.925714-8.338286 6.802285-3.803429 3.803429-6.802286 8.338286-2.998857 4.461714-5.12 9.508572-2.048 4.973714-3.072 10.24-1.024 5.266286-1.024 10.678857z m491.373715 0q0 5.412571 1.024 10.752 1.097143 5.266286 3.145142 10.24 2.048 5.046857 5.12 9.508571 2.925714 4.461714 6.802286 8.338286 3.803429 3.803429 8.265143 6.802286 4.534857 2.998857 9.508571 5.12 4.973714 1.974857 10.24 3.072 5.339429 1.024 10.752 1.024t10.678858-1.024q5.339429-1.097143 10.313142-3.145143 4.973714-2.048 9.508572-5.12 4.461714-2.925714 8.265143-6.729143 3.876571-3.876571 6.875428-8.338286 2.925714-4.461714 5.046857-9.508571 2.048-4.973714 3.145143-10.24 1.024-5.339429 1.024-10.752t-1.024-10.678857q-1.097143-5.266286-3.145143-10.24-2.048-5.046857-5.12-9.508572-2.925714-4.534857-6.802285-8.338286-3.803429-3.803429-8.265143-6.802285-4.534857-2.998857-9.508572-5.12-4.973714-2.048-10.24-3.072-5.339429-1.097143-10.752-1.097143t-10.678857 1.097143q-5.339429 1.024-10.313143 3.072-4.973714 2.121143-9.508571 5.12-4.461714 2.925714-8.265143 6.802285-3.876571 3.803429-6.875428 8.338286-2.925714 4.461714-5.046858 9.508572-2.048 4.973714-3.145142 10.24-1.024 5.266286-1.024 10.678857zM610.32838058 232.813714q0 5.412571 1.024 10.752 1.024 5.266286 3.145143 10.24 2.048 5.046857 5.046857 9.508572 2.925714 4.461714 6.802286 8.338285 3.803429 3.803429 8.338286 6.802286 4.461714 2.998857 9.508571 5.12 4.973714 2.048 10.24 3.072 5.339429 1.024 10.752 1.024 5.339429 0 10.678857-1.024 5.266286-1.024 10.24-3.145143 5.046857-2.048 9.508572-5.046857 4.534857-2.998857 8.338285-6.802286 3.803429-3.876571 6.802286-8.338285 2.998857-4.461714 5.12-9.508572 2.048-4.973714 3.072-10.24 1.024-5.339429 1.024-10.752t-1.024-10.678857q-1.024-5.266286-3.145143-10.24-2.048-5.046857-5.046857-9.508571-2.925714-4.534857-6.802286-8.338286-3.803429-3.803429-8.338285-6.802286-4.461714-2.998857-9.508572-5.12-4.973714-2.048-10.24-3.072-5.339429-1.097143-10.678857-1.097143-5.412571 0-10.752 1.097143-5.266286 1.024-10.24 3.072-5.046857 2.121143-9.508571 5.12-4.534857 2.925714-8.338286 6.802286-3.803429 3.803429-6.802286 8.338286-2.998857 4.461714-5.12 9.508571-2.048 4.973714-3.072 10.24-1.024 5.266286-1.024 10.678857z m743.497143 0q0 5.412571 1.024 10.752 1.024 5.266286 3.145143 10.24 2.048 5.046857 5.046857 9.508572 2.998857 4.461714 6.802286 8.338285 3.803429 3.803429 8.338286 6.802286 4.461714 2.998857 9.508571 5.12 4.973714 2.048 10.24 3.072 5.339429 1.024 10.752 1.024 5.339429 0 10.678857-1.024 5.266286-1.024 10.24-3.145143 5.046857-2.048 9.508572-5.046857 4.534857-2.998857 8.338285-6.802286 3.803429-3.876571 6.802286-8.338285 2.998857-4.461714 5.12-9.508572 2.048-4.973714 3.072-10.24 1.097143-5.339429 1.097143-10.752t-1.097143-10.678857q-1.024-5.266286-3.145143-10.24-2.048-5.046857-5.046857-9.508571-2.925714-4.534857-6.802286-8.338286-3.803429-3.803429-8.338285-6.802286-4.461714-2.998857-9.508572-5.12-4.973714-2.048-10.24-3.072-5.339429-1.097143-10.678857-1.097143-5.412571 0-10.752 1.097143-5.266286 1.024-10.24 3.072-5.046857 2.121143-9.508571 5.12-4.534857 2.925714-8.338286 6.802286-3.803429 3.803429-6.802286 8.338286-2.998857 4.461714-5.12 9.508571-2.048 4.973714-3.072 10.24-1.024 5.266286-1.024 10.678857z" fill="#414141" p-id="8845"></path><path d="M1249.01180958 689.444571a14.628571 14.628571 0 0 1-23.844572-11.702857l6.582858-336.164571a14.628571 14.628571 0 0 1 24.283428-10.752l195.291429 172.105143a14.628571 14.628571 0 0 1-0.438857 22.308571l-201.874286 164.205714z" fill="#FF6C1C" p-id="8846"></path></svg>