<?xml version="1.0" standalone="no"?><!DOCTYPE svg PUBLIC "-//W3C//DTD SVG 1.1//EN" "http://www.w3.org/Graphics/SVG/1.1/DTD/svg11.dtd"><svg t="1645018007056" class="icon" viewBox="0 0 1024 1024" version="1.1" xmlns="http://www.w3.org/2000/svg" p-id="8279" xmlns:xlink="http://www.w3.org/1999/xlink" width="200" height="200"><defs><style type="text/css"></style></defs><path d="M586.166857 532.041143l49.005714-445.366857q0.512-5.339429 2.194286-10.532572 1.609143-5.12 4.169143-9.874285 2.633143-4.681143 6.070857-8.850286 3.510857-4.169143 7.68-7.533714 4.242286-3.364571 9.069714-5.851429 4.754286-2.486857 9.947429-4.022857 5.193143-1.462857 10.605714-1.974857 5.339429-0.438857 10.752 0.146285 9.728 1.024 18.505143 5.485715 8.777143 4.388571 15.506286 11.556571 271.36 289.792 251.904 530.870857-14.848 184.32-140.434286 299.52-125.586286 115.346286-312.393143 115.346286-198.436571 0-300.470857-56.832-134.290286-74.752-151.771428-255.122286-22.235429-230.180571 37.595428-378.953143 2.048-5.046857 4.973714-9.508571 2.925714-4.534857 6.729143-8.411429 3.803429-3.876571 8.265143-6.948571 4.461714-2.998857 9.508572-5.12 4.900571-2.194286 10.24-3.218286 5.266286-1.097143 10.605714-1.170285 5.412571 0 10.752 0.950857t10.313143 2.998857q9.289143 3.730286 16.603428 10.459428l198.217143 181.906286-37.083428 40.374857-53.394286-12.434285 69.924571-298.496q1.243429-5.266286 3.437715-10.24 2.194286-4.900571 5.412571-9.289143 3.145143-4.388571 7.094857-8.045715 3.949714-3.657143 8.557714-6.582857 4.534857-2.779429 9.654858-4.681143 5.046857-1.901714 10.386285-2.779428 5.339429-0.877714 10.678857-0.731429 5.412571 0.219429 10.678858 1.462857 10.459429 2.413714 19.163428 8.630858 8.777143 6.144 14.555429 15.213714L686.811429 508.342857l-46.226286 29.622857-54.491429-5.997714z m108.982857 11.995428q-0.585143 6.070857-2.633143 11.922286-1.974857 5.778286-5.266285 10.971429-3.218286 5.266286-7.533715 9.581714-4.315429 4.388571-9.508571 7.753143-4.534857 2.925714-9.508571 4.827428-5.12 1.974857-10.386286 2.925715-5.339429 0.950857-10.678857 0.877714-5.412571-0.146286-10.678857-1.243429-5.339429-1.170286-10.24-3.364571-4.973714-2.194286-9.435429-5.266286-4.388571-3.072-8.118857-6.948571-3.803429-3.876571-6.656-8.484572L386.925714 243.565714l46.226286-29.622857 53.394286 12.507429-69.924572 298.422857q-3.291429 14.043429-13.019428 24.576-3.657143 4.022857-8.045715 7.168-4.315429 3.218286-9.216 5.485714t-10.166857 3.584q-5.193143 1.243429-10.605714 1.462857-5.412571 0.292571-10.752-0.585143-5.339429-0.731429-10.386286-2.633142-5.12-1.828571-9.728-4.681143-4.608-2.779429-8.557714-6.436572L127.926857 370.834286l37.083429-40.374857 50.907428 20.48q-49.883429 123.904-30.208 327.387428 11.922286 123.099429 95.963429 169.837714 77.165714 43.008 247.076571 43.008 144.091429 0 238.299429-86.454857 93.769143-86.089143 105.179428-227.474285 15.506286-192.731429-222.646857-447.122286l40.082286-37.522286 54.491429 5.997714-49.005715 445.366858z" fill="#414141" p-id="8280"></path><path d="M596.114286 574.171429L386.779429 242.322286l46.372571-29.257143 53.394286 12.507428-71.68 305.590858-106.788572-25.088 71.68-305.517715q2.486857-10.532571 8.777143-19.309714 6.217143-8.777143 15.36-14.628571 4.608-2.852571 9.654857-4.754286 5.046857-1.974857 10.313143-2.925714 5.339429-0.877714 10.752-0.731429t10.678857 1.389714q5.266286 1.170286 10.24 3.364572 4.900571 2.194286 9.289143 5.339428 4.388571 3.072 8.118857 7.021715 3.730286 3.949714 6.582857 8.484571L688.932571 515.657143l-92.818285 58.514286z m101.229714-29.257143q0 5.412571-1.097143 10.752-1.024 5.266286-3.145143 10.24-2.048 5.046857-5.046857 9.508571-2.925714 4.534857-6.802286 8.338286-3.803429 3.803429-8.338285 6.802286-4.461714 2.998857-9.508572 5.12-4.973714 2.048-10.24 3.072-5.339429 1.024-10.678857 1.024-5.412571 0-10.752-1.024-5.266286-1.024-10.24-3.145143-5.046857-2.048-9.508571-5.046857-4.534857-2.998857-8.338286-6.802286-3.803429-3.803429-6.802286-8.338286-2.998857-4.461714-5.12-9.508571-2.048-4.973714-3.072-10.24-1.024-5.339429-1.024-10.752 0-5.339429 1.024-10.678857 1.024-5.266286 3.145143-10.24 2.048-5.046857 5.046857-9.508572 2.998857-4.534857 6.802286-8.338286 3.803429-3.803429 8.338286-6.802285 4.461714-2.998857 9.508571-5.12 4.973714-2.048 10.24-3.072 5.339429-1.097143 10.752-1.097143 5.339429 0 10.678857 1.097143 5.266286 1.024 10.24 3.145143 5.046857 2.048 9.508572 5.046857 4.534857 2.925714 8.338285 6.802285 3.803429 3.803429 6.802286 8.338286 2.998857 4.461714 5.12 9.508572 2.048 4.973714 3.072 10.24 1.097143 5.339429 1.097143 10.678857z m-280.868571-26.331429q0 5.412571-1.097143 10.752-1.024 5.266286-3.072 10.24-2.121143 5.046857-5.12 9.508572-2.925714 4.534857-6.802286 8.338285-3.803429 3.803429-8.338286 6.802286-4.461714 2.998857-9.508571 5.12-4.973714 2.048-10.24 3.072-5.339429 1.097143-10.678857 1.097143-5.412571 0-10.752-1.097143-5.266286-1.024-10.24-3.145143-5.046857-2.048-9.508572-5.046857-4.461714-2.925714-8.338285-6.802286-3.803429-3.803429-6.802286-8.338285-2.998857-4.461714-5.12-9.508572-2.048-4.973714-3.072-10.24-1.024-5.339429-1.024-10.678857 0-5.412571 1.024-10.752 1.024-5.266286 3.145143-10.24 2.048-5.046857 5.046857-9.508571 2.998857-4.534857 6.802286-8.338286 3.876571-3.803429 8.338285-6.802286 4.461714-2.998857 9.508572-5.12 4.973714-2.048 10.24-3.072 5.339429-1.024 10.752-1.024 5.339429 0 10.678857 1.024 5.266286 1.024 10.24 3.145143 5.046857 2.048 9.508571 5.046857 4.534857 2.998857 8.338286 6.802286 3.803429 3.803429 6.802286 8.338286 2.998857 4.461714 5.12 9.508571 2.048 4.973714 3.072 10.24 1.097143 5.339429 1.097143 10.752z" fill="#FF6C1C" p-id="8281"></path></svg>