<?xml version="1.0" standalone="no"?><!DOCTYPE svg PUBLIC "-//W3C//DTD SVG 1.1//EN" "http://www.w3.org/Graphics/SVG/1.1/DTD/svg11.dtd"><svg t="1645017901606" class="icon" viewBox="0 0 1024 1024" version="1.1" xmlns="http://www.w3.org/2000/svg" p-id="6158" xmlns:xlink="http://www.w3.org/1999/xlink" width="200" height="200"><defs><style type="text/css"></style></defs><path d="M423.277714 476.379429m146.285715 0l287.670857 0q146.285714 0 146.285714 146.285714l0 230.473143q0 146.285714-146.285714 146.285714l-287.670857 0q-146.285714 0-146.285715-146.285714l0-230.473143q0-146.285714 146.285715-146.285714Z" fill="#414141" p-id="6159"></path><path d="M620.690286 864.182857q-6.875429 0-11.922286-4.973714-4.973714-5.046857-4.973714-11.922286v-181.394286q0-6.875429 4.973714-11.776 5.046857-5.12 11.922286-5.12H694.857143q4.608 0 8.045714 3.437715 3.364571 3.437714 3.364572 8.338285 0 4.827429-3.364572 8.265143-3.437714 3.437714-8.045714 3.437715h-61.732572q-2.194286 0-2.194285 2.267428v62.902857q0 2.194286 2.194285 2.194286h49.152q4.900571 0 8.118858 3.364571 3.364571 3.291429 3.364571 8.045715 0 4.900571-3.364571 8.338285-3.218286 3.437714-8.045715 3.437715h-49.225143q-2.194286 0-2.194285 1.974857v74.020571q0 2.048 2.194285 2.048h64.365715q4.827429 0 8.265143 3.364572 3.437714 3.437714 3.437714 8.192 0 4.681143-3.437714 8.118857t-8.338286 3.437714h-76.8z m141.750857-3.218286q-3.218286 3.218286-7.972572 3.218286-4.681143 0-8.045714-3.218286-3.510857-3.364571-3.510857-8.192V663.04q0-5.705143 4.096-9.801143 4.242286-4.169143 9.947429-4.169143 6.290286 0 11.410285 3.657143 5.12 3.730286 7.168 9.508572l42.569143 120.246857 13.970286 46.006857q0.292571 0.512 0.877714 0.512t0.585143-0.512q-3.145143-56.905143-3.145143-66.56V660.48q0-4.608 3.218286-8.045714 3.364571-3.364571 8.045714-3.364572 4.754286 0 8.118857 3.364572 3.437714 3.437714 3.437715 8.045714v189.732571q0 5.997714-4.169143 9.947429-4.096 4.022857-9.801143 4.022857-6.290286 0-11.410286-3.510857-5.12-3.657143-7.168-9.654857L778.678857 731.428571l-14.628571-46.592q-0.219429-0.585143-0.804572-0.585142t-0.585143 0.585142l1.243429 20.48q1.024 15.213714 1.462857 25.965715 0.438857 10.678857 0.438857 20.406857v101.156571q0 4.827429-3.364571 8.192z" fill="#FF6C1C" p-id="6160"></path><path d="M24.064 14.921143m146.285714 0l382.683429 0q146.285714 0 146.285714 146.285714l0 402.285714q0 146.285714-146.285714 146.285715l-382.683429 0q-146.285714 0-146.285714-146.285715l0-402.285714q0-146.285714 146.285714-146.285714Z" fill="#414141" p-id="6161"></path><path d="M354.304 182.637714q23.990857 11.995429 23.990857 18.870857v3.437715l-1.682286 20.48q-18.870857 0-44.617142-37.668572V179.2q3.437714 0 22.308571 3.437714z m80.603429 42.276572h5.12q22.308571 0 27.428571 16.091428 0 11.337143-13.750857 11.337143h-37.668572l-5.12 27.574857q-10.313143 44.690286-34.377142 103.277715 6.948571 27.574857 133.778285 86.162285 27.428571 8.704 54.857143 20.699429v8.118857l-5.12 10.166857q-94.354286 0-195.437714-93.696h-10.24q-72.045714 75.337143-108.032 75.337143h-15.433143q-24.064 5.193143-27.428571-11.776l39.424-8.411429Q284.013714 457.874286 337.188571 393.508571v-6.729142q-11.995429-13.604571-51.419428-59.245715v-8.484571h18.797714q29.184 27.428571 49.737143 47.981714 11.995429-5.12 32.548571-89.526857v-18.139429h-3.364571l-99.474286 23.552q-17.115429-9.142857-17.115428-18.139428v-9.142857l168.009143-30.72z" fill="#FF6C1C" p-id="6162"></path></svg>