<?xml version="1.0" standalone="no"?><!DOCTYPE svg PUBLIC "-//W3C//DTD SVG 1.1//EN" "http://www.w3.org/Graphics/SVG/1.1/DTD/svg11.dtd"><svg t="1645017800825" class="icon" viewBox="0 0 1024 1024" version="1.1" xmlns="http://www.w3.org/2000/svg" p-id="4064" xmlns:xlink="http://www.w3.org/1999/xlink" width="200" height="200"><defs><style type="text/css"></style></defs><path d="M671.890286 550.034286l172.617143-187.026286q49.737143-52.662857 50.102857-96.548571 0.292571-42.496-46.665143-89.453715-46.592-46.592-87.625143-45.641143-42.422857 0.950857-92.672 51.492572L478.72 371.858286l-77.531429-77.531429 188.708572-188.781714Q671.232 23.625143 757.76 21.650286q87.990857-2.048 167.789714 77.750857 79.433143 79.433143 78.774857 167.936-0.731429 87.04-79.213714 170.057143l-172.617143 187.026285L671.963429 550.034286z m79.140571 76.068571q-3.876571 3.730286-8.338286 6.802286-4.461714 2.925714-9.508571 5.046857-4.973714 2.048-10.24 3.072-5.339429 1.097143-10.752 1.097143-5.339429 0-10.678857-1.097143-5.266286-1.024-10.24-3.072-5.046857-2.048-9.508572-5.12-4.534857-2.925714-8.338285-6.802286-3.803429-3.803429-6.802286-8.265143-2.998857-4.534857-5.12-9.508571-2.048-4.973714-3.072-10.24-1.097143-5.339429-1.097143-10.752t1.097143-10.678857q1.024-5.339429 3.072-10.313143 2.121143-4.973714 5.12-9.508571 2.925714-4.461714 6.802286-8.265143 3.803429-3.876571 8.338285-6.875429 4.461714-2.925714 9.508572-5.046857 4.973714-2.048 10.24-3.145143 5.339429-1.024 10.678857-1.024 5.412571 0 10.752 1.024 5.266286 1.097143 10.24 3.145143 5.046857 2.048 9.508571 5.12 4.461714 2.925714 8.338286 6.802286 3.803429 3.803429 6.802286 8.265143 2.998857 4.534857 5.12 9.508571 2.048 4.973714 3.072 10.24 1.024 5.339429 1.024 10.752t-1.024 10.678857q-1.024 5.339429-3.145143 10.24-2.048 5.12-5.046857 9.508572-2.998857 4.534857-6.802286 8.338285zM478.72 371.785143q-3.803429 3.803429-8.338286 6.802286-4.461714 2.998857-9.508571 5.12-4.973714 2.048-10.24 3.072-5.339429 1.024-10.678857 1.024-5.412571 0-10.752-1.024-5.266286-1.024-10.24-3.145143-5.046857-2.048-9.508572-5.046857-4.534857-2.998857-8.338285-6.802286-3.803429-3.803429-6.802286-8.338286-2.998857-4.461714-5.12-9.508571-2.048-4.973714-3.072-10.24-1.024-5.339429-1.024-10.752 0-5.339429 1.024-10.678857 1.024-5.266286 3.145143-10.24 2.048-5.046857 5.046857-9.508572 2.998857-4.534857 6.802286-8.338286 3.803429-3.803429 8.338285-6.802285 4.461714-2.998857 9.508572-5.12 4.973714-2.048 10.24-3.072 5.339429-1.097143 10.752-1.097143 5.339429 0 10.678857 1.097143 5.266286 1.024 10.24 3.145143 5.046857 2.048 9.508571 5.046857 4.534857 2.925714 8.338286 6.802285 3.803429 3.803429 6.802286 8.338286 2.998857 4.461714 5.12 9.508572 2.048 4.973714 3.072 10.24 1.097143 5.339429 1.097143 10.678857 0 5.412571-1.097143 10.752-1.024 5.266286-3.145143 10.24-2.048 5.046857-5.046857 9.508571-2.925714 4.534857-6.802286 8.338286zM352.109714 479.744l-172.617143 187.026286q-49.737143 52.662857-50.102857 96.548571-0.292571 42.496 46.665143 89.453714 46.592 46.592 87.625143 45.641143 42.422857-0.950857 92.672-51.492571l188.928-189.001143 77.531429 77.604571-188.708572 188.708572q-81.334857 81.92-167.862857 83.894857-87.990857 2.048-167.789714-77.750857Q19.017143 850.944 19.748571 762.441143 20.48 675.401143 98.889143 592.457143l172.617143-187.026286 80.603428 74.386286z m-79.140571-76.068571q3.876571-3.730286 8.338286-6.729143 4.461714-2.998857 9.508571-5.12 4.973714-2.048 10.24-3.072 5.339429-1.097143 10.752-1.097143 5.339429 0 10.678857 1.097143 5.266286 1.024 10.24 3.072 5.046857 2.121143 9.508572 5.12 4.534857 2.925714 8.338285 6.802285 3.803429 3.803429 6.802286 8.338286 2.998857 4.388571 5.12 9.508572 2.048 4.900571 3.072 10.24 1.097143 5.266286 1.097143 10.678857t-1.097143 10.752q-1.024 5.266286-3.072 10.24-2.121143 4.973714-5.12 9.508571-2.925714 4.461714-6.802286 8.338286-3.803429 3.803429-8.338285 6.802286-4.461714 2.925714-9.508572 5.12-4.973714 1.974857-10.24 3.072-5.339429 1.024-10.678857 1.024-5.412571 0-10.752-1.024-5.266286-1.097143-10.24-3.145143-5.046857-2.048-9.508571-5.12-4.461714-2.925714-8.338286-6.729143-3.803429-3.876571-6.802286-8.338286-2.998857-4.534857-5.12-9.508571-2.048-4.973714-3.072-10.24-1.024-5.339429-1.024-10.752t1.024-10.678857q1.024-5.339429 3.145143-10.24 2.048-5.12 5.046857-9.508572 2.998857-4.534857 6.802286-8.338286z m272.310857 254.244571q3.803429-3.803429 8.338286-6.802286 4.461714-2.998857 9.508571-5.12 4.973714-2.048 10.24-3.072 5.339429-1.024 10.678857-1.024 5.412571 0 10.752 1.024 5.266286 1.024 10.24 3.145143 5.046857 2.048 9.508572 5.12 4.534857 2.925714 8.338285 6.729143 3.803429 3.876571 6.802286 8.338286 2.998857 4.461714 5.12 9.508571 2.048 4.973714 3.072 10.24 1.024 5.339429 1.024 10.752t-1.024 10.678857q-1.024 5.266286-3.145143 10.24-2.048 5.046857-5.046857 9.508572-2.998857 4.534857-6.802286 8.338285-3.803429 3.803429-8.338285 6.802286-4.461714 2.998857-9.508572 5.12-4.973714 2.048-10.24 3.072-5.339429 1.097143-10.752 1.097143-5.339429 0-10.678857-1.097143-5.266286-1.024-10.24-3.072-5.046857-2.121143-9.508571-5.12-4.534857-2.925714-8.338286-6.802286-3.803429-3.803429-6.802286-8.338285-2.998857-4.461714-5.12-9.508572-2.048-4.973714-3.072-10.24-1.097143-5.266286-1.097143-10.678857t1.097143-10.752q1.024-5.266286 3.145143-10.24 2.048-5.046857 5.046857-9.508571 2.925714-4.461714 6.802286-8.338286z" fill="#414141" p-id="4065"></path><path d="M378.148571 580.242286l201.142858-186.953143 74.752 80.384L452.754286 660.626286l-74.678857-80.457143z m92.16 40.228571q0 5.339429-1.024 10.605714-1.024 5.339429-3.145142 10.313143-2.048 4.973714-5.046858 9.508572-2.925714 4.461714-6.802285 8.265143-3.803429 3.876571-8.338286 6.875428-4.461714 2.925714-9.508571 5.046857-4.973714 2.048-10.24 3.145143-5.339429 1.024-10.678858 1.024-5.412571 0-10.752-1.024-5.266286-1.097143-10.24-3.145143-5.046857-2.048-9.508571-5.12-4.534857-2.925714-8.338286-6.802285-3.803429-3.803429-6.802285-8.265143-2.998857-4.534857-5.12-9.508572-2.048-4.973714-3.072-10.24-1.024-5.339429-1.024-10.752t1.024-10.678857q1.024-5.339429 3.145142-10.24 2.048-5.12 5.046858-9.508571 2.998857-4.534857 6.802285-8.338286 3.803429-3.803429 8.338286-6.875429 4.461714-2.925714 9.508571-5.046857 4.973714-2.048 10.24-3.145143 5.339429-1.024 10.752-1.024 5.339429 0 10.678858 1.024 5.266286 1.097143 10.24 3.145143 5.046857 2.048 9.508571 5.12 4.534857 2.925714 8.338286 6.802286 3.803429 3.803429 6.802285 8.265143 2.998857 4.534857 5.12 9.508571 2.048 4.973714 3.072 10.24 1.097143 5.339429 1.097143 10.752z m201.216-186.953143q0 5.339429-1.024 10.678857-1.097143 5.266286-3.145142 10.24-2.048 5.046857-5.12 9.508572-2.925714 4.534857-6.802286 8.338286-3.803429 3.803429-8.265143 6.802285-4.534857 2.998857-9.508571 5.12-4.973714 2.048-10.24 3.072-5.339429 1.097143-10.752 1.097143t-10.678858-1.097143q-5.339429-1.024-10.24-3.145143-5.12-2.048-9.508571-5.046857-4.534857-2.925714-8.338286-6.802285-3.803429-3.803429-6.802285-8.338286-2.998857-4.461714-5.12-9.508572-2.048-4.973714-3.072-10.24Q561.737143 438.857143 561.737143 433.517714q0-5.412571 1.097143-10.752 1.024-5.266286 3.072-10.24 2.121143-5.046857 5.12-9.508571 2.925714-4.534857 6.802285-8.338286 3.803429-3.803429 8.265143-6.802286 4.534857-2.998857 9.508572-5.12 4.973714-2.048 10.24-3.072 5.339429-1.024 10.752-1.024t10.678857 1.024q5.339429 1.024 10.313143 3.145143 4.973714 2.048 9.508571 5.046857 4.461714 2.998857 8.265143 6.802286 3.876571 3.803429 6.875429 8.338286 2.925714 4.461714 5.12 9.508571 1.974857 4.973714 3.072 10.24 1.024 5.339429 1.024 10.752z" fill="#FF6C1C" p-id="4066"></path></svg>