<?xml version="1.0" standalone="no"?><!DOCTYPE svg PUBLIC "-//W3C//DTD SVG 1.1//EN" "http://www.w3.org/Graphics/SVG/1.1/DTD/svg11.dtd"><svg t="1645017876696" class="icon" viewBox="0 0 1024 1024" version="1.1" xmlns="http://www.w3.org/2000/svg" p-id="5739" xmlns:xlink="http://www.w3.org/1999/xlink" width="200" height="200"><defs><style type="text/css"></style></defs><path d="M74.386286 525.897143a463.872 463.872 0 1 1 249.782857 405.357714c-35.035429-18.285714-90.404571-14.043429-145.042286-9.874286-68.534857 5.266286-135.753143 10.459429-159.451428-29.257142-33.426286-55.808 21.796571-203.044571 45.129142-302.08l9.508572-64.219429z m149.723428-169.691429Q182.857143 435.492571 184.027429 524.214857l0.146285 8.923429-11.556571 77.531428-1.024 4.388572q-5.851429 24.576-20.48 77.458285-23.478857 84.553143-29.110857 119.442286l-0.438857 2.925714q19.309714-0.731429 49.225142-2.925714 60.489143-4.681143 91.209143-3.803428 67.072 1.828571 112.786286 25.6 130.194286 67.730286 270.043429 23.625142 139.922286-44.178286 207.652571-174.299428 67.730286-130.194286 23.552-270.043429-44.105143-139.922286-174.226286-207.652571-130.194286-67.730286-270.043428-23.552-139.922286 44.105143-207.652572 174.226286z" fill="#414141" p-id="5740"></path><path d="M435.712 512a58.221714 58.221714 0 1 1-116.370286 0 58.221714 58.221714 0 0 1 116.297143 0zM610.669714 512a58.221714 58.221714 0 1 1-116.370285 0 58.221714 58.221714 0 0 1 116.370285 0z" fill="#414141" p-id="5741"></path><path d="M785.627429 512a58.221714 58.221714 0 1 1-116.297143 0 58.221714 58.221714 0 0 1 116.297143 0z" fill="#FF6C1C" p-id="5742"></path></svg>