<?xml version="1.0" standalone="no"?><!DOCTYPE svg PUBLIC "-//W3C//DTD SVG 1.1//EN" "http://www.w3.org/Graphics/SVG/1.1/DTD/svg11.dtd"><svg t="1645017865348" class="icon" viewBox="0 0 2047 1024" version="1.1" xmlns="http://www.w3.org/2000/svg" p-id="5462" xmlns:xlink="http://www.w3.org/1999/xlink" width="399.8046875" height="200"><defs><style type="text/css"></style></defs><path d="M1398.56457092 311.881143H649.43542892v-54.857143h54.857142v509.952h-54.857142v-54.857143h749.129142v109.714286H649.43542892q-5.412571 0-10.678858-1.024-5.339429-1.097143-10.24-3.145143-5.12-2.048-9.508571-5.12-4.534857-2.925714-8.338286-6.802286-3.876571-3.803429-6.875428-8.265143-2.925714-4.534857-5.046857-9.508571-2.048-4.973714-3.145143-10.24-1.024-5.339429-1.024-10.752V257.024q0-5.412571 1.024-10.678857 1.097143-5.339429 3.145143-10.313143 2.048-4.973714 5.12-9.508571 2.925714-4.461714 6.802285-8.265143 3.803429-3.876571 8.265143-6.875429 4.534857-2.925714 9.508572-5.046857 4.973714-2.048 10.24-3.145143 5.339429-1.024 10.752-1.024h749.129142v109.714286z m-54.857142-54.857143q0-5.412571 1.024-10.678857 1.097143-5.339429 3.145142-10.313143 2.048-4.973714 5.12-9.508571 2.925714-4.461714 6.802286-8.265143 3.803429-3.876571 8.265143-6.875429 4.534857-2.925714 9.508571-5.046857 4.973714-2.048 10.24-3.145143 5.339429-1.024 10.752-1.024t10.678858 1.024q5.339429 1.097143 10.313142 3.145143 4.973714 2.048 9.508572 5.12 4.461714 2.925714 8.265143 6.802286 3.876571 3.803429 6.875428 8.265143 2.925714 4.534857 5.046857 9.508571 2.048 4.973714 3.145143 10.24 1.024 5.339429 1.024 10.752t-1.024 10.678857q-1.097143 5.339429-3.145143 10.313143-2.048 4.973714-5.12 9.508571-2.925714 4.461714-6.802285 8.265143-3.803429 3.876571-8.265143 6.875429-4.534857 2.925714-9.508572 5.046857-4.973714 2.048-10.24 3.145143-5.339429 1.024-10.752 1.024t-10.678857-1.024q-5.339429-1.097143-10.313143-3.145143-4.973714-2.048-9.508571-5.12-4.461714-2.925714-8.265143-6.802286-3.876571-3.803429-6.875428-8.265143-2.925714-4.534857-5.046858-9.508571-2.048-4.973714-3.145142-10.24-1.024-5.339429-1.024-10.752z m0 509.952q0-5.412571 1.024-10.678857 1.097143-5.339429 3.145142-10.24 2.048-5.12 5.12-9.508572 2.925714-4.534857 6.802286-8.338285 3.803429-3.803429 8.265143-6.875429 4.534857-2.925714 9.508571-5.046857 4.973714-2.048 10.24-3.145143 5.339429-1.024 10.752-1.024t10.678858 1.024q5.339429 1.097143 10.313142 3.145143 4.973714 2.048 9.508572 5.12 4.461714 2.925714 8.265143 6.802286 3.876571 3.803429 6.875428 8.265143 2.925714 4.534857 5.046857 9.508571 2.048 4.973714 3.145143 10.24 1.024 5.339429 1.024 10.752t-1.024 10.678857q-1.097143 5.339429-3.145143 10.313143-2.048 4.973714-5.12 9.508571-2.925714 4.461714-6.802285 8.265143-3.803429 3.876571-8.265143 6.875429-4.534857 2.925714-9.508572 5.046857-4.973714 2.048-10.24 3.145143-5.339429 1.024-10.752 1.024t-10.678857-1.024q-5.339429-1.097143-10.313143-3.145143-4.973714-2.048-9.508571-5.12-4.461714-2.925714-8.265143-6.802286-3.876571-3.803429-6.875428-8.265143-2.925714-4.534857-5.046858-9.508571-2.048-4.973714-3.145142-10.24-1.024-5.339429-1.024-10.752z" fill="#414141" p-id="5463"></path><path d="M1314.66971392 922.624a14.628571 14.628571 0 0 1-23.844571-11.629714l5.778286-292.132572a14.628571 14.628571 0 0 1 24.283428-10.752l169.618286 149.504a14.628571 14.628571 0 0 1-0.438857 22.308572l-175.396572 142.701714z" fill="#FF6C1C" p-id="5464"></path></svg>