<?xml version="1.0" standalone="no"?><!DOCTYPE svg PUBLIC "-//W3C//DTD SVG 1.1//EN" "http://www.w3.org/Graphics/SVG/1.1/DTD/svg11.dtd"><svg t="1645017827771" class="icon" viewBox="0 0 1024 1024" version="1.1" xmlns="http://www.w3.org/2000/svg" p-id="4622" xmlns:xlink="http://www.w3.org/1999/xlink" width="200" height="200"><defs><style type="text/css"></style></defs><path d="M167.058286 701.44h749.129143v54.857143h-54.857143V246.198857h54.857143v54.857143H167.058286v-109.714286h749.129143q5.339429 0 10.678857 1.024 5.266286 1.097143 10.24 3.145143 5.046857 2.048 9.508571 5.12 4.534857 2.925714 8.338286 6.802286 3.803429 3.803429 6.802286 8.265143 2.998857 4.534857 5.12 9.508571 2.048 4.973714 3.072 10.24 1.097143 5.339429 1.097142 10.752v509.952q0 5.412571-1.097142 10.678857-1.024 5.339429-3.145143 10.313143-2.048 4.973714-5.046857 9.508572-2.925714 4.461714-6.802286 8.265142-3.803429 3.876571-8.338286 6.875429-4.461714 2.925714-9.508571 5.12-4.973714 1.974857-10.24 3.072-5.339429 1.024-10.678857 1.024H167.058286v-109.714286z m54.857143 54.857143q0 5.339429-1.097143 10.605714-1.024 5.339429-3.072 10.313143-2.121143 4.973714-5.12 9.508571-2.925714 4.461714-6.802286 8.265143-3.803429 3.876571-8.338286 6.875429-4.461714 2.925714-9.508571 5.12-4.973714 1.974857-10.24 3.072-5.266286 1.024-10.678857 1.024t-10.752-1.024q-5.266286-1.097143-10.24-3.145143-5.046857-2.048-9.508572-5.12-4.461714-2.925714-8.338285-6.802286-3.803429-3.803429-6.802286-8.265143-2.925714-4.534857-5.12-9.508571-1.974857-4.973714-3.072-10.24-1.024-5.339429-1.024-10.752t1.024-10.678857q1.097143-5.339429 3.145143-10.24 2.048-5.12 5.12-9.508572 2.925714-4.534857 6.729143-8.338285 3.876571-3.803429 8.338285-6.802286 4.461714-2.998857 9.508572-5.12 4.973714-2.048 10.24-3.072 5.339429-1.097143 10.752-1.097143t10.678857 1.097143q5.266286 1.024 10.24 3.072 5.046857 2.121143 9.508571 5.12 4.534857 2.925714 8.338286 6.802286 3.803429 3.803429 6.802286 8.265143 2.998857 4.534857 5.12 9.508571 2.048 4.973714 3.072 10.24 1.097143 5.339429 1.097143 10.752z m0-510.025143q0 5.412571-1.097143 10.678857-1.024 5.339429-3.072 10.313143-2.121143 4.973714-5.12 9.508571-2.925714 4.461714-6.802286 8.265143-3.803429 3.876571-8.338286 6.875429-4.461714 2.925714-9.508571 5.046857-4.973714 2.048-10.24 3.145143-5.266286 1.024-10.678857 1.024t-10.752-1.024q-5.266286-1.097143-10.24-3.145143-5.046857-2.048-9.508572-5.12-4.461714-2.925714-8.338285-6.802286-3.803429-3.803429-6.802286-8.265143-2.925714-4.534857-5.12-9.508571-1.974857-4.973714-3.072-10.24-1.024-5.339429-1.024-10.752t1.024-10.678857q1.097143-5.339429 3.145143-10.313143 2.048-4.973714 5.12-9.508571 2.925714-4.461714 6.729143-8.265143 3.876571-3.876571 8.338285-6.875429 4.461714-2.925714 9.508572-5.046857 4.973714-2.048 10.24-3.145143 5.339429-1.024 10.752-1.024t10.678857 1.024q5.266286 1.097143 10.24 3.145143 5.046857 2.048 9.508571 5.12 4.534857 2.925714 8.338286 6.802286 3.803429 3.803429 6.802286 8.265143 2.998857 4.534857 5.12 9.508571 2.048 4.973714 3.072 10.24 1.097143 5.339429 1.097143 10.752z" fill="#414141" p-id="4623"></path><path d="M242.395429 911.872a14.628571 14.628571 0 0 0 23.844571-11.629714L260.388571 608.109714a14.628571 14.628571 0 0 0-24.283428-10.678857L66.486857 746.788571a14.628571 14.628571 0 0 0 0.512 22.308572l175.396572 142.701714z" fill="#FF6C1C" p-id="4624"></path></svg>