<?xml version="1.0" standalone="no"?><!DOCTYPE svg PUBLIC "-//W3C//DTD SVG 1.1//EN" "http://www.w3.org/Graphics/SVG/1.1/DTD/svg11.dtd"><svg t="1645017835090" class="icon" viewBox="0 0 1024 1024" version="1.1" xmlns="http://www.w3.org/2000/svg" p-id="4762" xmlns:xlink="http://www.w3.org/1999/xlink" width="200" height="200"><defs><style type="text/css"></style></defs><path d="M982.674286 512A470.674286 470.674286 0 1 1 41.325714 512a470.674286 470.674286 0 0 1 941.348572 0z m-109.714286 0q0-149.504-105.691429-255.268571Q661.504 151.04 512 151.04q-149.504 0-255.268571 105.691429Q151.04 362.496 151.04 512q0 149.504 105.691429 255.268571Q362.496 872.96 512 872.96q149.504 0 255.268571-105.691429Q872.96 661.504 872.96 512z" fill="#414141" p-id="4763"></path><path d="M979.017143 791.990857l-125.366857 25.088q-4.681143 0.950857-9.508572 1.024-4.754286 0.146286-9.435428-0.585143t-9.216-2.194285q-4.534857-1.462857-8.777143-3.803429-4.169143-2.194286-7.899429-5.193143-3.730286-2.925714-6.875428-6.582857-3.218286-3.510857-5.705143-7.606857-2.486857-4.022857-4.315429-8.484572L741.814857 658.285714l101.814857-40.740571 50.176 125.366857-50.907428 20.406857-10.752-53.833143 125.366857-25.088 21.504 107.593143z m44.105143-53.76q0 5.412571-1.024 10.678857-1.097143 5.339429-3.145143 10.24-2.048 5.12-5.12 9.508572-2.925714 4.534857-6.802286 8.338285-3.803429 3.803429-8.265143 6.802286-4.534857 2.998857-9.508571 5.12-4.973714 2.048-10.24 3.072-5.339429 1.097143-10.752 1.097143t-10.678857-1.097143q-5.339429-1.024-10.313143-3.072-4.973714-2.121143-9.508572-5.12-4.461714-2.925714-8.265142-6.802286-3.876571-3.803429-6.875429-8.338285-2.925714-4.388571-5.046857-9.508572-2.048-4.900571-3.145143-10.24-1.024-5.266286-1.024-10.678857t1.024-10.752q1.097143-5.266286 3.145143-10.24 2.048-4.973714 5.12-9.508571 2.925714-4.461714 6.802286-8.338286 3.803429-3.803429 8.265142-6.802286 4.534857-2.925714 9.508572-5.12 4.973714-1.974857 10.24-3.072 5.339429-1.024 10.752-1.024t10.678857 1.024q5.339429 1.097143 10.313143 3.145143 4.973714 2.048 9.508571 5.12 4.461714 2.925714 8.265143 6.729143 3.876571 3.876571 6.875429 8.338286 2.925714 4.534857 5.046857 9.508571 2.048 4.973714 3.145143 10.24 1.024 5.339429 1.024 10.752z m-175.542857-100.352q0 5.412571-1.024 10.752-1.097143 5.266286-3.145143 10.24-2.048 5.046857-5.12 9.508572-2.925714 4.461714-6.802286 8.338285-3.803429 3.803429-8.265143 6.802286-4.534857 2.998857-9.508571 5.12-4.973714 2.048-10.24 3.072-5.339429 1.024-10.752 1.024t-10.678857-1.024q-5.339429-1.024-10.313143-3.145143-4.973714-2.048-9.508572-5.046857-4.461714-2.998857-8.265143-6.802286-3.876571-3.876571-6.875428-8.338285-2.925714-4.461714-5.046857-9.508572-2.048-4.973714-3.145143-10.24-1.024-5.339429-1.024-10.752 0-5.339429 1.024-10.678857 1.097143-5.266286 3.145143-10.24 2.048-5.046857 5.12-9.508571 2.925714-4.534857 6.802285-8.338286 3.803429-3.803429 8.265143-6.802286 4.534857-2.998857 9.508572-5.12 4.973714-2.048 10.24-3.072 5.339429-1.097143 10.752-1.097143t10.678857 1.097143q5.339429 1.024 10.313143 3.072 4.973714 2.121143 9.508571 5.12 4.461714 2.925714 8.265143 6.802286 3.876571 3.803429 6.875429 8.338286 2.925714 4.461714 5.046857 9.508571 2.048 4.973714 3.145143 10.24 1.024 5.339429 1.024 10.678857z" fill="#F6691B" p-id="4764"></path><path d="M680.740571 453.485714Q662.089143 341.577143 550.326857 322.998857l17.993143-108.251428q189.147429 31.597714 220.672 220.672l-108.251429 18.066285z m108.982858-8.996571q0 5.339429-1.097143 10.678857-1.024 5.266286-3.072 10.24-2.121143 5.046857-5.12 9.508571-2.925714 4.534857-6.802286 8.338286-3.803429 3.803429-8.265143 6.802286-4.534857 2.998857-9.508571 5.12-4.973714 2.048-10.24 3.072-5.339429 1.097143-10.752 1.097143T724.114286 498.249143q-5.339429-1.024-10.313143-3.072-4.973714-2.121143-9.508572-5.12-4.461714-2.925714-8.265142-6.802286-3.876571-3.803429-6.875429-8.338286-2.925714-4.461714-5.12-9.508571-1.974857-4.973714-3.072-10.24-1.024-5.339429-1.024-10.678857 0-5.412571 1.024-10.752 1.097143-5.266286 3.145143-10.24 2.048-5.046857 5.12-9.508572 2.925714-4.461714 6.802286-8.338285 3.803429-3.803429 8.265142-6.802286 4.534857-2.998857 9.508572-5.12 4.973714-2.048 10.24-3.072 5.339429-1.024 10.752-1.024t10.678857 1.024q5.339429 1.024 10.24 3.145143 5.12 2.048 9.508571 5.046857 4.534857 2.998857 8.338286 6.802286 3.803429 3.876571 6.802286 8.338285 2.998857 4.461714 5.12 9.508572 2.048 4.973714 3.072 10.24 1.097143 5.339429 1.097143 10.752z m-175.542858-175.542857q0 5.339429-1.097142 10.678857-1.024 5.266286-3.072 10.24-2.121143 5.046857-5.12 9.508571-2.925714 4.534857-6.802286 8.338286-3.803429 3.803429-8.265143 6.802286-4.534857 2.998857-9.508571 5.12-4.973714 2.048-10.24 3.072-5.339429 1.097143-10.752 1.097143T548.571429 322.706286q-5.339429-1.024-10.313143-3.072-4.973714-2.121143-9.508572-5.12-4.461714-2.925714-8.265143-6.802286-3.876571-3.803429-6.875428-8.338286-2.925714-4.461714-5.12-9.508571-1.974857-4.973714-3.072-10.24-1.024-5.339429-1.024-10.678857 0-5.412571 1.024-10.752 1.097143-5.266286 3.145143-10.24 2.048-5.046857 5.12-9.508572 2.925714-4.461714 6.802285-8.338285 3.803429-3.803429 8.265143-6.802286 4.534857-2.998857 9.508572-5.12 4.973714-2.048 10.24-3.072 5.339429-1.024 10.752-1.024t10.678857 1.024q5.339429 1.024 10.24 3.145143 5.12 2.048 9.508571 5.046857 4.534857 2.998857 8.338286 6.802286 3.803429 3.876571 6.802286 8.338285 2.998857 4.461714 5.12 9.508572 2.048 4.973714 3.072 10.24 1.097143 5.339429 1.097143 10.752z" fill="#414141" p-id="4765"></path></svg>