<?xml version="1.0" standalone="no"?><!DOCTYPE svg PUBLIC "-//W3C//DTD SVG 1.1//EN" "http://www.w3.org/Graphics/SVG/1.1/DTD/svg11.dtd"><svg t="1645018103762" class="icon" viewBox="0 0 1024 1024" version="1.1" xmlns="http://www.w3.org/2000/svg" p-id="9120" xmlns:xlink="http://www.w3.org/1999/xlink" width="200" height="200"><defs><style type="text/css"></style></defs><path d="M624.493714 594.066286L357.010286 334.555429l-3.072-3.072-110.445715-115.931429L402.505143 64.146286l110.445714 115.931428-79.506286 75.702857L509.878857 177.005714l267.556572 259.437715-152.868572 157.622857z m82.358857-188.342857q5.412571 0.292571 10.752 1.097142 5.266286 0.731429 10.532572 2.121143 5.193143 1.316571 10.24 3.145143 5.12 1.828571 9.947428 4.169143 4.900571 2.340571 9.508572 5.12 4.608 2.779429 8.923428 5.997714 4.315429 3.218286 8.265143 6.875429 3.949714 3.657143 7.606857 7.606857 3.584 4.022857 6.802286 8.338286 3.145143 4.388571 5.851429 8.996571 2.779429 4.608 5.12 9.508572 2.194286 4.827429 4.022857 9.947428t3.072 10.24q1.316571 5.266286 2.048 10.605714 0.731429 5.339429 1.024 10.752 0.219429 5.412571 0 10.752-0.292571 5.412571-1.170286 10.752-0.731429 5.266286-2.121143 10.532572-1.316571 5.193143-3.145143 10.24-1.901714 5.12-4.169142 9.947428-2.340571 4.900571-5.12 9.508572-2.852571 4.608-6.070858 8.923428-3.218286 4.315429-6.875428 8.265143-3.657143 4.022857-7.606857 7.606857-4.022857 3.657143-8.338286 6.802286-4.388571 3.218286-8.996571 5.997714-4.681143 2.706286-9.508572 5.046858-4.900571 2.194286-10.020571 4.022857t-10.24 3.145143q-5.266286 1.243429-10.605715 2.048-5.339429 0.731429-10.752 1.024-5.339429 0.219429-10.752 0-5.412571-0.292571-10.678857-1.170286-5.339429-0.731429-10.605714-2.121143-5.193143-1.316571-10.24-3.145143-5.12-1.828571-9.947429-4.169143-4.827429-2.267429-9.508571-5.12-4.608-2.779429-8.923429-5.997714-4.315429-3.218286-8.265142-6.802286-3.949714-3.657143-7.606858-7.68-3.584-4.022857-6.729142-8.338285-3.218286-4.388571-5.997715-8.996572-2.706286-4.608-4.973714-9.508571-2.340571-4.827429-4.096-9.947429-1.828571-5.12-3.072-10.24-1.316571-5.266286-2.048-10.605714-0.731429-5.339429-1.024-10.752-0.219429-5.339429 0-10.752 0.365714-5.412571 1.170286-10.678857 0.804571-5.339429 2.194285-10.605715 1.243429-5.193143 3.145143-10.24 1.828571-5.12 4.169143-9.947428 2.267429-4.900571 5.12-9.508572 2.779429-4.608 5.997714-8.923428 3.218286-4.315429 6.875429-8.265143 3.657143-4.022857 7.606857-7.606857 4.022857-3.657143 8.411429-6.802286 4.315429-3.218286 8.923428-5.997714 4.681143-2.706286 9.508572-4.973714 4.900571-2.340571 10.020571-4.096 5.12-1.828571 10.24-3.145143 5.266286-1.243429 10.605714-2.048 5.339429-0.731429 10.752-1.024 5.412571-0.219429 10.752 0zM328.923429 30.281143q5.412571 0.292571 10.678857 1.097143 5.339429 0.731429 10.605714 2.121143 5.193143 1.316571 10.24 3.145142 5.12 1.828571 9.947429 4.169143 4.900571 2.340571 9.508571 5.12 4.608 2.779429 8.923429 5.997715 4.315429 3.218286 8.265142 6.875428 3.949714 3.657143 7.606858 7.606857 3.584 4.022857 6.729142 8.338286 3.218286 4.388571 5.997715 8.996571 2.706286 4.608 4.973714 9.508572 2.340571 4.900571 4.096 9.947428 1.828571 5.12 3.072 10.313143 1.316571 5.266286 2.048 10.532572 0.731429 5.339429 1.024 10.752 0.219429 5.412571 0 10.752-0.365714 5.412571-1.170286 10.752-0.731429 5.266286-2.194285 10.532571-1.243429 5.193143-3.145143 10.24-1.828571 5.12-4.169143 9.947429-2.267429 4.900571-5.12 9.508571-2.779429 4.608-5.997714 8.923429-3.218286 4.388571-6.875429 8.338285-3.657143 3.949714-7.606857 7.533715-4.022857 3.657143-8.411429 6.802285-4.315429 3.218286-8.923428 5.997715-4.681143 2.706286-9.508572 5.046857-4.900571 2.194286-10.020571 4.022857t-10.24 3.145143q-5.266286 1.243429-10.605714 2.048-5.339429 0.731429-10.752 1.024-5.412571 0.219429-10.752 0-5.412571-0.292571-10.752-1.097143-5.266286-0.877714-10.532572-2.194286-5.193143-1.316571-10.24-3.145143-5.12-1.828571-9.947428-4.169142-4.900571-2.267429-9.508572-5.12-4.608-2.779429-8.923428-5.997715-4.315429-3.218286-8.265143-6.802285-3.949714-3.657143-7.606857-7.68-3.584-4.022857-6.802286-8.338286-3.145143-4.388571-5.851429-8.996572-2.779429-4.608-5.12-9.508571-2.194286-4.827429-4.022857-9.947429t-3.072-10.24q-1.316571-5.266286-2.048-10.605714-0.731429-5.339429-1.024-10.752-0.219429-5.339429 0-10.752 0.292571-5.412571 1.170286-10.678857 0.731429-5.339429 2.121143-10.605714 1.316571-5.193143 3.145143-10.24 1.901714-5.12 4.169142-9.947429 2.340571-4.900571 5.12-9.508571 2.852571-4.608 6.070858-8.923429 3.218286-4.315429 6.875428-8.265143 3.657143-4.022857 7.606857-7.606857 4.022857-3.657143 8.338286-6.802286 4.388571-3.218286 8.996571-5.924571 4.681143-2.779429 9.508572-5.12 4.900571-2.194286 10.020571-4.022857t10.24-3.145143q5.266286-1.243429 10.605715-2.048 5.339429-0.731429 10.752-1.024 5.339429-0.219429 10.752 0z" fill="#414141" p-id="9121"></path><path d="M252.781714 747.227429l378.587429-315.904 140.434286 168.082285-378.587429 315.830857-140.434286-168.009142z m178.468572 102.180571q-0.950857 5.339429-2.413715 10.532571-1.462857 5.12-3.364571 10.24-1.901714 5.046857-4.388571 9.874286-2.340571 4.827429-5.266286 9.362286-2.852571 4.534857-6.144 8.777143-3.364571 4.315429-7.021714 8.265143-3.730286 3.876571-7.826286 7.387428-4.096 3.584-8.484572 6.729143-4.388571 3.072-9.069714 5.778286t-9.654857 4.900571q-4.900571 2.194286-10.020571 3.876572-5.12 1.755429-10.386286 2.925714-5.266286 1.243429-10.605714 1.901714-5.339429 0.731429-10.752 0.877714t-10.752-0.219428q-5.412571-0.365714-10.752-1.243429-5.266286-0.950857-10.459429-2.340571-5.193143-1.462857-10.24-3.291429-5.12-1.901714-9.874286-4.388571-4.827429-2.340571-9.362285-5.193143-4.608-2.925714-8.777143-6.144-4.315429-3.291429-8.192-7.021714-3.949714-3.657143-7.460572-7.753143-3.510857-4.022857-6.582857-8.411429-3.145143-4.388571-5.851428-9.069714-2.633143-4.681143-4.827429-9.581714-2.194286-4.900571-3.876571-10.020572-1.755429-5.12-2.925715-10.386285-1.170286-5.193143-1.828571-10.532572-0.731429-5.339429-0.804572-10.752-0.146286-5.412571 0.219429-10.752 0.438857-5.412571 1.316571-10.678857 0.950857-5.339429 2.340572-10.532571 1.462857-5.193143 3.364571-10.24 1.974857-5.046857 4.388572-9.874286t5.266285-9.362286q2.925714-4.534857 6.217143-8.777143 3.291429-4.315429 7.021715-8.265143 3.657143-3.876571 7.753142-7.460571 4.096-3.510857 8.484572-6.582857 4.388571-3.145143 9.142857-5.851429 4.681143-2.706286 9.581714-4.900571 4.973714-2.194286 10.093715-3.876572 5.12-1.755429 10.386285-2.925714 5.266286-1.243429 10.605715-1.901714 5.339429-0.731429 10.752-0.877714 5.339429-0.146286 10.752 0.219428 5.339429 0.365714 10.678857 1.243429 5.339429 0.950857 10.532571 2.340571 5.12 1.462857 10.24 3.291429 5.046857 1.901714 9.874286 4.388571 4.754286 2.340571 9.362286 5.193143 4.534857 2.925714 8.777142 6.144 4.242286 3.291429 8.192 7.021714 3.876571 3.657143 7.460572 7.753143 3.510857 4.022857 6.582857 8.411429 3.145143 4.388571 5.851429 9.069714 2.633143 4.681143 4.827428 9.581714 2.194286 4.900571 3.876572 10.020572t2.925714 10.386285q1.170286 5.193143 1.828571 10.532572 0.658286 5.339429 0.731429 10.752 0.219429 5.412571-0.219429 10.752-0.365714 5.412571-1.316571 10.678857z m378.514285-315.830857q-0.950857 5.266286-2.413714 10.459428-1.462857 5.193143-3.364571 10.24-1.901714 5.12-4.388572 9.874286-2.340571 4.827429-5.266285 9.362286-2.852571 4.608-6.144 8.850286-3.364571 4.242286-7.021715 8.192-3.730286 3.949714-7.826285 7.460571-4.096 3.510857-8.484572 6.656-4.388571 3.145143-9.069714 5.851429-4.681143 2.633143-9.654857 4.827428-4.900571 2.194286-10.020572 3.949714-5.12 1.682286-10.386285 2.925715-5.266286 1.170286-10.605715 1.901714-5.339429 0.658286-10.752 0.804571t-10.752-0.219428q-5.412571-0.365714-10.678857-1.243429-5.339429-0.877714-10.532571-2.267428-5.193143-1.462857-10.24-3.364572-5.046857-1.901714-9.874286-4.315428t-9.362286-5.266286q-4.608-2.852571-8.777143-6.144-4.315429-3.291429-8.192-6.948571-3.949714-3.657143-7.460571-7.753143-3.510857-4.096-6.582857-8.484572-3.145143-4.388571-5.851429-9.069714-2.633143-4.608-4.827428-9.508571-2.194286-4.973714-3.876572-10.093715-1.755429-5.12-2.925714-10.313143-1.170286-5.266286-1.828571-10.605714-0.731429-5.339429-0.804572-10.752-0.146286-5.339429 0.219429-10.752 0.438857-5.339429 1.316571-10.678857 0.950857-5.266286 2.340572-10.459429 1.462857-5.266286 3.364571-10.24 1.974857-5.12 4.388571-9.874285 2.413714-4.827429 5.266286-9.435429 2.925714-4.534857 6.217143-8.777143 3.291429-4.315429 7.021714-8.192 3.657143-3.949714 7.826286-7.460571 4.022857-3.510857 8.484571-6.656 4.388571-3.145143 9.069715-5.851429 4.681143-2.633143 9.581714-4.827428 4.973714-2.194286 10.093714-3.949715 5.12-1.682286 10.386286-2.925714 5.266286-1.170286 10.605714-1.901714 5.339429-0.731429 10.752-0.804572 5.339429-0.219429 10.752 0.146286 5.339429 0.365714 10.678857 1.316572 5.339429 0.877714 10.532572 2.267428 5.193143 1.462857 10.24 3.364572 5.046857 1.901714 9.874286 4.315428 4.754286 2.340571 9.362285 5.193143 4.534857 2.925714 8.777143 6.144 4.315429 3.364571 8.192 7.021714 3.949714 3.657143 7.460572 7.753143 3.510857 4.096 6.582857 8.484572 3.145143 4.388571 5.851428 8.996571 2.633143 4.681143 4.827429 9.581714 2.194286 4.973714 3.876571 10.020572 1.682286 5.12 2.925715 10.386285 1.170286 5.266286 1.828571 10.605715 0.658286 5.339429 0.731429 10.678857 0.219429 5.412571-0.219429 10.825143-0.365714 5.339429-1.243429 10.678857z" fill="#FF6C1C" p-id="9122"></path></svg>