<?xml version="1.0" standalone="no"?><!DOCTYPE svg PUBLIC "-//W3C//DTD SVG 1.1//EN" "http://www.w3.org/Graphics/SVG/1.1/DTD/svg11.dtd"><svg t="1645017999417" class="icon" viewBox="0 0 1024 1024" version="1.1" xmlns="http://www.w3.org/2000/svg" p-id="8139" xmlns:xlink="http://www.w3.org/1999/xlink" width="200" height="200"><defs><style type="text/css"></style></defs><path d="M360.594286 133.778286H77.312v-54.857143h54.857143v287.817143h-109.714286V78.921143q0-5.412571 1.024-10.678857Q24.576 62.902857 26.624 57.929143q2.048-4.973714 5.12-9.508572Q34.596571 43.958857 38.4 40.228571 42.422857 36.278857 46.811429 33.28q4.534857-2.925714 9.508571-5.12Q61.293714 26.258286 66.56 25.161143 71.899429 24.137143 77.312 24.137143H360.594286v109.714286z m54.857143-54.857143q0 5.412571-1.024 10.678857-1.097143 5.339429-3.145143 10.24-2.048 5.12-5.12 9.508571-2.925714 4.534857-6.729143 8.338286-3.876571 3.803429-8.338286 6.802286-4.534857 2.998857-9.508571 5.12-4.973714 2.048-10.24 3.072-5.339429 1.097143-10.752 1.097143t-10.678857-1.097143q-5.339429-1.024-10.24-3.072-5.12-2.121143-9.508572-5.12-4.534857-2.925714-8.338286-6.802286-3.803429-3.803429-6.802285-8.265143-2.998857-4.534857-5.12-9.508571-2.048-4.973714-3.072-10.24-1.097143-5.339429-1.097143-10.752t1.097143-10.678857q1.024-5.339429 3.072-10.313143 2.121143-4.973714 5.12-9.508572 2.925714-4.461714 6.802285-8.265142 3.803429-3.876571 8.338286-6.875429 4.388571-2.925714 9.508572-5.12 4.900571-1.974857 10.24-3.072Q355.181714 24.137143 360.594286 24.137143t10.678857 1.024q5.339429 1.097143 10.313143 3.145143 4.973714 2.048 9.508571 5.12 4.461714 2.925714 8.338286 6.802285 3.803429 3.803429 6.802286 8.265143 2.925714 4.534857 5.12 9.508572 1.974857 4.973714 3.072 10.24 1.024 5.339429 1.024 10.752zM132.169143 366.738286q0 5.412571-1.097143 10.678857-1.024 5.266286-3.072 10.24-2.121143 5.046857-5.12 9.508571-2.925714 4.534857-6.802286 8.338286-3.803429 3.803429-8.338285 6.802286-4.461714 2.998857-9.508572 5.12-4.900571 2.048-10.24 3.072-5.266286 1.097143-10.678857 1.097143T66.56 420.498286q-5.266286-1.024-10.24-3.072-4.973714-2.121143-9.508571-5.12-4.461714-2.925714-8.338286-6.802286-3.803429-3.803429-6.802286-8.338286-2.925714-4.461714-5.12-9.508571-1.974857-4.973714-3.072-10.24-1.024-5.266286-1.024-10.678857t1.024-10.752q1.097143-5.266286 3.145143-10.24 2.048-5.046857 5.12-9.508572 2.925714-4.461714 6.729143-8.338285 3.876571-3.803429 8.338286-6.802286 4.534857-2.925714 9.508571-5.12 4.973714-1.974857 10.24-3.072 5.339429-1.024 10.752-1.024t10.678857 1.024q5.339429 1.097143 10.24 3.145143 5.046857 2.048 9.508572 5.12 4.534857 2.925714 8.338285 6.729143 3.803429 3.876571 6.802286 8.338285 2.998857 4.461714 5.12 9.508572 2.048 4.973714 3.072 10.24 1.097143 5.339429 1.097143 10.752zM360.594286 890.660571H77.312v54.857143h54.857143V657.773714h-109.714286v287.744q0 5.412571 1.024 10.752 1.097143 5.266286 3.145143 10.24 2.048 5.046857 5.12 9.508572 2.925714 4.534857 6.729143 8.338285 3.876571 3.803429 8.338286 6.802286 4.534857 2.998857 9.508571 5.12 4.973714 2.048 10.24 3.072 5.339429 1.024 10.752 1.024H360.594286v-109.714286z m54.857143 54.857143q0-5.339429-1.024-10.678857-1.097143-5.266286-3.145143-10.24-2.048-5.046857-5.12-9.508571-2.925714-4.534857-6.729143-8.338286-3.876571-3.803429-8.338286-6.802286-4.534857-2.998857-9.508571-5.12-4.973714-2.048-10.24-3.072-5.339429-1.097143-10.752-1.097143t-10.678857 1.097143q-5.339429 1.024-10.24 3.145143-5.12 2.048-9.508572 5.046857-4.534857 2.925714-8.338286 6.802286-3.803429 3.803429-6.802285 8.338286-2.998857 4.461714-5.12 9.508571-2.048 4.973714-3.072 10.24-1.097143 5.339429-1.097143 10.678857 0 5.412571 1.097143 10.752 1.024 5.266286 3.072 10.24 2.121143 5.046857 5.12 9.508572 2.925714 4.534857 6.802285 8.338285 3.803429 3.803429 8.338286 6.802286 4.388571 2.998857 9.508572 5.12 4.900571 2.048 10.24 3.072 5.266286 1.024 10.678857 1.024t10.678857-1.024q5.339429-1.024 10.313143-3.145143 4.973714-2.048 9.508571-5.046857 4.461714-2.998857 8.338286-6.802286 3.803429-3.803429 6.802286-8.338285 2.925714-4.461714 5.12-9.508572 1.974857-4.973714 3.072-10.24 1.024-5.339429 1.024-10.752zM132.169143 657.773714q0-5.412571-1.097143-10.752-1.024-5.266286-3.072-10.24-2.121143-5.046857-5.12-9.508571-2.925714-4.534857-6.802286-8.338286-3.803429-3.803429-8.338285-6.802286-4.461714-2.998857-9.508572-5.12-4.900571-2.048-10.24-3.072-5.266286-1.024-10.678857-1.024t-10.752 1.024q-5.266286 1.024-10.24 3.145143-4.973714 2.048-9.508571 5.046857-4.461714 2.998857-8.338286 6.802286-3.803429 3.803429-6.802286 8.338286-2.925714 4.461714-5.12 9.508571-1.974857 4.973714-3.072 10.24-1.024 5.339429-1.024 10.752 0 5.339429 1.024 10.678857 1.097143 5.266286 3.145143 10.24 2.048 5.046857 5.12 9.508572 2.925714 4.534857 6.729143 8.338286 3.876571 3.803429 8.338286 6.802285 4.534857 2.998857 9.508571 5.12 4.973714 2.048 10.24 3.072 5.339429 1.097143 10.752 1.097143t10.678857-1.097143q5.339429-1.024 10.24-3.145143 5.046857-2.048 9.508572-5.046857 4.534857-2.925714 8.338285-6.802285 3.803429-3.803429 6.802286-8.338286 2.998857-4.461714 5.12-9.508572 2.048-4.973714 3.072-10.24 1.097143-5.339429 1.097143-10.678857zM670.500571 890.660571h283.282286v54.857143h-54.857143V657.773714h109.714286v287.744q0 5.412571-1.024 10.752-1.024 5.266286-3.145143 10.24-2.048 5.046857-5.046857 9.508572-2.998857 4.534857-6.802286 8.338285-3.803429 3.803429-8.338285 6.802286-4.461714 2.998857-9.508572 5.12-4.973714 2.048-10.24 3.072-5.339429 1.024-10.752 1.024H670.500571v-109.714286z m-54.857142 54.857143q0-5.339429 1.024-10.678857 1.097143-5.266286 3.145142-10.24 2.048-5.046857 5.12-9.508571 2.925714-4.534857 6.802286-8.338286 3.803429-3.803429 8.265143-6.802286 4.534857-2.998857 9.508571-5.12 4.973714-2.048 10.24-3.072 5.339429-1.097143 10.752-1.097143t10.678858 1.097143q5.339429 1.024 10.313142 3.145143 4.973714 2.048 9.508572 5.046857 4.461714 2.925714 8.265143 6.802286 3.876571 3.803429 6.875428 8.338286 2.925714 4.461714 5.046857 9.508571 2.048 4.973714 3.145143 10.24 1.024 5.339429 1.024 10.678857 0 5.412571-1.024 10.752-1.097143 5.266286-3.145143 10.24-2.048 5.046857-5.12 9.508572-2.925714 4.534857-6.802285 8.338285-3.803429 3.803429-8.265143 6.802286-4.534857 2.998857-9.508572 5.12-4.973714 2.048-10.24 3.072-5.339429 1.024-10.752 1.024t-10.678857-1.024q-5.339429-1.024-10.313143-3.145143-4.973714-2.048-9.508571-5.046857-4.461714-2.998857-8.265143-6.802286-3.876571-3.803429-6.875428-8.338285-2.925714-4.461714-5.046858-9.508572-2.048-4.973714-3.145142-10.24-1.024-5.339429-1.024-10.752z m283.282285-287.744q0-5.412571 1.097143-10.752 1.024-5.266286 3.072-10.24 2.121143-5.046857 5.12-9.508571 2.925714-4.534857 6.802286-8.338286 3.803429-3.803429 8.338286-6.802286 4.461714-2.998857 9.508571-5.12 4.973714-2.048 10.24-3.072 5.339429-1.024 10.678857-1.024 5.412571 0 10.752 1.024 5.266286 1.024 10.24 3.145143 5.046857 2.048 9.508572 5.046857 4.534857 2.998857 8.338285 6.802286 3.803429 3.803429 6.802286 8.338286 2.998857 4.461714 5.12 9.508571 2.048 4.973714 3.072 10.24 1.024 5.339429 1.024 10.752 0 5.339429-1.024 10.678857-1.024 5.266286-3.145143 10.24-2.048 5.046857-5.046857 9.508572-2.998857 4.534857-6.802286 8.338286-3.803429 3.803429-8.338285 6.802285-4.461714 2.998857-9.508572 5.12-4.973714 2.048-10.24 3.072-5.339429 1.097143-10.752 1.097143-5.339429 0-10.678857-1.097143-5.266286-1.024-10.24-3.145143-5.046857-2.048-9.508571-5.046857-4.534857-2.925714-8.338286-6.802285-3.803429-3.803429-6.802286-8.338286-2.998857-4.461714-5.12-9.508572-2.048-4.973714-3.072-10.24-1.097143-5.339429-1.097143-10.678857zM664.137143 133.778286h283.282286v-54.857143h-54.857143v287.817143h109.714285V78.921143q0-5.412571-1.024-10.678857-1.024-5.339429-3.145142-10.313143-2.048-4.973714-5.046858-9.508572-2.998857-4.461714-6.802285-8.265142-3.876571-3.876571-8.338286-6.875429-4.461714-2.925714-9.508571-5.12-4.973714-1.974857-10.24-3.072-5.339429-1.024-10.752-1.024H664.137143v109.714286z m-54.857143-54.857143q0 5.412571 1.024 10.678857 1.097143 5.339429 3.145143 10.24 2.048 5.12 5.12 9.508571 2.925714 4.534857 6.802286 8.338286 3.803429 3.803429 8.265142 6.802286 4.534857 2.998857 9.508572 5.12 4.973714 2.048 10.24 3.072 5.339429 1.097143 10.752 1.097143t10.678857-1.097143q5.339429-1.024 10.313143-3.072 4.973714-2.121143 9.508571-5.12 4.461714-2.925714 8.265143-6.802286 3.876571-3.803429 6.875429-8.265143 2.925714-4.534857 5.046857-9.508571 2.048-4.973714 3.145143-10.24 1.024-5.339429 1.024-10.752T717.970286 68.242286Q716.8 62.902857 714.825143 57.929143q-2.048-4.973714-5.12-9.508572Q706.852571 43.958857 702.902857 40.228571 699.099429 36.278857 694.637714 33.28q-4.534857-2.925714-9.508571-5.12-4.973714-1.974857-10.24-3.072Q669.476571 24.137143 664.137143 24.137143t-10.678857 1.024q-5.339429 1.097143-10.313143 3.145143-4.973714 2.048-9.508572 5.12-4.461714 2.925714-8.265142 6.802285-3.876571 3.803429-6.875429 8.265143-2.925714 4.534857-5.046857 9.508572-2.048 4.973714-3.145143 10.24-1.024 5.339429-1.024 10.752z m283.282286 287.817143q0 5.412571 1.097143 10.678857 1.024 5.266286 3.072 10.24 2.121143 5.046857 5.12 9.508571 2.925714 4.534857 6.802285 8.338286 3.803429 3.803429 8.338286 6.802286 4.461714 2.998857 9.508571 5.12 4.973714 2.048 10.24 3.072 5.339429 1.097143 10.678858 1.097143 5.412571 0 10.752-1.097143 5.266286-1.024 10.24-3.072 5.046857-2.121143 9.508571-5.12 4.461714-2.925714 8.338286-6.802286 3.803429-3.803429 6.802285-8.338286 2.998857-4.461714 5.12-9.508571 2.048-4.973714 3.072-10.24 1.024-5.266286 1.024-10.678857t-1.024-10.752q-1.024-5.266286-3.145142-10.24-2.048-5.046857-5.046858-9.508572-2.998857-4.461714-6.802285-8.338285-3.876571-3.803429-8.338286-6.802286-4.461714-2.925714-9.508571-5.12-4.973714-1.974857-10.24-3.072-5.339429-1.024-10.752-1.024-5.339429 0-10.678858 1.024-5.266286 1.097143-10.24 3.145143-5.046857 2.048-9.508571 5.12-4.534857 2.925714-8.338286 6.729143-3.803429 3.876571-6.802285 8.338285-2.998857 4.461714-5.12 9.508572-2.048 4.973714-3.072 10.24-1.097143 5.339429-1.097143 10.752z" fill="#414141" p-id="8140"></path><path d="M731.574857 571.757714H290.889143v-109.714285h440.685714v109.714285z m54.857143-54.857143q0 5.412571-1.024 10.678858-1.024 5.339429-3.145143 10.313142-2.048 4.973714-5.046857 9.508572-2.998857 4.461714-6.802286 8.265143-3.803429 3.876571-8.338285 6.875428-4.461714 2.925714-9.508572 5.12-4.973714 1.974857-10.24 3.072-5.339429 1.024-10.752 1.024-5.339429 0-10.678857-1.024-5.266286-1.097143-10.24-3.145143-5.046857-2.048-9.508571-5.12-4.534857-2.925714-8.338286-6.802285-3.803429-3.803429-6.802286-8.265143-2.998857-4.534857-5.12-9.508572-2.048-4.973714-3.072-10.24-1.097143-5.339429-1.097143-10.752t1.097143-10.678857q1.024-5.339429 3.145143-10.24 2.048-5.12 5.046857-9.508571 2.925714-4.534857 6.802286-8.338286 3.803429-3.803429 8.338286-6.802286 4.461714-2.998857 9.508571-5.12 4.973714-2.048 10.24-3.072 5.339429-1.097143 10.678857-1.097142 5.412571 0 10.752 1.097142 5.266286 1.024 10.24 3.072 5.046857 2.121143 9.508572 5.12 4.534857 2.925714 8.338285 6.802286 3.803429 3.803429 6.802286 8.265143 2.998857 4.534857 5.12 9.508571 2.048 4.973714 3.072 10.24 1.024 5.339429 1.024 10.752z m-440.685714 0q0 5.412571-1.024 10.678858-1.097143 5.339429-3.145143 10.313142-2.048 4.973714-5.12 9.508572-2.925714 4.461714-6.729143 8.265143-3.876571 3.876571-8.338286 6.875428-4.534857 2.925714-9.508571 5.12-4.973714 1.974857-10.24 3.072-5.339429 1.024-10.752 1.024t-10.678857-1.024q-5.339429-1.097143-10.24-3.145143-5.12-2.048-9.508572-5.12-4.534857-2.925714-8.338285-6.802285-3.803429-3.803429-6.802286-8.265143-2.998857-4.534857-5.12-9.508572-2.048-4.973714-3.072-10.24-1.097143-5.339429-1.097143-10.752t1.097143-10.678857q1.024-5.339429 3.072-10.24 2.121143-5.12 5.12-9.508571 2.925714-4.534857 6.802286-8.338286 3.803429-3.803429 8.265142-6.802286 4.534857-2.998857 9.508572-5.12 4.973714-2.048 10.24-3.072 5.339429-1.097143 10.752-1.097142t10.678857 1.097142q5.339429 1.024 10.313143 3.072 4.973714 2.121143 9.508571 5.12 4.461714 2.925714 8.338286 6.802286 3.803429 3.803429 6.802286 8.265143 2.925714 4.534857 5.12 9.508571 1.974857 4.973714 3.072 10.24 1.024 5.339429 1.024 10.752z" fill="#FF6C1C" p-id="8141"></path></svg>