<?xml version="1.0" standalone="no"?><!DOCTYPE svg PUBLIC "-//W3C//DTD SVG 1.1//EN" "http://www.w3.org/Graphics/SVG/1.1/DTD/svg11.dtd"><svg t="1645018127433" class="icon" viewBox="0 0 1024 1024" version="1.1" xmlns="http://www.w3.org/2000/svg" p-id="9397" xmlns:xlink="http://www.w3.org/1999/xlink" width="200" height="200"><defs><style type="text/css"></style></defs><path d="M840.740571 967.606857l-205.385142-211.675428 78.701714-76.361143 205.458286 211.602285-78.774858 76.434286z m94.281143-38.253714q0 5.412571-1.097143 10.752-1.024 5.266286-3.145142 10.24-2.048 5.046857-5.046858 9.508571-2.925714 4.534857-6.802285 8.338286-3.803429 3.803429-8.338286 6.802286-4.461714 2.998857-9.508571 5.12-4.973714 2.048-10.24 3.072-5.339429 1.024-10.678858 1.024-5.412571 0-10.752-1.024-5.266286-1.024-10.24-3.145143-5.046857-2.048-9.508571-5.046857-4.534857-2.998857-8.338286-6.802286-3.803429-3.803429-6.802285-8.338286-2.998857-4.461714-5.12-9.508571-2.048-4.973714-3.072-10.24-1.024-5.339429-1.024-10.752 0-5.339429 1.024-10.678857 1.024-5.266286 3.145142-10.24 2.048-5.046857 5.046858-9.508572 2.998857-4.534857 6.802285-8.338285 3.803429-3.803429 8.338286-6.802286 4.461714-2.998857 9.508571-5.12 4.973714-2.048 10.24-3.072 5.339429-1.097143 10.752-1.097143 5.339429 0 10.678858 1.097143 5.266286 1.024 10.24 3.145143 5.046857 2.048 9.508571 5.046857 4.534857 2.925714 8.338286 6.802286 3.803429 3.803429 6.802285 8.338285 2.998857 4.461714 5.12 9.508572 2.048 4.973714 3.072 10.24 1.097143 5.339429 1.097143 10.678857zM729.563429 717.750857q0 5.412571-1.024 10.678857-1.097143 5.339429-3.145143 10.313143-2.048 4.973714-5.12 9.508572-2.925714 4.461714-6.802286 8.265142-3.803429 3.876571-8.265143 6.875429-4.534857 2.925714-9.508571 5.046857-4.973714 2.048-10.24 3.145143-5.339429 1.024-10.752 1.024t-10.678857-1.024q-5.339429-1.097143-10.24-3.145143-5.12-2.048-9.508572-5.12-4.534857-2.925714-8.338286-6.802286-3.803429-3.803429-6.802285-8.265142-3.072-4.534857-5.12-9.508572-2.048-4.973714-3.072-10.24-1.097143-5.339429-1.097143-10.752t1.097143-10.678857q1.024-5.339429 3.072-10.313143 2.048-4.973714 5.12-9.508571 2.925714-4.461714 6.802285-8.265143 3.803429-3.876571 8.265143-6.875429 4.534857-2.925714 9.508572-5.046857 4.973714-2.048 10.24-3.145143 5.339429-1.024 10.752-1.024t10.678857 1.024q5.339429 1.097143 10.313143 3.145143 4.973714 2.048 9.508571 5.12 4.461714 2.925714 8.265143 6.802286 3.876571 3.803429 6.875429 8.265143 2.925714 4.534857 5.046857 9.508571 2.048 4.973714 3.145143 10.24 1.024 5.339429 1.024 10.752z" fill="#FF6C1C" p-id="9398"></path><path d="M861.001143 435.565714a402.285714 402.285714 0 1 1-804.571429 0 402.285714 402.285714 0 0 1 804.571429 0z m-109.714286 0q0-121.197714-85.650286-206.921143Q579.913143 142.994286 458.715429 142.994286q-121.197714 0-206.848 85.650285-85.723429 85.723429-85.723429 206.921143 0 121.124571 85.723429 206.848 85.650286 85.723429 206.848 85.723429 121.197714 0 206.921142-85.723429 85.650286-85.723429 85.650286-206.848z" fill="#414141" p-id="9399"></path></svg>