<?xml version="1.0" standalone="no"?><!DOCTYPE svg PUBLIC "-//W3C//DTD SVG 1.1//EN" "http://www.w3.org/Graphics/SVG/1.1/DTD/svg11.dtd"><svg t="1645017981982" class="icon" viewBox="0 0 1024 1024" version="1.1" xmlns="http://www.w3.org/2000/svg" p-id="7720" xmlns:xlink="http://www.w3.org/1999/xlink" width="200" height="200"><defs><style type="text/css"></style></defs><path d="M987.428571 512a475.428571 475.428571 0 1 1-950.857142 0 475.428571 475.428571 0 0 1 950.857142 0zM877.714286 512q0-151.478857-107.081143-258.633143Q663.405714 146.285714 512 146.285714 360.521143 146.285714 253.366857 253.366857 146.285714 360.594286 146.285714 512q0 151.478857 107.081143 258.633143Q360.594286 877.714286 512 877.714286q151.478857 0 258.633143-107.081143Q877.714286 663.405714 877.714286 512z" fill="#414141" p-id="7721"></path><path d="M426.788571 419.547429c0 48.420571-25.307429 87.625143-56.466285 87.625142-31.158857 0-56.393143-39.204571-56.393143-87.625142 0-48.420571 25.234286-87.625143 56.393143-87.625143 31.158857 0 56.466286 39.204571 56.466285 87.625143zM710.144 419.547429c0 48.420571-25.307429 87.625143-56.466286 87.625142-31.158857 0-56.393143-39.204571-56.393143-87.625142 0-48.420571 25.234286-87.625143 56.393143-87.625143 31.158857 0 56.466286 39.204571 56.466286 87.625143z" fill="#414141" p-id="7722"></path><path d="M725.357714 727.405714q-82.212571 69.705143-194.56 74.313143h-2.048q-123.977143-1.901714-208.603428-74.459428l47.542857-55.588572q64.658286 55.442286 162.157714 56.978286l-0.585143 36.571428-1.462857-36.571428q87.259429-3.584 150.235429-57.051429l47.323428 55.808z m12.946286-27.867428q0 3.584-0.731429 7.094857t-2.048 6.875428q-1.462857 3.291429-3.437714 6.290286-1.974857 2.998857-4.534857 5.558857-2.56 2.56-5.558857 4.534857-2.925714 2.048-6.290286 3.364572-3.364571 1.462857-6.875428 2.121143-3.510857 0.731429-7.094858 0.731428-3.657143 0-7.168-0.731428t-6.875428-2.121143q-3.291429-1.316571-6.290286-3.364572-2.998857-1.974857-5.558857-4.534857-2.56-2.56-4.534857-5.558857-1.974857-2.925714-3.364572-6.290286-1.462857-3.364571-2.121142-6.875428-0.731429-3.510857-0.731429-7.094857 0-3.657143 0.731429-7.168t2.121142-6.875429q1.389714-3.291429 3.364572-6.290286 1.974857-2.998857 4.534857-5.558857 2.56-2.56 5.558857-4.534857 2.925714-2.048 6.290286-3.364571 3.364571-1.462857 6.875428-2.121143 3.510857-0.731429 7.168-0.731429 3.584 0 7.094858 0.731429t6.875428 2.121143q3.291429 1.316571 6.290286 3.364571 2.998857 1.974857 5.558857 4.534857 2.56 2.56 4.534857 5.558857 2.048 2.925714 3.437714 6.290286 1.316571 3.364571 2.048 6.875429 0.731429 3.510857 0.731429 7.168z m-357.814857 0q0 3.584-0.731429 7.094857t-2.048 6.875428q-1.389714 3.291429-3.364571 6.290286-2.048 2.998857-4.608 5.558857-2.486857 2.56-5.485714 4.534857-2.998857 2.048-6.363429 3.364572-3.291429 1.462857-6.875429 2.121143-3.510857 0.731429-7.094857 0.731428-3.657143 0-7.168-0.731428t-6.802285-2.121143q-3.364571-1.316571-6.363429-3.364572-2.925714-1.974857-5.558857-4.534857-2.486857-2.56-4.534857-5.558857-1.974857-2.925714-3.364572-6.290286-1.389714-3.364571-2.048-6.875428-0.731429-3.510857-0.731428-7.094857 0-3.657143 0.731428-7.168t2.048-6.875429q1.389714-3.291429 3.364572-6.290286 2.048-2.998857 4.534857-5.558857 2.56-2.56 5.558857-4.534857 2.998857-2.048 6.363429-3.364571 3.291429-1.462857 6.802285-2.121143 3.584-0.731429 7.168-0.731429 3.657143 0 7.094857 0.731429 3.584 0.731429 6.875429 2.121143 3.364571 1.316571 6.363429 3.364571 2.925714 1.974857 5.485714 4.534857 2.56 2.56 4.608 5.558857 1.974857 2.925714 3.364571 6.290286 1.389714 3.364571 2.048 6.875429 0.731429 3.510857 0.731429 7.168z" fill="#FF6C1C" p-id="7723"></path></svg>