<?xml version="1.0" standalone="no"?><!DOCTYPE svg PUBLIC "-//W3C//DTD SVG 1.1//EN" "http://www.w3.org/Graphics/SVG/1.1/DTD/svg11.dtd"><svg t="1645018027582" class="icon" viewBox="0 0 1024 1024" version="1.1" xmlns="http://www.w3.org/2000/svg" p-id="8564" xmlns:xlink="http://www.w3.org/1999/xlink" width="200" height="200"><defs><style type="text/css"></style></defs><path d="M943.908571 149.942857H645.193143V95.085714l37.449143 40.155429-565.174857 527.36-37.376-40.082286 38.692571-38.912 323.145143 321.536-38.692572 38.912-39.497142-38.034286 540.598857-563.2 39.570285 38.034286h-54.857142V95.158857h54.857142v54.857143z m0-109.714286q5.412571 0 10.752 1.097143 5.266286 1.024 10.24 3.145143 5.046857 2.048 9.508572 5.046857 4.534857 2.998857 8.338286 6.802286 3.803429 3.876571 6.802285 8.338286 2.998857 4.461714 5.12 9.508571 2.048 4.973714 3.072 10.24 1.024 5.339429 1.024 10.752v285.696q0 10.605714-3.949714 20.48-3.949714 9.874286-11.337143 17.554286l-540.672 563.126857-0.731428 0.731429q-3.730286 3.803429-8.265143 6.802285-4.388571 2.998857-9.508572 5.12-4.900571 2.048-10.24 3.145143-5.266286 1.024-10.678857 1.097143-5.412571 0-10.678857-1.097143-5.339429-1.024-10.313143-3.072-4.973714-2.048-9.508571-5.046857-4.461714-2.925714-8.338286-6.802286L41.398857 661.357714l-1.462857-1.462857q-3.657143-3.949714-6.509714-8.484571-2.852571-4.608-4.754286-9.654857-1.901714-5.12-2.779429-10.459429-0.877714-5.266286-0.658285-10.678857 0.219429-5.412571 1.462857-10.678857 1.170286-5.266286 3.437714-10.24 2.194286-4.827429 5.412572-9.216 3.145143-4.388571 7.094857-8.045715L607.817143 55.003429q7.606857-7.168 17.261714-10.971429Q634.88 40.228571 645.193143 40.228571h298.715428z" fill="#414141" p-id="8565"></path><path d="M853.357714 263.899429a73.142857 73.142857 0 1 1-146.285714 0 73.142857 73.142857 0 0 1 146.285714 0z" fill="#FF6C1C" p-id="8566"></path></svg>