<?xml version="1.0" standalone="no"?><!DOCTYPE svg PUBLIC "-//W3C//DTD SVG 1.1//EN" "http://www.w3.org/Graphics/SVG/1.1/DTD/svg11.dtd"><svg t="1645017966206" class="icon" viewBox="0 0 1024 1024" version="1.1" xmlns="http://www.w3.org/2000/svg" p-id="7438" xmlns:xlink="http://www.w3.org/1999/xlink" width="200" height="200"><defs><style type="text/css"></style></defs><path d="M512 755.2A243.2 243.2 0 0 1 755.2 512h6.290286a243.2 243.2 0 0 1 0 486.4h-6.290286A243.2 243.2 0 0 1 512 755.2z m109.714286 0q0 55.296 39.058285 94.354286 39.131429 39.131429 94.354286 39.131428h6.363429q55.296 0 94.354285-39.131428 39.131429-39.058286 39.131429-94.354286t-39.131429-94.354286q-39.058286-39.131429-94.354285-39.131428h-6.290286q-55.296 0-94.354286 39.131428-39.131429 39.058286-39.131428 94.354286z" fill="#F6691B" p-id="7439"></path><path d="M985.234286 436.589714l-57.929143 57.197715q-3.364571 3.291429-7.168 5.997714-3.876571 2.633143-8.045714 4.681143-4.242286 1.974857-8.777143 3.218285-4.534857 1.243429-9.142857 1.682286-4.681143 0.438857-9.362286 0.146286-4.681143-0.365714-9.216-1.462857-4.534857-1.170286-8.777143-2.998857-4.315429-1.901714-8.192-4.388572l-87.04-57.270857 60.416-91.648 86.893714 57.197714-30.134857 45.860572-38.546286-39.058286 57.929143-57.197714 77.092572 78.043428z m-151.405715 18.212572q0-104.155429-53.979428-152.137143-56.832-50.468571-180.882286-50.468572v-109.714285q165.741714 0 253.805714 78.189714Q943.542857 301.348571 943.542857 454.729143h-109.714286z m167.716572-57.270857q0 5.412571-1.024 10.752-1.097143 5.266286-3.145143 10.24-2.048 5.046857-5.12 9.508571-2.925714 4.461714-6.729143 8.338286-3.876571 3.803429-8.338286 6.802285-4.461714 2.998857-9.508571 5.12-4.973714 1.974857-10.24 3.072-5.339429 1.024-10.752 1.024t-10.678857-1.024q-5.266286-1.097143-10.24-3.145142-5.046857-2.048-9.508572-5.12-4.534857-2.925714-8.338285-6.729143-3.803429-3.876571-6.802286-8.338286-2.998857-4.461714-5.12-9.508571-2.048-4.973714-3.072-10.24-1.097143-5.339429-1.097143-10.752t1.097143-10.678858q1.024-5.266286 3.072-10.24 2.121143-5.046857 5.12-9.508571 2.925714-4.534857 6.802286-8.338286 3.803429-3.803429 8.338285-6.802285 4.461714-2.998857 9.508572-5.12 4.973714-2.048 10.24-3.072 5.266286-1.097143 10.678857-1.097143t10.752 1.097143q5.266286 1.024 10.24 3.072 5.046857 2.121143 9.508571 5.12 4.461714 2.925714 8.338286 6.802285 3.803429 3.803429 6.802286 8.338286 2.925714 4.461714 5.12 9.508571 1.974857 4.973714 3.072 10.24 1.024 5.266286 1.024 10.678858z m-144.822857 0q0 5.412571-1.097143 10.752-1.097143 5.266286-3.145143 10.24-2.048 5.046857-5.12 9.508571-2.925714 4.461714-6.729143 8.338286-3.876571 3.803429-8.338286 6.802285-4.534857 2.998857-9.508571 5.12-4.973714 1.974857-10.24 3.072-5.339429 1.024-10.752 1.024t-10.678857-1.024q-5.339429-1.097143-10.24-3.145142-5.046857-2.048-9.508572-5.12-4.534857-2.925714-8.338285-6.729143-3.803429-3.876571-6.802286-8.338286-2.998857-4.461714-5.12-9.508571-2.048-4.973714-3.072-10.24-1.097143-5.339429-1.097143-10.752t1.097143-10.678858q1.024-5.266286 3.072-10.24 2.121143-5.046857 5.12-9.508571 2.925714-4.534857 6.802286-8.338286 3.803429-3.803429 8.338285-6.802285 4.461714-2.998857 9.508572-5.12 4.900571-2.048 10.24-3.072 5.266286-1.097143 10.678857-1.097143t10.752 1.097143q5.266286 1.024 10.24 3.072 4.973714 2.121143 9.508571 5.12 4.461714 2.925714 8.338286 6.802285 3.803429 3.803429 6.802286 8.338286 2.925714 4.461714 5.12 9.508571 1.974857 4.973714 3.072 10.24 1.024 5.266286 1.024 10.678858zM653.750857 197.266286q0 5.412571-1.097143 10.752-1.024 5.266286-3.072 10.24-2.121143 4.973714-5.12 9.508571-2.925714 4.461714-6.802285 8.338286-3.803429 3.803429-8.338286 6.802286-4.461714 2.925714-9.508572 5.12-4.973714 1.974857-10.24 3.072-5.266286 1.024-10.678857 1.024t-10.752-1.024q-5.266286-1.097143-10.24-3.145143-5.046857-2.048-9.508571-5.12-4.461714-2.925714-8.338286-6.729143-3.803429-3.876571-6.802286-8.338286-2.925714-4.534857-5.12-9.508571-1.974857-4.973714-3.072-10.24-1.024-5.339429-1.024-10.752t1.024-10.678857q1.097143-5.339429 3.145143-10.24 2.048-5.12 5.12-9.508572 2.925714-4.534857 6.729143-8.338286 3.876571-3.803429 8.338286-6.802285 4.461714-2.998857 9.508571-5.12 4.973714-2.048 10.24-3.072 5.339429-1.097143 10.752-1.097143t10.678857 1.097143q5.266286 1.024 10.24 3.072 5.046857 2.121143 9.508572 5.12 4.534857 2.925714 8.338286 6.802285 3.803429 3.803429 6.802285 8.338286 2.998857 4.388571 5.12 9.508572 2.048 4.900571 3.072 10.24 1.097143 5.266286 1.097143 10.678857zM87.917714 594.212571l65.097143-49.225142q3.730286-2.852571 7.899429-4.973715 4.169143-2.194286 8.630857-3.584 4.461714-1.462857 9.142857-2.048 4.608-0.658286 9.289143-0.512 4.681143 0.146286 9.289143 1.097143 4.534857 0.950857 8.923428 2.633143t8.338286 4.096q4.022857 2.486857 7.533714 5.485714l78.555429 68.022857-72.045714 83.017143-78.555429-68.022857 36.059429-41.545143 32.987428 43.739429-65.097143 49.152-66.048-87.332572z m152.502857 1.609143q-13.897143 103.204571 33.28 157.842286 49.664 57.490286 172.617143 73.581714l-14.628571 108.763429q-164.352-21.577143-241.152-110.592Q111.177143 733.622857 131.657143 581.558857l108.763428 14.262857zM66.56 630.710857q0.731429-5.339429 2.486857-10.459428 1.755429-5.12 4.461714-9.801143t6.290286-8.777143q3.657143-4.022857 7.899429-7.314286 4.315429-3.291429 9.142857-5.632 4.827429-2.413714 10.093714-3.803428 5.193143-1.462857 10.605714-1.755429 5.412571-0.365714 10.752 0.365714t10.459429 2.413715q5.12 1.755429 9.801143 4.388571 4.681143 2.706286 8.777143 6.290286 4.022857 3.584 7.314285 7.826285 3.218286 4.315429 5.632 9.142858 2.340571 4.827429 3.730286 10.093714 1.462857 5.193143 1.755429 10.605714 0.292571 5.339429-0.365715 10.752-0.731429 5.339429-2.486857 10.459429-1.755429 5.12-4.461714 9.801143t-6.290286 8.704q-3.657143 4.096-7.899428 7.314285-4.315429 3.364571-9.142857 5.705143-4.827429 2.413714-10.093715 3.803429-5.193143 1.462857-10.605714 1.755428-5.412571 0.365714-10.752-0.365714t-10.459429-2.413714q-5.12-1.755429-9.801142-4.388572-4.681143-2.779429-8.777143-6.290285-4.022857-3.584-7.314286-7.826286-3.218286-4.315429-5.632-9.142857-2.340571-4.827429-3.730286-10.093715-1.462857-5.193143-1.755428-10.605714Q65.828571 636.123429 66.56 630.710857z m143.652571 18.870857q0.731429-5.339429 2.486858-10.459428 1.755429-5.12 4.388571-9.801143 2.779429-4.681143 6.363429-8.777143 3.584-4.022857 7.899428-7.314286 4.242286-3.291429 9.142857-5.705143 4.827429-2.340571 10.093715-3.730285 5.12-1.462857 10.605714-1.755429 5.339429-0.365714 10.752 0.292572 5.339429 0.731429 10.459428 2.486857 5.12 1.682286 9.801143 4.388571t8.704 6.290286q4.022857 3.510857 7.314286 7.826286 3.291429 4.315429 5.705143 9.142857 2.340571 4.827429 3.730286 10.020571 1.389714 5.266286 1.755428 10.605714 0.292571 5.412571-0.438857 10.752t-2.413714 10.459429q-1.755429 5.12-4.534857 9.801143-2.706286 4.681143-6.290286 8.777143-3.510857 4.022857-7.826286 7.314285-4.315429 3.291429-9.142857 5.705143-4.900571 2.340571-10.093714 3.803429-5.266286 1.389714-10.605715 1.755428-5.412571 0.292571-10.752-0.365714-5.412571-0.731429-10.459428-2.413714-5.12-1.755429-9.801143-4.461714t-8.777143-6.290286q-4.022857-3.510857-7.314286-7.826286-3.291429-4.242286-5.632-9.142857-2.413714-4.827429-3.803428-10.020571-1.389714-5.193143-1.682286-10.605715-0.365714-5.412571 0.365714-10.752z m174.372572 224.914286q0.731429-5.339429 2.486857-10.459429 1.755429-5.12 4.461714-9.801142t6.290286-8.777143q3.584-4.022857 7.899429-7.314286 4.242286-3.291429 9.142857-5.705143 4.827429-2.340571 10.093714-3.730286 5.193143-1.462857 10.605714-1.755428 5.339429-0.365714 10.752 0.292571 5.339429 0.731429 10.459429 2.486857 5.12 1.682286 9.801143 4.388572t8.704 6.290286q4.022857 3.510857 7.314285 7.826285 3.291429 4.315429 5.705143 9.142857 2.340571 4.827429 3.730286 10.020572 1.389714 5.266286 1.755429 10.605714 0.292571 5.412571-0.438858 10.752t-2.413714 10.459429q-1.755429 5.12-4.534857 9.801143-2.706286 4.681143-6.290286 8.777142-3.510857 4.022857-7.826285 7.314286-4.315429 3.291429-9.142858 5.705143-4.900571 2.340571-10.093714 3.803429-5.266286 1.389714-10.605714 1.755428-5.412571 0.292571-10.752-0.365714-5.412571-0.731429-10.459429-2.413714-5.12-1.755429-9.801143-4.461715t-8.777142-6.290285q-4.022857-3.510857-7.314286-7.826286-3.291429-4.242286-5.632-9.142857-2.413714-4.827429-3.803429-10.020572-1.389714-5.193143-1.682285-10.605714-0.365714-5.412571 0.365714-10.752zM39.424 98.523429v350.208q0 5.412571 1.024 10.678857 1.097143 5.266286 3.145143 10.24 2.048 5.046857 5.12 9.508571 2.925714 4.534857 6.729143 8.338286 3.876571 3.803429 8.338285 6.802286 4.461714 2.998857 9.508572 5.12 4.973714 2.048 10.24 3.072 5.339429 1.097143 10.752 1.097142H452.754286q5.412571 0 10.678857-1.097142 5.339429-1.024 10.313143-3.072 4.973714-2.121143 9.508571-5.12 4.461714-2.925714 8.265143-6.802286 3.876571-3.803429 6.875429-8.338286 2.925714-4.461714 5.046857-9.508571 2.048-4.973714 3.145143-10.24 1.024-5.266286 1.024-10.678857V98.523429q0-5.412571-1.024-10.678858-1.097143-5.339429-3.145143-10.313142-2.048-4.973714-5.12-9.508572-2.925714-4.461714-6.802286-8.265143Q487.862857 55.881143 483.328 52.882286q-4.534857-2.925714-9.508571-5.046857-4.973714-2.048-10.24-3.145143Q458.166857 43.666286 452.754286 43.666286H94.281143q-5.412571 0-10.752 1.024-5.266286 1.097143-10.24 3.145143-5.046857 2.048-9.508572 5.12-4.461714 2.925714-8.338285 6.802285Q51.638857 63.561143 48.64 68.022857q-2.925714 4.534857-5.12 9.508572-1.974857 4.973714-3.072 10.24-1.024 5.339429-1.024 10.752z m109.714286 54.857142H397.897143v240.493715H149.138286V153.380571z" fill="#414141" p-id="7440"></path></svg>