<?xml version="1.0" standalone="no"?><!DOCTYPE svg PUBLIC "-//W3C//DTD SVG 1.1//EN" "http://www.w3.org/Graphics/SVG/1.1/DTD/svg11.dtd"><svg t="1645017809754" class="icon" viewBox="0 0 1024 1024" version="1.1" xmlns="http://www.w3.org/2000/svg" p-id="4204" xmlns:xlink="http://www.w3.org/1999/xlink" width="200" height="200"><defs><style type="text/css"></style></defs><path d="M43.154286 528.676571a146.285714 146.285714 0 0 1 146.285714-146.285714h654.189714a146.285714 146.285714 0 0 1 146.285715 146.285714v306.395429a146.285714 146.285714 0 0 1-146.285715 146.285714H189.44a146.285714 146.285714 0 0 1-146.285714-146.285714v-306.468571z m109.714285 0v306.395429q0 15.140571 10.752 25.819429 10.678857 10.752 25.819429 10.752h654.189714q15.140571 0 25.819429-10.752 10.752-10.678857 10.752-25.819429v-306.468571q0-15.067429-10.752-25.819429-10.678857-10.678857-25.819429-10.678857H189.44q-15.140571 0-25.819429 10.678857-10.752 10.752-10.752 25.892571z" fill="#414141" p-id="4205"></path><path d="M708.973714 238.884571V82.066286h54.857143v54.857143H269.238857v-54.857143h54.857143v342.016h-109.714286V82.066286q0-5.412571 1.097143-10.752 1.024-5.266286 3.072-10.24 2.121143-5.046857 5.12-9.508572 2.925714-4.534857 6.802286-8.338285 3.803429-3.803429 8.265143-6.802286 4.534857-2.998857 9.508571-5.12 4.973714-2.048 10.24-3.072 5.339429-1.024 10.752-1.024h494.592q5.412571 0 10.752 1.024 5.266286 1.024 10.24 3.145143 4.973714 2.048 9.508572 5.046857 4.461714 2.998857 8.338285 6.802286 3.803429 3.803429 6.802286 8.338285 2.925714 4.461714 5.12 9.508572 1.974857 4.973714 3.072 10.24 1.024 5.339429 1.024 10.752v156.818285h-109.714286z m109.714286 0q0 5.412571-1.024 10.752-1.097143 5.266286-3.145143 10.24-2.048 5.046857-5.12 9.508572-2.925714 4.461714-6.729143 8.338286-3.876571 3.803429-8.338285 6.802285-4.534857 2.998857-9.508572 5.12-4.973714 2.048-10.24 3.072-5.339429 1.024-10.752 1.024t-10.678857-1.024q-5.339429-1.024-10.24-3.145143-5.046857-2.048-9.508571-5.12-4.534857-2.925714-8.338286-6.729142-3.803429-3.876571-6.802286-8.338286-2.998857-4.461714-5.12-9.508572-2.048-4.973714-3.072-10.24-1.097143-5.339429-1.097143-10.752t1.097143-10.678857q1.024-5.266286 3.072-10.24 2.121143-5.046857 5.12-9.508571 2.925714-4.534857 6.802286-8.338286 3.803429-3.803429 8.338286-6.802286 4.461714-2.998857 9.508571-5.12 4.900571-2.048 10.24-3.072 5.266286-1.097143 10.678857-1.097142t10.752 1.097142q5.266286 1.024 10.24 3.072 4.973714 2.121143 9.508572 5.12 4.461714 2.925714 8.338285 6.802286 3.803429 3.803429 6.802286 8.338286 2.925714 4.461714 5.12 9.508571 1.974857 4.973714 3.072 10.24 1.024 5.266286 1.024 10.678857zM324.096 424.082286q0 5.412571-1.024 10.752-1.097143 5.266286-3.145143 10.24-2.048 5.046857-5.12 9.508571-2.925714 4.461714-6.802286 8.338286-3.803429 3.803429-8.265142 6.802286-4.534857 2.998857-9.508572 5.12-4.973714 1.974857-10.24 3.072-5.339429 1.024-10.752 1.024t-10.678857-1.024q-5.339429-1.097143-10.24-3.145143-5.12-2.048-9.508571-5.12-4.534857-2.925714-8.338286-6.729143-3.803429-3.876571-6.802286-8.338286-2.998857-4.461714-5.12-9.508571-2.048-4.973714-3.072-10.24-1.097143-5.339429-1.097143-10.752t1.097143-10.678857q1.024-5.266286 3.072-10.24 2.121143-5.046857 5.12-9.508572 2.925714-4.534857 6.802286-8.338286 3.803429-3.803429 8.265143-6.802285 4.534857-2.998857 9.508571-5.12 4.973714-2.048 10.24-3.072 5.339429-1.097143 10.752-1.097143t10.678857 1.097143q5.339429 1.024 10.313143 3.072 4.973714 2.121143 9.508572 5.12 4.461714 2.925714 8.265142 6.802285 3.876571 3.803429 6.875429 8.338286 2.925714 4.461714 5.12 9.508572 1.974857 4.973714 3.072 10.24 1.024 5.266286 1.024 10.678857z" fill="#414141" p-id="4206"></path><path d="M585.142857 681.837714a73.142857 73.142857 0 1 1-146.285714 0 73.142857 73.142857 0 0 1 146.285714 0z" fill="#FF6C1C" p-id="4207"></path></svg>