<?xml version="1.0" standalone="no"?><!DOCTYPE svg PUBLIC "-//W3C//DTD SVG 1.1//EN" "http://www.w3.org/Graphics/SVG/1.1/DTD/svg11.dtd"><svg t="1645017327291" class="icon" viewBox="0 0 1024 1024" version="1.1" xmlns="http://www.w3.org/2000/svg" p-id="3086" xmlns:xlink="http://www.w3.org/1999/xlink" width="200" height="200"><defs><style type="text/css"></style></defs><path d="M509.952 801.060571q-164.498286 0-316.708571-80.603428Q27.794286 632.905143 27.794286 528.457143q0-53.76 45.348571-111.908572Q112.64 365.714286 177.810286 322.706286q151.113143-99.766857 332.068571-99.766857 177.298286 0 334.774857 107.52 64.073143 43.666286 104.667429 93.257142 46.811429 57.051429 46.811428 104.740572 0 92.233143-166.619428 184.32-159.963429 88.283429-319.634286 88.283428z m0-109.714285q131.437714 0 266.605714-74.678857 55.369143-30.573714 87.990857-62.610286 13.458286-13.165714 19.602286-23.478857 1.901714-3.145143 2.56-5.12-0.292571 0.804571-0.292571 2.925714 0-8.411429-21.869715-35.108571-30.646857-37.376-81.627428-72.192-129.536-88.429714-272.969143-88.429715-148.041143 0-271.652571 81.627429-50.102857 33.060571-78.628572 69.705143-22.162286 28.379429-22.162286 44.470857 0 11.776 22.308572 34.816 30.354286 31.451429 84.772571 60.196571 128.146286 67.876571 265.362286 67.876572z" fill="#414141" p-id="3087"></path><path d="M383.049143 512a128.950857 128.950857 0 1 0 257.901714 0 128.950857 128.950857 0 1 0-257.901714 0Z" fill="#414141" p-id="3088"></path><path d="M688.566857 824.32L262.582857 212.406857l89.965714-62.683428 426.057143 612.059428-90.038857 62.683429z m99.913143-31.305143q0 5.412571-1.097143 10.678857-1.024 5.339429-3.145143 10.313143-2.048 4.973714-5.046857 9.508572-2.925714 4.461714-6.802286 8.265142-3.803429 3.876571-8.338285 6.875429-4.461714 2.925714-9.508572 5.046857-4.973714 2.048-10.24 3.145143-5.339429 1.024-10.678857 1.024-5.412571 0-10.752-1.024-5.266286-1.097143-10.24-3.145143-5.046857-2.048-9.508571-5.12-4.534857-2.925714-8.338286-6.802286-3.803429-3.803429-6.802286-8.265142-2.998857-4.534857-5.12-9.508572-2.048-4.973714-3.072-10.24-1.024-5.339429-1.024-10.752t1.024-10.678857q1.024-5.339429 3.145143-10.24 2.048-5.12 5.046857-9.508571 2.998857-4.534857 6.802286-8.338286 3.803429-3.803429 8.338286-6.875429 4.461714-2.925714 9.508571-5.046857 4.973714-2.048 10.24-3.145143 5.339429-1.024 10.752-1.024 5.339429 0 10.678857 1.024 5.266286 1.097143 10.24 3.145143 5.046857 2.048 9.508572 5.12 4.534857 2.925714 8.338285 6.802286 3.803429 3.803429 6.802286 8.265143 2.998857 4.534857 5.12 9.508571 2.048 4.973714 3.072 10.24 1.097143 5.339429 1.097143 10.752zM362.422857 181.028571q0 5.339429-1.024 10.678858-1.097143 5.266286-3.145143 10.24-2.048 5.046857-5.12 9.508571-2.925714 4.534857-6.802285 8.338286-3.803429 3.803429-8.265143 6.802285-4.534857 2.998857-9.508572 5.12-4.973714 2.048-10.24 3.072-5.339429 1.097143-10.752 1.097143T296.96 234.788571q-5.339429-1.024-10.24-3.145142-5.12-2.048-9.508571-5.046858-4.534857-2.925714-8.338286-6.802285-3.803429-3.803429-6.875429-8.338286-2.925714-4.461714-5.046857-9.508571-2.048-4.973714-3.145143-10.24-1.024-5.339429-1.024-10.678858 0-5.412571 1.024-10.752 1.097143-5.266286 3.145143-10.24 2.048-5.046857 5.12-9.508571 2.925714-4.534857 6.802286-8.338286 3.803429-3.803429 8.265143-6.802285 4.534857-2.998857 9.508571-5.12 4.973714-2.048 10.24-3.072 5.339429-1.024 10.752-1.024t10.678857 1.024q5.339429 1.024 10.313143 3.145142 4.973714 2.048 9.508572 5.046858 4.461714 2.998857 8.265142 6.802285 3.876571 3.803429 6.875429 8.338286 2.925714 4.461714 5.046857 9.508571 2.048 4.973714 3.145143 10.24 1.024 5.339429 1.024 10.752z" fill="#FF6C1C" p-id="3089"></path></svg>