<?xml version="1.0" standalone="no"?><!DOCTYPE svg PUBLIC "-//W3C//DTD SVG 1.1//EN" "http://www.w3.org/Graphics/SVG/1.1/DTD/svg11.dtd"><svg t="1645018015685" class="icon" viewBox="0 0 1024 1024" version="1.1" xmlns="http://www.w3.org/2000/svg" p-id="8423" xmlns:xlink="http://www.w3.org/1999/xlink" width="200" height="200"><defs><style type="text/css"></style></defs><path d="M1024 512c0 282.766222-229.233778 512-512 512S0 794.766222 0 512 229.233778 0 512 0s512 229.233778 512 512z m-85.333333 0q0-81.379556-29.952-157.041778-32.540444-82.176-95.004445-144.668444-62.492444-62.464-144.668444-95.004445Q593.379556 85.333333 512 85.333333q-81.379556 0-157.041778 29.952-82.176 32.540444-144.668444 95.004445-62.464 62.492444-95.004445 144.668444Q85.333333 430.620444 85.333333 512q0 81.379556 29.952 157.041778 32.540444 82.176 95.004445 144.668444 62.492444 62.464 144.668444 95.004445Q430.620444 938.666667 512 938.666667q81.379556 0 157.041778-29.952 82.176-32.540444 144.668444-95.004445 62.464-62.492444 95.004445-144.668444Q938.666667 593.379556 938.666667 512z" fill="#414141" p-id="8424"></path><path d="M468.593778 598.272V300.515556h85.333333v297.756444h-85.333333z m85.333333 0q0 2.076444-0.199111 4.181333-0.199111 2.076444-0.625778 4.124445-0.398222 2.076444-0.995555 4.067555-0.625778 1.991111-1.422223 3.953778-0.796444 1.934222-1.792 3.783111t-2.161777 3.584q-1.137778 1.735111-2.474667 3.356445-1.336889 1.621333-2.844444 3.128889-1.450667 1.479111-3.072 2.787555-1.621333 1.336889-3.384889 2.503111-1.706667 1.137778-3.584 2.161778-1.848889 0.967111-3.783111 1.792-1.934222 0.796444-3.925334 1.422222-2.019556 0.568889-4.067555 0.995556-2.076444 0.398222-4.152889 0.625778-2.076444 0.199111-4.181334 0.199111t-4.181333-0.199111q-2.076444-0.227556-4.152889-0.625778-2.048-0.398222-4.039111-1.024-1.991111-0.597333-3.953778-1.422222-1.934222-0.796444-3.783111-1.763556-1.848889-0.995556-3.584-2.161778-1.763556-1.166222-3.356444-2.503111-1.621333-1.308444-3.128889-2.816-1.479111-1.479111-2.787556-3.100444-1.336889-1.621333-2.503111-3.356445-1.166222-1.735111-2.161778-3.584-0.967111-1.848889-1.792-3.783111-0.796444-1.934222-1.422222-3.953778-0.568889-1.991111-0.995555-4.067555-0.398222-2.048-0.625778-4.124445-0.199111-2.104889-0.199111-4.181333 0-2.104889 0.199111-4.181333 0.227556-2.104889 0.625778-4.152889 0.398222-2.048 1.024-4.067556 0.597333-1.991111 1.422222-3.925333 0.796444-1.934222 1.763555-3.783111 0.995556-1.848889 2.161778-3.612445 1.137778-1.706667 2.503111-3.356444 1.308444-1.621333 2.787556-3.100445 1.507556-1.479111 3.128889-2.816 1.592889-1.336889 3.356444-2.474666 1.735111-1.166222 3.584-2.161778 1.848889-0.995556 3.783111-1.792 1.934222-0.796444 3.953778-1.422222 1.991111-0.597333 4.039111-0.995556 2.076444-0.426667 4.152889-0.625778 2.076444-0.199111 4.181333-0.199111t4.181334 0.199111q2.076444 0.199111 4.152889 0.625778 2.048 0.398222 4.067555 0.995556 1.991111 0.625778 3.925334 1.422222 1.934222 0.796444 3.783111 1.792t3.584 2.161778q1.763556 1.137778 3.384889 2.474666 1.621333 1.336889 3.100444 2.844445 1.479111 1.450667 2.816 3.072 1.308444 1.621333 2.474667 3.356444 1.166222 1.763556 2.161777 3.612445 0.995556 1.848889 1.792 3.783111 0.796444 1.934222 1.422223 3.925333 0.568889 1.991111 0.995555 4.067556 0.426667 2.048 0.625778 4.152889 0.199111 2.076444 0.199111 4.181333z m0-297.756444q0 2.076444-0.199111 4.181333-0.199111 2.076444-0.625778 4.124444-0.398222 2.076444-0.995555 4.067556-0.625778 1.991111-1.422223 3.953778-0.796444 1.934222-1.792 3.783111t-2.161777 3.584q-1.137778 1.735111-2.474667 3.356444-1.336889 1.621333-2.844444 3.128889-1.450667 1.479111-3.072 2.787556-1.621333 1.336889-3.384889 2.503111-1.706667 1.137778-3.584 2.161778-1.848889 0.967111-3.783111 1.792-1.934222 0.796444-3.925334 1.422222-2.019556 0.568889-4.067555 0.995555-2.076444 0.398222-4.152889 0.625778-2.076444 0.199111-4.181334 0.199111t-4.181333-0.199111q-2.076444-0.227556-4.152889-0.625778-2.048-0.398222-4.039111-1.024-1.991111-0.597333-3.953778-1.422222-1.934222-0.796444-3.783111-1.763555-1.848889-0.995556-3.584-2.161778-1.763556-1.137778-3.356444-2.503111-1.621333-1.308444-3.128889-2.816-1.479111-1.479111-2.787556-3.100445-1.336889-1.621333-2.503111-3.356444-1.166222-1.735111-2.161778-3.584-0.967111-1.848889-1.792-3.783111-0.796444-1.934222-1.422222-3.953778-0.568889-1.991111-0.995555-4.067556-0.398222-2.048-0.625778-4.124444-0.199111-2.104889-0.199111-4.181333 0-2.104889 0.199111-4.181334 0.227556-2.104889 0.625778-4.152889 0.398222-2.048 1.024-4.067555 0.597333-1.991111 1.422222-3.925334 0.796444-1.934222 1.763555-3.783111 0.995556-1.848889 2.161778-3.612444 1.137778-1.706667 2.503111-3.356445 1.308444-1.621333 2.787556-3.100444 1.507556-1.479111 3.128889-2.816 1.592889-1.308444 3.356444-2.474667 1.735111-1.166222 3.584-2.161777 1.848889-0.995556 3.783111-1.792 1.934222-0.796444 3.953778-1.422223 1.991111-0.597333 4.039111-0.995555 2.076444-0.426667 4.152889-0.625778 2.076444-0.199111 4.181333-0.199111t4.181334 0.199111q2.076444 0.199111 4.152889 0.625778 2.048 0.398222 4.067555 0.995555 1.991111 0.625778 3.925334 1.422223 1.934222 0.796444 3.783111 1.792t3.584 2.161777q1.763556 1.137778 3.384889 2.474667 1.621333 1.336889 3.100444 2.844444 1.479111 1.450667 2.816 3.072 1.308444 1.621333 2.474667 3.356445 1.166222 1.763556 2.161777 3.612444 0.995556 1.848889 1.792 3.783111 0.796444 1.934222 1.422223 3.925334 0.568889 1.991111 0.995555 4.067555 0.426667 2.048 0.625778 4.152889 0.199111 2.076444 0.199111 4.181334z" fill="#414141" p-id="8425"></path><path d="M553.927111 714.524444a42.666667 42.666667 0 1 1-85.333333 0 42.666667 42.666667 0 0 1 85.333333 0z" fill="#FF6C1C" p-id="8426"></path></svg>