<?xml version="1.0" standalone="no"?><!DOCTYPE svg PUBLIC "-//W3C//DTD SVG 1.1//EN" "http://www.w3.org/Graphics/SVG/1.1/DTD/svg11.dtd"><svg t="1645017943599" class="icon" viewBox="0 0 1024 1024" version="1.1" xmlns="http://www.w3.org/2000/svg" p-id="7013" xmlns:xlink="http://www.w3.org/1999/xlink" width="200" height="200"><defs><style type="text/css"></style></defs><path d="M457.142857 778.825143V369.737143h109.714286v409.088h-109.714286z m109.714286 0q0 5.412571-1.097143 10.678857-1.024 5.339429-3.072 10.313143-2.048 4.973714-5.12 9.508571-2.925714 4.461714-6.802286 8.265143-3.803429 3.876571-8.265143 6.875429-4.534857 2.925714-9.508571 5.046857-4.973714 2.048-10.24 3.145143-5.339429 1.024-10.752 1.024t-10.678857-1.024q-5.339429-1.097143-10.313143-3.145143-4.973714-2.048-9.508571-5.12-4.461714-2.925714-8.265143-6.802286-3.876571-3.803429-6.875429-8.265143-2.925714-4.534857-5.046857-9.508571-2.048-4.973714-3.145143-10.24-1.024-5.339429-1.024-10.752t1.024-10.678857q1.097143-5.339429 3.145143-10.313143 2.048-4.973714 5.12-9.508572 2.925714-4.461714 6.802286-8.265142 3.803429-3.876571 8.265143-6.875429 4.534857-2.925714 9.508571-5.046857 4.973714-2.048 10.24-3.145143 5.339429-1.024 10.752-1.024t10.678857 1.024q5.339429 1.097143 10.24 3.145143 5.12 2.048 9.508572 5.12 4.534857 2.925714 8.338285 6.802286 3.803429 3.803429 6.802286 8.265142 3.072 4.534857 5.12 9.508572 2.048 4.973714 3.072 10.24 1.097143 5.339429 1.097143 10.752z m0-409.088q0 5.412571-1.097143 10.678857-1.024 5.339429-3.072 10.313143-2.048 4.973714-5.12 9.508571-2.925714 4.461714-6.802286 8.338286-3.803429 3.803429-8.265143 6.802286-4.534857 2.925714-9.508571 5.12-4.973714 1.974857-10.24 3.072-5.339429 1.024-10.752 1.024t-10.678857-1.024q-5.339429-1.097143-10.313143-3.145143-4.973714-2.048-9.508571-5.12-4.461714-2.925714-8.265143-6.729143-3.876571-3.876571-6.875429-8.338286-2.925714-4.534857-5.046857-9.508571-2.048-4.973714-3.145143-10.24-1.024-5.339429-1.024-10.752t1.024-10.678857q1.097143-5.339429 3.145143-10.24 2.048-5.12 5.12-9.508572 2.925714-4.534857 6.802286-8.338285 3.803429-3.803429 8.265143-6.802286 4.534857-2.998857 9.508571-5.12 4.973714-2.048 10.24-3.072 5.339429-1.097143 10.752-1.097143t10.678857 1.097143q5.339429 1.024 10.24 3.072 5.12 2.121143 9.508572 5.12 4.534857 2.925714 8.338285 6.802286 3.803429 3.803429 6.802286 8.265142 3.072 4.534857 5.12 9.508572 2.048 4.973714 3.072 10.24 1.097143 5.339429 1.097143 10.752z" fill="#FF6C1C" p-id="7014"></path><path d="M543.670857 181.540571q-5.632-69.485714-31.085714-69.485714-24.137143 0-28.086857 68.242286l-109.494857-6.290286q4.315429-75.337143 33.792-117.979428 37.010286-53.686857 103.862857-53.686858 66.194286 0 104.009143 52.955429 30.281143 42.349714 36.352 117.394286l-109.348572 8.850285z m90.697143 601.6V374.564571h109.714286v408.576h-109.714286z m-343.990857 0V374.564571h109.714286v408.576h-109.714286z m588.946286-605.988571v789.650286q0 5.412571-1.024 10.678857-1.097143 5.266286-3.145143 10.24-2.048 5.046857-5.12 9.508571-2.925714 4.534857-6.802286 8.338286-3.803429 3.803429-8.265143 6.802286-4.534857 2.998857-9.508571 5.12-4.973714 2.048-10.24 3.072-5.339429 1.097143-10.752 1.097143H207.725714q-5.412571 0-10.678857-1.097143-5.339429-1.024-10.24-3.072-5.046857-2.121143-9.508571-5.12-4.534857-2.925714-8.338286-6.802286-3.803429-3.803429-6.802286-8.338286-2.998857-4.461714-5.12-9.508571-2.048-4.973714-3.072-10.24-1.097143-5.266286-1.097143-10.678857V177.152h109.714286v789.650286h-54.857143v-54.857143h616.740572v54.857143h-54.857143V177.152h109.714286z m60.269714 54.857143H84.406857v-109.714286h855.186286v109.714286z m-195.510857 551.131428q0 5.412571-1.097143 10.678858-1.024 5.339429-3.072 10.313142-2.121143 4.973714-5.12 9.508572-2.925714 4.461714-6.802286 8.265143-3.803429 3.876571-8.338286 6.875428-4.461714 2.925714-9.508571 5.046857-4.900571 2.048-10.24 3.145143-5.266286 1.024-10.678857 1.024t-10.752-1.024q-5.266286-1.097143-10.24-3.145143-5.046857-2.048-9.508572-5.12-4.461714-2.925714-8.338285-6.802285-3.803429-3.803429-6.802286-8.265143-2.925714-4.534857-5.12-9.508572-1.974857-4.973714-3.072-10.24-1.024-5.339429-1.024-10.752t1.024-10.678857q1.097143-5.339429 3.145143-10.313143 2.048-4.973714 5.12-9.508571 2.925714-4.461714 6.729143-8.265143 3.876571-3.876571 8.338285-6.875428 4.461714-2.925714 9.508572-5.046858 4.973714-2.048 10.24-3.145142 5.339429-1.024 10.752-1.024t10.678857 1.024q5.339429 1.097143 10.24 3.145142 5.046857 2.048 9.508571 5.12 4.534857 2.925714 8.338286 6.802286 3.803429 3.803429 6.802286 8.265143 2.998857 4.534857 5.12 9.508571 2.048 4.973714 3.072 10.24 1.097143 5.339429 1.097143 10.752z m0-408.576q0 5.412571-1.097143 10.678858-1.024 5.339429-3.072 10.24-2.121143 5.12-5.12 9.508571-2.925714 4.534857-6.802286 8.338286-3.803429 3.803429-8.338286 6.802285-4.461714 2.998857-9.508571 5.12-4.900571 2.048-10.24 3.072-5.266286 1.097143-10.678857 1.097143t-10.752-1.097143q-5.266286-1.024-10.24-3.072-5.046857-2.121143-9.508572-5.12-4.461714-2.925714-8.338285-6.802285Q646.582857 409.6 643.657143 404.992q-2.925714-4.388571-5.12-9.508571-1.974857-4.900571-3.072-10.24-1.024-5.266286-1.024-10.678858t1.024-10.678857q1.097143-5.339429 3.145143-10.313143 2.048-4.973714 5.12-9.508571 2.925714-4.461714 6.729143-8.338286 3.876571-3.803429 8.338285-6.802285 4.461714-2.925714 9.508572-5.12 4.973714-1.974857 10.24-3.072 5.339429-1.024 10.752-1.024t10.678857 1.024q5.339429 1.097143 10.24 3.145142 5.046857 2.048 9.508571 5.12 4.534857 2.925714 8.338286 6.729143 3.803429 3.876571 6.802286 8.338286 2.998857 4.534857 5.12 9.508571 2.048 4.973714 3.072 10.24 1.097143 5.339429 1.097143 10.752zM400.091429 783.140571q0 5.412571-1.024 10.678858-1.097143 5.339429-3.145143 10.313142-2.048 4.973714-5.12 9.508572-2.925714 4.461714-6.729143 8.265143-3.876571 3.876571-8.338286 6.875428-4.534857 2.925714-9.508571 5.046857-4.973714 2.048-10.24 3.145143-5.339429 1.024-10.752 1.024t-10.678857-1.024q-5.339429-1.097143-10.24-3.145143-5.046857-2.048-9.508572-5.12-4.534857-2.925714-8.338286-6.802285-3.803429-3.803429-6.802285-8.265143-2.998857-4.534857-5.12-9.508572-2.048-4.973714-3.072-10.24-1.097143-5.339429-1.097143-10.752t1.097143-10.678857q1.024-5.339429 3.072-10.313143 2.121143-4.973714 5.12-9.508571 2.925714-4.461714 6.802285-8.265143 3.803429-3.876571 8.338286-6.875428 4.461714-2.925714 9.508572-5.046858 4.900571-2.048 10.24-3.145142 5.266286-1.024 10.678857-1.024t10.752 1.024q5.266286 1.097143 10.24 3.145142 4.973714 2.048 9.508571 5.12 4.461714 2.925714 8.338286 6.802286 3.803429 3.803429 6.802286 8.265143 2.925714 4.534857 5.12 9.508571 1.974857 4.973714 3.072 10.24 1.024 5.339429 1.024 10.752z m0-408.576q0 5.412571-1.024 10.678858-1.097143 5.339429-3.145143 10.24-2.048 5.12-5.12 9.508571-2.925714 4.534857-6.729143 8.338286-3.876571 3.803429-8.338286 6.802285-4.534857 2.998857-9.508571 5.12-4.973714 2.048-10.24 3.072-5.339429 1.097143-10.752 1.097143t-10.678857-1.097143q-5.339429-1.024-10.24-3.072-5.046857-2.121143-9.508572-5.12-4.534857-2.925714-8.338286-6.802285-3.803429-3.803429-6.802285-8.338286-2.998857-4.388571-5.12-9.508571-2.048-4.900571-3.072-10.24-1.097143-5.266286-1.097143-10.678858t1.097143-10.678857q1.024-5.339429 3.072-10.313143 2.121143-4.973714 5.12-9.508571 2.925714-4.461714 6.802285-8.338286 3.803429-3.803429 8.338286-6.802285 4.461714-2.925714 9.508572-5.12 4.900571-1.974857 10.24-3.072 5.266286-1.024 10.678857-1.024t10.752 1.024q5.266286 1.097143 10.24 3.145142 4.973714 2.048 9.508571 5.12 4.461714 2.925714 8.338286 6.729143 3.803429 3.876571 6.802286 8.338286 2.925714 4.534857 5.12 9.508571 1.974857 4.973714 3.072 10.24 1.024 5.339429 1.024 10.752z m594.358857-197.485714q0 5.485714-1.024 10.752-1.097143 5.339429-3.145143 10.24-2.048 5.12-5.12 9.508572-2.925714 4.534857-6.802286 8.338285-3.803429 3.803429-8.265143 6.802286-4.534857 3.072-9.508571 5.12-4.973714 2.048-10.24 3.072-5.339429 1.097143-10.752 1.097143t-10.678857-1.097143q-5.339429-1.024-10.313143-3.072-4.973714-2.048-9.508572-5.12-4.461714-2.925714-8.265142-6.802286-3.876571-3.803429-6.875429-8.265143-2.925714-4.534857-5.046857-9.508571-2.048-4.973714-3.145143-10.24-1.024-5.339429-1.024-10.752t1.024-10.678857q1.097143-5.339429 3.145143-10.313143 2.048-4.973714 5.12-9.508571 2.925714-4.461714 6.802286-8.265143 3.803429-3.876571 8.265142-6.875429 4.534857-2.925714 9.508572-5.046857 4.973714-2.048 10.24-3.145143 5.339429-1.024 10.752-1.024t10.678857 1.024q5.339429 1.097143 10.24 3.145143 5.12 2.048 9.508571 5.12 4.534857 2.925714 8.338286 6.802286 3.876571 3.803429 6.875429 8.265143 2.925714 4.534857 5.046857 9.508571 2.048 4.973714 3.145143 10.24 1.024 5.339429 1.024 10.752z m-855.186286 0q0 5.485714-1.024 10.752-1.097143 5.339429-3.145143 10.24-2.048 5.12-5.12 9.508572-2.925714 4.534857-6.802286 8.338285-3.803429 3.803429-8.265142 6.802286-4.534857 3.072-9.508572 5.12-4.973714 2.048-10.24 3.072-5.339429 1.097143-10.752 1.097143t-10.678857-1.097143q-5.339429-1.024-10.313143-3.072-4.973714-2.048-9.508571-5.12-4.461714-2.925714-8.265143-6.802286Q41.691429 212.114286 38.765714 207.725714q-2.925714-4.534857-5.046857-9.508571-2.048-4.973714-3.145143-10.24-1.024-5.339429-1.024-10.752t1.024-10.678857q1.097143-5.339429 3.145143-10.313143 2.048-4.973714 5.12-9.508572 2.925714-4.461714 6.802286-8.265142 3.803429-3.876571 8.265143-6.875429 4.534857-2.925714 9.508571-5.046857 4.973714-2.048 10.24-3.145143 5.339429-1.024 10.752-1.024t10.678857 1.024q5.339429 1.097143 10.24 3.145143 5.12 2.048 9.508572 5.12 4.534857 2.925714 8.338285 6.802286 3.803429 3.803429 6.875429 8.265142 2.925714 4.534857 5.046857 9.508572 2.048 4.973714 3.145143 10.24 1.024 5.339429 1.024 10.752z" fill="#414141" p-id="7015"></path></svg>