<?xml version="1.0" standalone="no"?><!DOCTYPE svg PUBLIC "-//W3C//DTD SVG 1.1//EN" "http://www.w3.org/Graphics/SVG/1.1/DTD/svg11.dtd"><svg t="1645017891210" class="icon" viewBox="0 0 1024 1024" version="1.1" xmlns="http://www.w3.org/2000/svg" p-id="6017" xmlns:xlink="http://www.w3.org/1999/xlink" width="200" height="200"><defs><style type="text/css"></style></defs><path d="M708.681143 324.388571l-41.691429-163.620571 53.101715-13.604571v54.857142H322.340571v-109.714285h397.750858q4.534857 0 9.069714 0.731428 4.388571 0.731429 8.777143 2.267429 4.242286 1.462857 8.265143 3.657143 3.949714 2.194286 7.533714 4.900571 3.657143 2.779429 6.729143 6.144 3.072 3.364571 5.558857 7.094857 2.486857 3.803429 4.315428 8.045715 1.828571 4.096 2.925715 8.484571l41.691428 163.620571-106.276571 27.062858z m107.958857-13.604571q0 5.412571-1.024 10.752-1.024 5.266286-3.145143 10.24-2.048 5.046857-5.046857 9.508571-2.998857 4.461714-6.802286 8.338286-3.803429 3.803429-8.338285 6.802286-4.461714 2.925714-9.508572 5.12-4.973714 1.974857-10.24 3.072-5.339429 1.024-10.752 1.024-5.339429 0-10.678857-1.024-5.266286-1.097143-10.24-3.145143-5.046857-2.048-9.508571-5.12-4.534857-2.925714-8.338286-6.729143-3.803429-3.876571-6.802286-8.338286-2.998857-4.461714-5.12-9.508571-2.048-4.973714-3.072-10.24-1.097143-5.339429-1.097143-10.752t1.097143-10.678857q1.024-5.266286 3.072-10.24 2.121143-5.046857 5.12-9.508572 2.925714-4.534857 6.802286-8.338285 3.803429-3.803429 8.338286-6.802286 4.461714-2.998857 9.508571-5.12 4.973714-2.048 10.24-3.072 5.339429-1.097143 10.678857-1.097143 5.412571 0 10.752 1.097143 5.266286 1.024 10.24 3.072 5.046857 2.121143 9.508572 5.12 4.534857 2.925714 8.338285 6.802286 3.803429 3.803429 6.802286 8.338285 2.998857 4.461714 5.12 9.508572 2.048 4.973714 3.072 10.24 1.024 5.266286 1.024 10.678857zM377.197714 147.163429q0 5.412571-1.097143 10.752-1.024 5.266286-3.072 10.24-2.121143 5.046857-5.12 9.508571-2.925714 4.534857-6.802285 8.338286-3.803429 3.803429-8.338286 6.802285-4.461714 2.998857-9.508571 5.12-4.973714 2.048-10.24 3.072-5.339429 1.024-10.678858 1.024-5.412571 0-10.752-1.024-5.266286-1.024-10.24-3.145142-5.046857-2.048-9.508571-5.046858-4.461714-2.998857-8.338286-6.802285-3.803429-3.803429-6.802285-8.338286-2.998857-4.461714-5.12-9.508571-2.048-4.973714-3.072-10.24-1.024-5.339429-1.024-10.752 0-5.339429 1.024-10.678858 1.024-5.266286 3.145142-10.24 2.048-5.046857 5.046858-9.508571 2.998857-4.534857 6.802285-8.338286 3.876571-3.803429 8.338286-6.802285 4.461714-2.998857 9.508571-5.12 4.973714-2.048 10.24-3.072 5.339429-1.097143 10.752-1.097143 5.339429 0 10.678858 1.097143 5.266286 1.024 10.24 3.145142 5.046857 2.048 9.508571 5.046858 4.534857 2.925714 8.338286 6.802285 3.803429 3.803429 6.802285 8.338286 2.998857 4.461714 5.12 9.508571 2.048 4.973714 3.072 10.24 1.097143 5.339429 1.097143 10.678858z" fill="#FF6C1C" p-id="6018"></path><path d="M296.228571 146.066286H86.308571v-54.857143h54.857143v841.581714h-54.857143v-54.857143h851.382858v54.857143h-54.857143V330.971429h54.857143v54.857142H347.428571q-4.608 0-9.216-0.731428-4.608-0.877714-8.996571-2.413714t-8.484571-3.876572q-4.096-2.194286-7.753143-5.193143-3.657143-2.925714-6.729143-6.436571-3.072-3.510857-5.485714-7.533714-2.486857-3.949714-4.169143-8.265143-1.755429-4.388571-2.706286-8.923429l-51.273143-239.762286 53.613714-11.483428v54.857143z m0-109.714286q4.681143 0 9.289143 0.804571 4.608 0.731429 8.996572 2.340572t8.484571 3.876571q4.096 2.267429 7.753143 5.193143 3.657143 2.925714 6.729143 6.436572 3.072 3.510857 5.485714 7.533714 2.486857 3.949714 4.242286 8.338286 1.682286 4.315429 2.706286 8.923428l51.2 239.689143-53.613715 11.483429v-54.857143h590.262857q5.339429 0 10.678858 1.024 5.266286 1.097143 10.24 3.145143 5.046857 2.048 9.508571 5.12 4.534857 2.925714 8.338286 6.802285 3.803429 3.803429 6.802285 8.265143 2.998857 4.534857 5.12 9.508572 2.048 4.973714 3.072 10.24 1.097143 5.339429 1.097143 10.752v601.819428q0 5.412571-1.097143 10.678857-1.024 5.266286-3.145142 10.24-2.048 5.046857-5.046858 9.508572-2.925714 4.534857-6.802285 8.338285-3.803429 3.803429-8.338286 6.802286-4.461714 2.998857-9.508571 5.12-4.973714 2.048-10.24 3.072-5.339429 1.097143-10.678858 1.097143H86.308571q-5.412571 0-10.752-1.097143-5.266286-1.024-10.24-3.072-5.046857-2.121143-9.508571-5.12-4.534857-2.925714-8.338286-6.802286-3.803429-3.803429-6.802285-8.338285-2.998857-4.461714-5.12-9.508572-2.048-4.973714-3.072-10.24-1.024-5.266286-1.024-10.678857V91.209143q0-5.412571 1.024-10.678857t3.145142-10.24Q37.668571 65.170286 40.667429 60.708571 43.666286 56.246857 47.469714 52.443429 51.273143 48.64 55.808 45.641143q4.461714-2.998857 9.508571-5.12 4.973714-2.048 10.24-3.072 5.339429-1.097143 10.752-1.097143h209.92z" fill="#414141" p-id="6019"></path><path d="M543.085714 837.924571H227.474286v-73.142857h315.611428v73.142857z m36.571429-36.571428q0 3.657143-0.731429 7.168t-2.048 6.802286q-1.462857 3.364571-3.364571 6.363428-2.048 2.925714-4.608 5.558857-2.486857 2.486857-5.485714 4.534857-2.998857 1.974857-6.363429 3.364572-3.291429 1.389714-6.875429 2.048-3.510857 0.731429-7.094857 0.731428-3.657143 0-7.168-0.731428t-6.875428-2.048q-3.291429-1.389714-6.290286-3.364572-2.925714-2.048-5.558857-4.534857-2.56-2.56-4.534857-5.558857-1.974857-2.998857-3.364572-6.363428-1.389714-3.291429-2.121143-6.802286-0.731429-3.584-0.731428-7.168 0-3.657143 0.731428-7.168t2.121143-6.802286q1.389714-3.364571 3.364572-6.363428 1.974857-2.925714 4.534857-5.558858 2.56-2.486857 5.558857-4.534857 2.998857-1.974857 6.290286-3.364571 3.364571-1.389714 6.875428-2.048 3.584-0.731429 7.168-0.731429 3.657143 0 7.094857 0.731429 3.584 0.731429 6.875429 2.048 3.364571 1.389714 6.363429 3.364571 2.925714 2.048 5.485714 4.534857 2.56 2.56 4.608 5.558858 1.974857 2.998857 3.364571 6.363428 1.389714 3.291429 2.048 6.802286 0.731429 3.584 0.731429 7.168z m-315.611429 0q0 3.657143-0.731428 7.168-0.658286 3.510857-2.048 6.802286-1.389714 3.364571-3.364572 6.363428-1.974857 2.925714-4.534857 5.558857-2.56 2.486857-5.558857 4.534857-2.925714 1.974857-6.290286 3.364572-3.364571 1.389714-6.875428 2.048-3.510857 0.731429-7.168 0.731428-3.584 0-7.094857-0.731428t-6.875429-2.048q-3.291429-1.389714-6.290286-3.364572-2.998857-2.048-5.558857-4.534857-2.56-2.56-4.534857-5.558857-2.048-2.998857-3.437714-6.363428-1.316571-3.291429-2.048-6.802286-0.731429-3.584-0.731429-7.168 0-3.657143 0.731429-7.168t2.048-6.802286q1.462857-3.364571 3.437714-6.363428 1.974857-2.925714 4.534857-5.558858 2.56-2.486857 5.558857-4.534857 2.925714-1.974857 6.290286-3.364571 3.364571-1.389714 6.875429-2.048 3.510857-0.731429 7.094857-0.731429 3.657143 0 7.168 0.731429t6.875428 2.048q3.291429 1.389714 6.290286 3.364571 2.998857 2.048 5.558857 4.534857 2.56 2.56 4.534857 5.558858 1.974857 2.998857 3.364572 6.363428 1.462857 3.291429 2.121143 6.802286 0.731429 3.584 0.731428 7.168z" fill="#414141" p-id="6020"></path></svg>