<?xml version="1.0" standalone="no"?><!DOCTYPE svg PUBLIC "-//W3C//DTD SVG 1.1//EN" "http://www.w3.org/Graphics/SVG/1.1/DTD/svg11.dtd"><svg t="1645017302854" class="icon" viewBox="0 0 1024 1024" version="1.1" xmlns="http://www.w3.org/2000/svg" p-id="2946" xmlns:xlink="http://www.w3.org/1999/xlink" width="200" height="200"><defs><style type="text/css"></style></defs><path d="M573.805714 183.954286l175.250286 185.929143A119.734857 119.734857 0 0 0 936.228571 221.842286l-41.691428-63.268572-19.529143-13.385143a219.428571 219.428571 0 0 0-254.025143 4.096l-47.177143 34.669715z" fill="#FF6C1C" p-id="2947"></path><path d="M820.662857 496.64L672.548571 357.010286 524.580571 217.526857l75.337143-79.872 147.968 139.556572 147.968 139.556571-75.264 79.798857z m-2.56-77.385143l27.721143-29.622857q41.837714-44.836571 39.862857-106.130286-1.974857-61.293714-46.592-103.350857-44.909714-42.349714-106.642286-40.374857-61.732571 1.974857-103.862857 47.104l-26.258285 28.16-341.577143 366.006857Q186.660571 660.406857 180.882286 760.685714q-3.803429 65.389714-1.462857 101.083429 0.877714 14.848 2.633142 22.381714l0.146286 0.731429q-2.194286-4.973714-6.875428-9.728-5.12-5.266286-10.532572-7.753143h0.438857q7.606857 1.828571 22.674286 2.852571 36.352 2.413714 103.570286-1.170285 112.347429-5.924571 195.291428-94.793143l331.337143-355.035429z m80.237714 74.825143l-331.337142 355.035429q-113.152 121.270857-269.750858 129.462857-73.728 3.949714-116.589714 1.097143-60.562286-4.022857-83.968-28.086858-34.669714-35.620571-25.380571-197.266285 8.045714-139.776 109.202285-248.173715l341.577143-366.006857 26.331429-28.086857Q621.641143 33.572571 728.941714 30.134857q107.300571-3.437714 185.417143 70.217143 77.531429 73.142857 80.969143 179.638857 3.437714 106.569143-69.339429 184.466286l-27.648 29.622857z" fill="#414141" p-id="2948"></path></svg>