<?xml version="1.0" standalone="no"?><!DOCTYPE svg PUBLIC "-//W3C//DTD SVG 1.1//EN" "http://www.w3.org/Graphics/SVG/1.1/DTD/svg11.dtd"><svg t="1645017815469" class="icon" viewBox="0 0 1024 1024" version="1.1" xmlns="http://www.w3.org/2000/svg" p-id="4343" xmlns:xlink="http://www.w3.org/1999/xlink" width="200" height="200"><defs><style type="text/css"></style></defs><path d="M103.716571 766.317714l661.138286-663.552 155.428572 154.916572-661.138286 663.552-155.428572-154.916572zM290.523429 855.771429q-0.585143 5.339429-1.755429 10.605714-1.097143 5.266286-2.706286 10.459428-1.609143 5.12-3.730285 10.093715-2.121143 4.900571-4.681143 9.654857-2.633143 4.754286-5.632 9.216-3.072 4.388571-6.582857 8.557714-3.437714 4.096-7.314286 7.899429-3.803429 3.730286-8.045714 7.168-4.169143 3.364571-8.704 6.290285-4.461714 2.925714-9.289143 5.412572-4.754286 2.486857-9.728 4.534857-5.046857 1.974857-10.24 3.510857-5.12 1.462857-10.459429 2.486857-5.266286 1.024-10.605714 1.462857-5.412571 0.512-10.825143 0.438858-5.339429 0-10.752-0.658286-5.339429-0.585143-10.605714-1.682286t-10.386286-2.706286q-5.12-1.682286-10.093714-3.730285-4.973714-2.194286-9.728-4.754286-4.681143-2.56-9.142857-5.632-4.461714-2.998857-8.557715-6.509714-4.169143-3.437714-7.899428-7.314286-3.803429-3.803429-7.168-8.045714-3.364571-4.169143-6.363429-8.777143-2.925714-4.388571-5.412571-9.216-2.486857-4.754286-4.461715-9.801143-2.048-4.973714-3.584-10.166857-1.462857-5.12-2.486857-10.459429-0.950857-5.339429-1.462857-10.678857-0.438857-5.339429-0.365714-10.752 0-5.412571 0.585143-10.752t1.682285-10.605714q1.170286-5.266286 2.779429-10.459429 1.609143-5.12 3.657143-10.093714 2.194286-4.973714 4.754286-9.654857 2.633143-4.754286 5.632-9.216 3.072-4.388571 6.582857-8.557714 3.364571-4.096 7.314285-7.899429 3.803429-3.803429 8.045715-7.168 4.169143-3.364571 8.630857-6.290286 4.534857-2.925714 9.289143-5.412571 4.827429-2.486857 9.801143-4.534857 5.046857-1.974857 10.24-3.510857 5.12-1.462857 10.386285-2.486858 5.339429-1.024 10.678857-1.462857 5.412571-0.512 10.752-0.438857 5.412571 0 10.752 0.658286 5.412571 0.585143 10.678858 1.682286t10.386285 2.706285q5.12 1.609143 10.093715 3.730286 4.973714 2.194286 9.728 4.754286 4.681143 2.56 9.142857 5.632 4.388571 2.998857 8.557714 6.509714 4.169143 3.437714 7.899429 7.314286 3.803429 3.803429 7.168 8.045714 3.364571 4.169143 6.290285 8.704 2.925714 4.534857 5.485715 9.289143 2.486857 4.754286 4.461714 9.801143 2.048 4.973714 3.510857 10.166857 1.536 5.12 2.56 10.459428 0.950857 5.266286 1.462857 10.678858 0.438857 5.339429 0.365714 10.752 0 5.412571-0.585142 10.752z m661.065142-663.552q-0.585143 5.339429-1.682285 10.605714t-2.706286 10.459428q-1.609143 5.12-3.730286 10.093715-2.121143 4.973714-4.681143 9.654857-2.633143 4.754286-5.632 9.216-3.072 4.388571-6.582857 8.557714-3.437714 4.096-7.314285 7.899429-3.803429 3.803429-8.045715 7.168-4.169143 3.364571-8.704 6.290285-4.461714 2.925714-9.289143 5.412572-4.754286 2.486857-9.728 4.534857-5.046857 1.974857-10.24 3.510857-5.12 1.462857-10.459428 2.486857-5.266286 1.024-10.678857 1.462857-5.339429 0.512-10.752 0.438858-5.339429 0-10.752-0.658286-5.339429-0.585143-10.605715-1.682286t-10.386285-2.706286q-5.12-1.609143-10.093715-3.730285-4.973714-2.194286-9.728-4.754286-4.681143-2.56-9.142857-5.632-4.461714-2.998857-8.630857-6.509714-4.096-3.437714-7.899428-7.314286-3.730286-3.803429-7.094858-8.045714-3.364571-4.169143-6.363428-8.704-2.925714-4.534857-5.412572-9.289143-2.486857-4.754286-4.534857-9.801143-1.974857-4.973714-3.510857-10.166857-1.462857-5.12-2.486857-10.459429-1.024-5.266286-1.462857-10.678857-0.438857-5.339429-0.438857-10.752 0.073143-5.412571 0.731428-10.752 0.512-5.339429 1.609143-10.605714t2.779429-10.459429q1.609143-5.12 3.657143-10.093714 2.194286-4.900571 4.754285-9.654857t5.632-9.216q3.072-4.388571 6.509715-8.557714 3.437714-4.096 7.314285-7.899429 3.876571-3.730286 8.045715-7.168 4.242286-3.364571 8.777142-6.290286 4.461714-2.925714 9.216-5.412571 4.827429-2.486857 9.801143-4.534857 4.973714-1.974857 10.24-3.510857 5.12-1.462857 10.386286-2.486858 5.339429-1.024 10.678857-1.462857 5.412571-0.512 10.752-0.438857 5.412571 0 10.752 0.658286 5.412571 0.585143 10.678857 1.682286t10.386286 2.706285q5.12 1.682286 10.093714 3.730286 4.973714 2.194286 9.654857 4.754286 4.754286 2.56 9.216 5.632 4.388571 2.998857 8.557715 6.509714 4.169143 3.437714 7.899428 7.314286 3.803429 3.803429 7.168 8.045714 3.364571 4.169143 6.290286 8.777143 2.925714 4.388571 5.485714 9.216 2.486857 4.754286 4.461715 9.801143 2.048 4.973714 3.510857 10.166857 1.462857 5.12 2.56 10.459428 0.950857 5.339429 1.462857 10.678858 0.438857 5.339429 0.365714 10.752 0 5.412571-0.658286 10.752z" fill="#FF6C1C" p-id="4344"></path><path d="M769.536 918.235429L100.790857 262.363429l153.6-156.598858 668.818286 655.872-153.6 156.598858z m87.917714-187.465143q5.339429 0.585143 10.605715 1.609143 5.266286 1.097143 10.459428 2.633142 5.12 1.609143 10.093714 3.657143 4.973714 2.121143 9.728 4.681143t9.216 5.558857q4.461714 2.925714 8.630858 6.436572 4.169143 3.437714 7.972571 7.241143 3.803429 3.803429 7.241143 8.045714 3.364571 4.096 6.363428 8.630857 2.925714 4.461714 5.485715 9.216 2.56 4.754286 4.608 9.728 2.048 5.046857 3.584 10.24 1.536 5.12 2.56 10.386286 1.097143 5.266286 1.609143 10.678857 0.512 5.339429 0.438857 10.752 0 5.339429-0.512 10.752-0.585143 5.339429-1.609143 10.605714-1.097143 5.339429-2.633143 10.459429-1.609143 5.12-3.657143 10.093714-2.121143 4.973714-4.681143 9.728t-5.558857 9.216q-2.925714 4.534857-6.436571 8.630857-3.437714 4.169143-7.241143 8.045714-3.803429 3.730286-8.045714 7.168-4.096 3.364571-8.630858 6.363429-4.461714 2.925714-9.216 5.485714-4.754286 2.56-9.728 4.608-5.046857 2.048-10.24 3.657143-5.12 1.462857-10.386285 2.56-5.266286 1.024-10.678857 1.462857-5.339429 0.585143-10.752 0.585143-5.339429 0-10.752-0.585143-5.339429-0.585143-10.605715-1.609143-5.339429-1.097143-10.459428-2.633142-5.12-1.609143-10.093715-3.657143-4.973714-2.121143-9.728-4.681143-4.754286-2.486857-9.216-5.558857-4.534857-2.925714-8.630857-6.436572-4.169143-3.364571-8.045714-7.241143-3.730286-3.803429-7.168-8.045714-3.364571-4.096-6.363429-8.630857-2.925714-4.388571-5.485714-9.216-2.56-4.754286-4.608-9.728-2.048-4.973714-3.657143-10.166857-1.462857-5.12-2.56-10.459429-1.024-5.266286-1.462857-10.678857-0.585143-5.339429-0.585143-10.752 0-5.339429 0.585143-10.752 0.512-5.339429 1.609143-10.605714t2.633143-10.459429q1.609143-5.12 3.657143-10.093714 2.121143-4.973714 4.608-9.728 2.56-4.754286 5.632-9.216 2.925714-4.461714 6.436571-8.630857 3.364571-4.169143 7.241143-7.972572 3.803429-3.803429 7.972571-7.241142 4.169143-3.364571 8.704-6.363429 4.388571-2.925714 9.216-5.485714 4.754286-2.56 9.728-4.608 4.973714-2.048 10.166858-3.657143 5.12-1.462857 10.459428-2.486857 5.266286-1.097143 10.678857-1.609143 5.339429-0.512 10.752-0.438857 5.339429 0 10.752 0.512zM188.708571 74.898286q5.339429 0.585143 10.605715 1.609143 5.339429 1.097143 10.459428 2.633142 5.12 1.609143 10.093715 3.657143 4.973714 2.121143 9.728 4.681143 4.754286 2.486857 9.216 5.558857 4.534857 2.925714 8.630857 6.436572 4.169143 3.437714 8.045714 7.241143 3.730286 3.803429 7.168 8.045714 3.364571 4.096 6.363429 8.630857 2.925714 4.461714 5.485714 9.216 2.56 4.754286 4.608 9.728 2.048 4.973714 3.657143 10.24 1.462857 5.12 2.56 10.386286 1.024 5.266286 1.462857 10.678857 0.585143 5.339429 0.585143 10.752 0 5.339429-0.585143 10.752-0.585143 5.339429-1.609143 10.605714-1.097143 5.266286-2.633143 10.459429-1.609143 5.12-3.657143 10.093714-2.121143 4.973714-4.681143 9.728-2.486857 4.754286-5.558857 9.216-2.925714 4.461714-6.436571 8.630857-3.364571 4.169143-7.241143 8.045714-3.803429 3.730286-8.045714 7.168-4.096 3.364571-8.630857 6.363429-4.388571 2.925714-9.216 5.485714-4.754286 2.56-9.728 4.608-4.973714 2.048-10.166858 3.657143-5.12 1.462857-10.459428 2.486857-5.266286 1.097143-10.678857 1.609143-5.339429 0.512-10.752 0.438857-5.339429 0-10.752-0.512-5.339429-0.585143-10.605715-1.609143-5.266286-1.097143-10.459428-2.633142-5.12-1.609143-10.093714-3.657143-4.973714-2.121143-9.728-4.681143t-9.216-5.558857q-4.461714-2.925714-8.630858-6.436572-4.169143-3.437714-7.972571-7.241143-3.803429-3.803429-7.241143-8.045714-3.364571-4.096-6.363428-8.630857-2.925714-4.461714-5.485715-9.216-2.56-4.754286-4.608-9.728-2.048-4.973714-3.657143-10.24-1.462857-5.12-2.486857-10.386286-1.097143-5.266286-1.609143-10.678857-0.512-5.339429-0.438857-10.752 0-5.339429 0.512-10.752 0.585143-5.339429 1.609143-10.605714 1.097143-5.266286 2.633143-10.459429 1.609143-5.12 3.657143-10.093714 2.121143-4.973714 4.681143-9.728t5.558857-9.216q2.925714-4.461714 6.436571-8.630857 3.437714-4.169143 7.241143-8.045714 3.803429-3.730286 8.045714-7.168 4.096-3.364571 8.630858-6.363429 4.461714-2.925714 9.216-5.485714 4.754286-2.56 9.728-4.608 5.046857-2.048 10.24-3.657143 5.12-1.462857 10.386285-2.56 5.266286-1.024 10.678857-1.462857 5.339429-0.585143 10.752-0.585143 5.339429 0 10.752 0.585143z" fill="#414141" p-id="4345"></path></svg>