<?xml version="1.0" standalone="no"?><!DOCTYPE svg PUBLIC "-//W3C//DTD SVG 1.1//EN" "http://www.w3.org/Graphics/SVG/1.1/DTD/svg11.dtd"><svg t="1645017935282" class="icon" viewBox="0 0 1024 1024" version="1.1" xmlns="http://www.w3.org/2000/svg" p-id="6872" xmlns:xlink="http://www.w3.org/1999/xlink" width="200" height="200"><defs><style type="text/css"></style></defs><path d="M581.778286 285.988571L804.717714 62.902857l155.209143 155.209143-222.939428 222.866286-155.209143-155.062857z m155.209143 155.062858q-3.803429 3.876571-8.045715 7.314285-4.096 3.364571-8.630857 6.363429-4.388571 2.925714-9.216 5.558857-4.754286 2.486857-9.728 4.608-4.973714 2.048-10.093714 3.657143-5.193143 1.462857-10.459429 2.56-5.339429 1.024-10.678857 1.609143-5.339429 0.512-10.752 0.512t-10.752-0.512q-5.339429-0.585143-10.678857-1.609143-5.266286-1.024-10.386286-2.633143-5.12-1.536-10.166857-3.657143-4.973714-2.048-9.728-4.534857-4.754286-2.56-9.216-5.558857-4.461714-2.998857-8.630857-6.436572-4.169143-3.364571-8.045714-7.241142-3.803429-3.803429-7.168-7.972572-3.437714-4.169143-6.436572-8.630857-2.998857-4.461714-5.558857-9.216-2.486857-4.754286-4.608-9.728-2.048-4.973714-3.657143-10.166857-1.462857-5.12-2.56-10.459429-1.024-5.266286-1.609143-10.605714-0.512-5.412571-0.512-10.752 0-5.412571 0.512-10.752 0.585143-5.412571 1.609143-10.678857 1.024-5.266286 2.633143-10.459429 1.536-5.12 3.657143-10.093714 2.048-4.973714 4.534857-9.728 2.56-4.754286 5.558857-9.289143 2.925714-4.388571 6.436572-8.630857 3.364571-4.169143 7.168-7.972571 3.876571-3.803429 8.045714-7.241143 4.169143-3.437714 8.630857-6.363429 4.461714-2.998857 9.216-5.558857 4.754286-2.56 9.728-4.608 4.973714-2.048 10.166857-3.657143 5.12-1.536 10.459429-2.56 5.266286-1.097143 10.605714-1.609143 5.339429-0.512 10.752-0.512t10.752 0.512q5.339429 0.512 10.678857 1.609143 5.266286 1.024 10.459429 2.56 5.12 1.609143 10.093714 3.657143 4.973714 2.048 9.728 4.608t9.216 5.558857q4.534857 2.925714 8.704 6.363429 4.169143 3.437714 7.972572 7.314285 3.803429 3.730286 7.241142 7.899429 3.364571 4.169143 6.363429 8.630857 2.998857 4.534857 5.558857 9.289143 2.56 4.754286 4.608 9.728 2.048 4.973714 3.657143 10.093714 1.462857 5.12 2.56 10.459429 1.097143 5.266286 1.609143 10.678857 0.512 5.339429 0.512 10.752 0 5.339429-0.512 10.752-0.512 5.339429-1.609143 10.605714-1.024 5.339429-2.56 10.459429-1.609143 5.12-3.657143 10.166857-2.048 4.973714-4.608 9.728t-5.558857 9.216q-2.925714 4.461714-6.363429 8.630857-3.437714 4.169143-7.314285 8.045714z m222.939428-222.866286q-3.876571 3.803429-8.045714 7.241143-4.169143 3.364571-8.630857 6.363428-4.461714 2.998857-9.216 5.558857-4.754286 2.56-9.728 4.608-4.973714 2.048-10.166857 3.657143-5.12 1.462857-10.459429 2.56-5.266286 1.097143-10.605714 1.609143-5.339429 0.512-10.752 0.512t-10.752-0.512q-5.339429-0.512-10.678857-1.609143-5.266286-1.024-10.459429-2.633143-5.12-1.536-10.093714-3.657142-4.973714-1.974857-9.728-4.534858t-9.216-5.558857q-4.534857-2.925714-8.704-6.363428-4.169143-3.437714-7.972572-7.314286-3.803429-3.730286-7.241143-7.899429-3.364571-4.169143-6.363428-8.704-2.998857-4.388571-5.558857-9.216-2.56-4.754286-4.608-9.728-2.048-4.973714-3.657143-10.166857-1.462857-5.12-2.56-10.386285-1.097143-5.339429-1.609143-10.678858-0.512-5.339429-0.512-10.752t0.512-10.752q0.512-5.339429 1.609143-10.678857 1.024-5.266286 2.56-10.386285 1.609143-5.12 3.657143-10.166858 2.048-4.973714 4.608-9.728t5.558857-9.216q2.925714-4.534857 6.363428-8.704 3.437714-4.169143 7.314286-7.972571 3.730286-3.803429 7.899429-7.241143 4.169143-3.364571 8.704-6.363428 4.388571-2.998857 9.216-5.558858 4.754286-2.56 9.728-4.608 4.973714-2.048 10.093714-3.657142 5.193143-1.462857 10.459429-2.56 5.339429-1.097143 10.678857-1.609143 5.339429-0.512 10.752-0.512t10.752 0.512q5.339429 0.512 10.605714 1.609143 5.339429 1.024 10.459429 2.633142 5.12 1.536 10.166857 3.657143 4.973714 1.974857 9.728 4.534857t9.216 5.558858q4.461714 2.925714 8.630857 6.363428 4.169143 3.437714 8.045714 7.314286 3.803429 3.730286 7.168 7.899428 3.437714 4.169143 6.436572 8.704 2.998857 4.388571 5.558857 9.216 2.486857 4.754286 4.608 9.728 2.048 4.973714 3.657143 10.166858 1.462857 5.12 2.56 10.386285 1.024 5.339429 1.609142 10.678857 0.512 5.339429 0.512 10.752t-0.512 10.752q-0.585143 5.339429-1.609142 10.678858-1.024 5.266286-2.633143 10.386285-1.536 5.193143-3.657143 10.166857-2.048 4.973714-4.534857 9.728-2.56 4.754286-5.558857 9.216-2.925714 4.534857-6.436572 8.704-3.364571 4.169143-7.168 7.972572z" fill="#414141" p-id="6873"></path><path d="M804.717714 961.024L581.778286 738.011429l155.209143-155.136 222.939428 222.866285-155.209143 155.209143z m155.209143-155.209143q3.803429 3.803429 7.168 8.045714 3.437714 4.096 6.436572 8.630858 2.998857 4.388571 5.558857 9.216 2.486857 4.754286 4.608 9.728 2.048 4.973714 3.657143 10.166857 1.462857 5.12 2.56 10.386285 1.024 5.339429 1.609142 10.678858 0.512 5.339429 0.512 10.752t-0.512 10.752q-0.585143 5.339429-1.609142 10.678857-1.024 5.266286-2.633143 10.386285-1.536 5.193143-3.657143 10.166858-2.048 4.973714-4.534857 9.728-2.56 4.754286-5.558857 9.216-2.925714 4.534857-6.436572 8.704-3.364571 4.169143-7.168 7.972571-3.876571 3.803429-8.045714 7.241143-4.169143 3.364571-8.630857 6.363428-4.461714 2.998857-9.216 5.558858-4.754286 2.56-9.728 4.608-4.973714 2.048-10.166857 3.657142-5.12 1.462857-10.386286 2.56-5.339429 1.097143-10.678857 1.609143-5.339429 0.512-10.752 0.512t-10.752-0.512q-5.339429-0.512-10.678857-1.609143-5.266286-1.024-10.459429-2.633142-5.12-1.536-10.093714-3.657143-4.973714-1.974857-9.728-4.534857t-9.216-5.558858q-4.534857-2.925714-8.704-6.363428-4.169143-3.437714-7.972572-7.314286-3.803429-3.730286-7.241143-7.899428-3.364571-4.169143-6.363428-8.704-2.998857-4.388571-5.558857-9.216-2.56-4.754286-4.608-9.728-2.048-4.973714-3.657143-10.166858-1.462857-5.12-2.56-10.386285-1.097143-5.339429-1.609143-10.678857-0.512-5.339429-0.512-10.752t0.512-10.752q0.512-5.339429 1.609143-10.678858 1.024-5.266286 2.56-10.386285 1.609143-5.12 3.657143-10.166857 2.048-4.973714 4.608-9.728t5.558857-9.216q2.925714-4.534857 6.363428-8.704 3.437714-4.169143 7.314286-7.972572 3.730286-3.803429 7.899429-7.241143 4.169143-3.364571 8.704-6.363428 4.388571-2.998857 9.216-5.558857 4.754286-2.56 9.728-4.608 4.973714-2.048 10.093714-3.657143 5.193143-1.462857 10.459429-2.56 5.339429-1.097143 10.678857-1.609143 5.339429-0.512 10.752-0.512t10.752 0.512q5.339429 0.512 10.678857 1.609143 5.266286 1.024 10.386286 2.633143 5.12 1.536 10.166857 3.657142 4.973714 1.974857 9.728 4.534858t9.216 5.558857q4.461714 2.925714 8.630857 6.363428 4.169143 3.437714 8.045714 7.314286zM736.987429 582.948571q3.803429 3.803429 7.241142 7.972572 3.364571 4.169143 6.363429 8.630857 2.998857 4.461714 5.558857 9.216 2.56 4.754286 4.608 9.728 2.048 4.973714 3.657143 10.166857 1.462857 5.12 2.56 10.459429 1.097143 5.266286 1.609143 10.605714 0.512 5.412571 0.512 10.752 0 5.412571-0.512 10.752-0.512 5.412571-1.609143 10.678857-1.024 5.266286-2.56 10.459429-1.609143 5.12-3.657143 10.093714-2.048 4.973714-4.608 9.728t-5.558857 9.289143q-2.925714 4.388571-6.363429 8.630857-3.437714 4.169143-7.314285 7.972571-3.730286 3.803429-7.899429 7.241143-4.169143 3.437714-8.704 6.363429-4.388571 2.998857-9.216 5.558857-4.754286 2.56-9.728 4.608-4.973714 2.048-10.093714 3.657143-5.193143 1.536-10.459429 2.56-5.339429 1.097143-10.678857 1.609143-5.339429 0.512-10.752 0.512t-10.752-0.512q-5.339429-0.512-10.605714-1.609143-5.339429-1.024-10.459429-2.56-5.12-1.609143-10.166857-3.657143-4.973714-2.048-9.728-4.608t-9.216-5.558857q-4.461714-2.925714-8.630857-6.363429-4.169143-3.437714-8.045714-7.314285-3.803429-3.730286-7.168-7.899429-3.437714-4.169143-6.436572-8.630857-2.998857-4.534857-5.558857-9.289143-2.486857-4.754286-4.608-9.728-2.048-4.973714-3.657143-10.093714-1.462857-5.12-2.56-10.459429-1.024-5.266286-1.609143-10.678857-0.512-5.339429-0.512-10.752 0-5.339429 0.512-10.752 0.585143-5.339429 1.609143-10.605714 1.024-5.339429 2.633143-10.459429 1.536-5.12 3.657143-10.166857 2.048-4.973714 4.534857-9.728 2.56-4.754286 5.558857-9.216 2.925714-4.461714 6.436572-8.630857 3.364571-4.169143 7.168-8.045714 3.876571-3.730286 8.045714-7.168 4.169143-3.437714 8.630857-6.436572 4.461714-2.925714 9.216-5.558857 4.754286-2.486857 9.728-4.608 4.973714-2.048 10.166857-3.657143 5.12-1.462857 10.459429-2.56 5.266286-1.024 10.605714-1.609143 5.339429-0.512 10.752-0.512t10.752 0.512q5.339429 0.585143 10.678857 1.609143 5.266286 1.024 10.459429 2.633143 5.12 1.536 10.093714 3.657143 4.973714 2.048 9.728 4.534857 4.754286 2.56 9.216 5.558857 4.534857 2.998857 8.704 6.436572 4.169143 3.437714 7.972572 7.241142z" fill="#FF6C1C" p-id="6874"></path><path d="M64.073143 803.620571L287.012571 580.754286l155.209143 155.209143-222.939428 222.866285-155.209143-155.062857z m155.209143 155.136q-3.803429 3.876571-8.045715 7.314286-4.096 3.364571-8.630857 6.363429-4.388571 2.925714-9.216 5.558857-4.754286 2.486857-9.728 4.608-4.973714 2.048-10.093714 3.657143-5.193143 1.462857-10.459429 2.56-5.339429 1.024-10.678857 1.609143-5.339429 0.512-10.752 0.512t-10.752-0.512q-5.339429-0.585143-10.678857-1.609143-5.266286-1.024-10.386286-2.633143-5.12-1.536-10.166857-3.657143-4.973714-2.048-9.728-4.534857-4.754286-2.56-9.216-5.558857-4.461714-2.998857-8.630857-6.436572-4.169143-3.364571-8.045714-7.241143Q60.269714 954.953143 56.905143 950.857143q-3.437714-4.169143-6.436572-8.630857-2.998857-4.461714-5.558857-9.216-2.486857-4.754286-4.608-9.728-2.048-4.973714-3.657143-10.166857-1.462857-5.12-2.56-10.459429-1.024-5.266286-1.609142-10.605714-0.512-5.412571-0.512-10.752 0-5.412571 0.512-10.752 0.585143-5.412571 1.609142-10.678857 1.024-5.266286 2.633143-10.459429 1.536-5.12 3.657143-10.093714 2.048-4.973714 4.534857-9.728 2.56-4.754286 5.558857-9.289143 2.925714-4.388571 6.436572-8.630857 3.364571-4.169143 7.168-7.972572 3.876571-3.803429 8.045714-7.241143 4.169143-3.437714 8.630857-6.363428 4.461714-2.998857 9.216-5.558857 4.754286-2.56 9.728-4.608 4.973714-2.048 10.166857-3.657143 5.12-1.536 10.386286-2.56 5.339429-1.097143 10.678857-1.609143 5.339429-0.512 10.752-0.512t10.752 0.512q5.339429 0.512 10.678857 1.609143 5.266286 1.024 10.459429 2.56 5.12 1.609143 10.093714 3.657143 4.973714 2.048 9.728 4.608t9.216 5.558857q4.534857 2.925714 8.704 6.363428 4.169143 3.437714 7.972572 7.314286 3.803429 3.730286 7.241143 7.899429 3.364571 4.169143 6.363428 8.630857 2.998857 4.534857 5.558857 9.289143 2.56 4.754286 4.608 9.728 2.048 4.973714 3.657143 10.093714 1.462857 5.12 2.56 10.459429 1.097143 5.266286 1.609143 10.678857 0.512 5.339429 0.512 10.752 0 5.339429-0.512 10.752-0.512 5.339429-1.609143 10.605714-1.024 5.339429-2.56 10.459429-1.609143 5.12-3.657143 10.166857-2.048 4.973714-4.608 9.728t-5.558857 9.216q-2.925714 4.461714-6.363428 8.630857-3.437714 4.169143-7.314286 8.045714z m222.939428-222.866285q-3.876571 3.803429-8.045714 7.241143-4.169143 3.364571-8.630857 6.363428-4.461714 2.998857-9.216 5.558857-4.754286 2.56-9.728 4.608-4.973714 2.048-10.166857 3.657143-5.12 1.462857-10.459429 2.56-5.266286 1.097143-10.605714 1.609143-5.339429 0.512-10.752 0.512t-10.752-0.512q-5.339429-0.512-10.678857-1.609143-5.266286-1.024-10.459429-2.633143-5.12-1.536-10.093714-3.657143-4.973714-1.974857-9.728-4.534857t-9.216-5.558857q-4.534857-2.925714-8.704-6.363428-4.169143-3.437714-7.972572-7.314286-3.803429-3.730286-7.241142-7.899429-3.364571-4.169143-6.363429-8.704-2.998857-4.388571-5.558857-9.216-2.56-4.754286-4.608-9.728-2.048-4.973714-3.657143-10.166857-1.462857-5.12-2.56-10.386286-1.097143-5.339429-1.609143-10.678857-0.512-5.339429-0.512-10.752t0.512-10.752q0.512-5.339429 1.609143-10.678857 1.024-5.266286 2.56-10.386286 1.609143-5.12 3.657143-10.166857 2.048-4.973714 4.608-9.728t5.558857-9.216q2.925714-4.534857 6.363429-8.704 3.437714-4.169143 7.314285-7.972571 3.730286-3.803429 7.899429-7.241143 4.169143-3.364571 8.704-6.363429 4.388571-2.998857 9.216-5.558857 4.754286-2.56 9.728-4.608 4.973714-2.048 10.093714-3.657143 5.193143-1.462857 10.459429-2.56 5.339429-1.097143 10.678857-1.609142 5.339429-0.512 10.752-0.512t10.752 0.512q5.339429 0.512 10.605714 1.609142 5.339429 1.024 10.459429 2.633143 5.12 1.536 10.166857 3.657143 4.973714 1.974857 9.728 4.534857t9.216 5.558857q4.461714 2.925714 8.630857 6.363429 4.169143 3.437714 8.045714 7.314286 3.803429 3.730286 7.168 7.899428 3.437714 4.169143 6.436572 8.704 2.998857 4.388571 5.558857 9.216 2.486857 4.754286 4.608 9.728 2.048 4.973714 3.657143 10.166857 1.462857 5.12 2.56 10.386286 1.024 5.339429 1.609143 10.678857 0.512 5.339429 0.512 10.752t-0.512 10.752q-0.585143 5.339429-1.609143 10.678857-1.024 5.266286-2.633143 10.386286-1.536 5.12-3.657143 10.166857-2.048 4.973714-4.534857 9.728-2.56 4.754286-5.558857 9.216-2.925714 4.534857-6.436572 8.704-3.364571 4.169143-7.168 7.972572zM287.012571 443.245714L64.073143 220.452571 219.282286 65.243429l222.939428 222.866285-155.209143 155.209143z m155.209143-155.062857q3.803429 3.730286 7.168 7.899429 3.437714 4.169143 6.436572 8.704 2.998857 4.388571 5.558857 9.216 2.486857 4.754286 4.608 9.728 2.048 4.973714 3.657143 10.166857 1.462857 5.12 2.56 10.386286 1.024 5.339429 1.609143 10.678857 0.512 5.339429 0.512 10.752t-0.512 10.752q-0.585143 5.339429-1.609143 10.678857-1.024 5.266286-2.633143 10.386286-1.536 5.12-3.657143 10.166857-2.048 4.973714-4.534857 9.728-2.56 4.754286-5.558857 9.216-2.925714 4.534857-6.436572 8.704-3.364571 4.169143-7.168 7.972571-3.876571 3.803429-8.045714 7.241143-4.169143 3.364571-8.630857 6.363429-4.461714 2.998857-9.216 5.558857-4.754286 2.56-9.728 4.608-4.973714 2.048-10.166857 3.657143-5.12 1.462857-10.386286 2.56-5.339429 1.097143-10.678857 1.609142-5.339429 0.512-10.752 0.512t-10.752-0.512q-5.339429-0.512-10.678857-1.609142-5.266286-1.024-10.459429-2.633143-5.12-1.536-10.093714-3.657143-4.973714-1.974857-9.728-4.534857t-9.216-5.558857q-4.534857-2.925714-8.704-6.363429-4.169143-3.437714-7.972572-7.314286-3.803429-3.730286-7.241142-7.899428-3.364571-4.169143-6.363429-8.704-2.998857-4.388571-5.558857-9.216-2.56-4.754286-4.608-9.728-2.048-4.973714-3.657143-10.166857-1.462857-5.12-2.56-10.386286-1.097143-5.339429-1.609143-10.678857-0.512-5.339429-0.512-10.752t0.512-10.752q0.512-5.339429 1.609143-10.678857 1.024-5.266286 2.56-10.386286 1.609143-5.193143 3.657143-10.166857 2.048-4.973714 4.608-9.728t5.558857-9.216q2.925714-4.534857 6.363429-8.704 3.437714-4.169143 7.314285-7.972572 3.730286-3.803429 7.899429-7.241143 4.169143-3.364571 8.704-6.363428 4.388571-2.998857 9.216-5.558857 4.754286-2.56 9.728-4.608 4.973714-2.048 10.093714-3.657143 5.193143-1.462857 10.459429-2.56 5.339429-1.097143 10.678857-1.609143 5.339429-0.512 10.752-0.512t10.752 0.512q5.339429 0.512 10.605714 1.609143 5.339429 1.024 10.459429 2.633143 5.12 1.536 10.166857 3.657143 4.973714 1.974857 9.728 4.534857t9.216 5.558857q4.461714 2.925714 8.630857 6.363428 4.169143 3.437714 8.045714 7.314286zM219.282286 65.170286q3.803429 3.803429 7.241143 7.972571 3.364571 4.169143 6.363428 8.630857 2.998857 4.461714 5.558857 9.216 2.56 4.754286 4.608 9.728 2.048 4.973714 3.657143 10.166857 1.462857 5.12 2.56 10.459429 1.097143 5.266286 1.609143 10.605714 0.512 5.412571 0.512 10.752 0 5.412571-0.512 10.752-0.512 5.412571-1.609143 10.678857-1.024 5.266286-2.56 10.459429-1.609143 5.12-3.657143 10.093714-2.048 4.973714-4.608 9.728t-5.558857 9.289143q-2.925714 4.388571-6.363428 8.630857-3.437714 4.169143-7.314286 7.972572-3.730286 3.803429-7.899429 7.241143-4.169143 3.437714-8.704 6.363428-4.388571 2.998857-9.216 5.558857-4.754286 2.56-9.728 4.608-4.973714 2.048-10.093714 3.657143-5.193143 1.536-10.459429 2.56-5.339429 1.097143-10.678857 1.609143-5.339429 0.512-10.752 0.512t-10.752-0.512q-5.339429-0.512-10.605714-1.609143-5.339429-1.024-10.459429-2.56-5.12-1.609143-10.166857-3.657143-4.973714-2.048-9.728-4.608T80.749714 234.057143q-4.461714-2.925714-8.630857-6.363429-4.169143-3.437714-8.045714-7.314285-3.803429-3.730286-7.168-7.899429Q53.394286 208.237714 50.468571 203.776q-2.998857-4.534857-5.558857-9.289143-2.486857-4.754286-4.608-9.728-2.048-4.973714-3.657143-10.093714-1.462857-5.12-2.56-10.459429-1.024-5.266286-1.609142-10.678857-0.512-5.339429-0.512-10.752 0-5.339429 0.512-10.752 0.585143-5.339429 1.609142-10.605714 1.024-5.339429 2.633143-10.459429 1.536-5.12 3.657143-10.166857 2.048-4.973714 4.534857-9.728Q47.542857 86.308571 50.468571 81.92 53.394286 77.385143 56.905143 73.142857 60.269714 69.046857 64.073143 65.097143 68.022857 61.44 72.118857 58.075429q4.169143-3.437714 8.630857-6.436572 4.461714-2.925714 9.216-5.558857 4.754286-2.486857 9.728-4.608 4.973714-2.048 10.166857-3.657143 5.12-1.462857 10.459429-2.56 5.266286-1.024 10.605714-1.609143 5.339429-0.512 10.752-0.512t10.752 0.512q5.339429 0.585143 10.678857 1.609143 5.266286 1.024 10.459429 2.633143 5.12 1.536 10.093714 3.657143 4.973714 2.048 9.728 4.534857 4.754286 2.56 9.216 5.558857 4.534857 2.998857 8.704 6.436572 4.169143 3.364571 7.972572 7.241142z" fill="#414141" p-id="6875"></path></svg>