<?xml version="1.0" standalone="no"?><!DOCTYPE svg PUBLIC "-//W3C//DTD SVG 1.1//EN" "http://www.w3.org/Graphics/SVG/1.1/DTD/svg11.dtd"><svg t="1645017884632" class="icon" viewBox="0 0 1024 1024" version="1.1" xmlns="http://www.w3.org/2000/svg" p-id="5878" xmlns:xlink="http://www.w3.org/1999/xlink" width="200" height="200"><defs><style type="text/css"></style></defs><path d="M765.732571 723.236571a253.732571 253.732571 0 1 1-507.465142 0 253.732571 253.732571 0 0 1 507.465142 0z m-84.553142 0q0-70.070857-49.590858-119.588571Q582.070857 554.057143 512 554.057143t-119.588571 49.590857q-49.590857 49.517714-49.590858 119.588571t49.590858 119.588572Q441.929143 892.342857 512 892.342857t119.588571-49.517714q49.590857-49.517714 49.590858-119.588572z" fill="#414141" p-id="5879"></path><path d="M566.857143 103.716571v391.314286h-109.714286v-391.314286h109.714286z m0 0q0 5.412571-1.024 10.752-1.097143 5.266286-3.145143 10.24-2.048 4.973714-5.12 9.508572-2.925714 4.461714-6.802286 8.338286-3.803429 3.803429-8.265143 6.802285-4.534857 2.925714-9.508571 5.12-4.973714 1.974857-10.24 3.072-5.339429 1.024-10.752 1.024t-10.678857-1.024q-5.339429-1.097143-10.313143-3.145143-4.973714-2.048-9.508571-5.12-4.461714-2.925714-8.265143-6.729142-3.876571-3.876571-6.875429-8.338286-2.925714-4.534857-5.046857-9.508572-2.048-4.973714-3.145143-10.24-1.024-5.339429-1.024-10.752t1.024-10.678857q1.097143-5.339429 3.145143-10.24 2.048-5.12 5.12-9.508571 2.925714-4.534857 6.802286-8.338286 3.803429-3.803429 8.265143-6.802286 4.534857-2.998857 9.508571-5.12 4.973714-2.048 10.24-3.072Q506.660571 48.859429 512 48.859429t10.678857 1.097142q5.339429 1.024 10.313143 3.072 4.973714 2.121143 9.508571 5.12 4.461714 2.925714 8.265143 6.802286 3.876571 3.803429 6.875429 8.338286 2.925714 4.388571 5.046857 9.508571 2.048 4.900571 3.145143 10.24 1.024 5.266286 1.024 10.678857z m0 391.314286q0 5.339429-1.024 10.678857-1.097143 5.266286-3.145143 10.24-2.048 5.046857-5.12 9.508572-2.925714 4.461714-6.802286 8.338285-3.803429 3.803429-8.265143 6.802286-4.534857 2.925714-9.508571 5.12-4.973714 1.974857-10.24 3.072-5.339429 1.024-10.752 1.024t-10.678857-1.024q-5.339429-1.097143-10.313143-3.145143-4.973714-2.048-9.508571-5.12-4.461714-2.925714-8.265143-6.729143-3.876571-3.876571-6.875429-8.338285-2.925714-4.461714-5.046857-9.508572-2.048-4.973714-3.145143-10.24-1.024-5.339429-1.024-10.752t1.024-10.678857q1.097143-5.339429 3.145143-10.24 2.048-5.046857 5.12-9.508571 2.925714-4.534857 6.802286-8.338286 3.803429-3.803429 8.265143-6.802286 4.534857-2.998857 9.508571-5.12 4.973714-2.048 10.24-3.072 5.339429-1.097143 10.752-1.097143t10.678857 1.097143q5.339429 1.024 10.313143 3.072 4.973714 2.121143 9.508571 5.12 4.461714 2.925714 8.265143 6.802286 3.876571 3.803429 6.875429 8.338286 2.925714 4.461714 5.046857 9.508571 2.048 4.900571 3.145143 10.24 1.024 5.266286 1.024 10.678857z" fill="#414141" p-id="5880"></path><path d="M645.851429 354.230857H585.142857v-109.714286h60.708572v109.714286z m0-145.92H585.142857v-109.714286h60.708572v109.714286z m54.857142 91.062857q0 5.412571-1.097142 10.678857-1.024 5.266286-3.072 10.24-2.121143 5.046857-5.12 9.508572-2.925714 4.534857-6.802286 8.338286-3.803429 3.803429-8.338286 6.802285-4.461714 2.998857-9.508571 5.12-4.973714 2.048-10.24 3.072-5.266286 1.097143-10.678857 1.097143t-10.752-1.097143q-5.266286-1.024-10.24-3.072-5.046857-2.121143-9.508572-5.12-4.461714-2.925714-8.338286-6.802285-3.803429-3.803429-6.802285-8.338286-2.925714-4.461714-5.12-9.508572-1.974857-4.973714-3.072-10.24-1.024-5.266286-1.024-10.678857t1.024-10.752q1.097143-5.266286 3.145143-10.24 2.048-5.046857 5.12-9.508571 2.925714-4.461714 6.729142-8.338286 3.876571-3.803429 8.338286-6.802286 4.461714-2.925714 9.508572-5.12 4.973714-1.974857 10.24-3.072 5.339429-1.024 10.752-1.024t10.678857 1.024q5.266286 1.097143 10.24 3.145143 5.046857 2.048 9.508571 5.12 4.534857 2.925714 8.338286 6.729143 3.803429 3.876571 6.802286 8.338286 2.998857 4.461714 5.12 9.508571 2.048 4.973714 3.072 10.24 1.097143 5.339429 1.097142 10.752z m-60.708571 0q0 5.412571-1.024 10.678857-1.097143 5.266286-3.145143 10.24-2.048 5.046857-5.12 9.508572-2.925714 4.534857-6.802286 8.338286-3.803429 3.803429-8.265142 6.802285-4.534857 2.998857-9.508572 5.12-4.973714 2.048-10.24 3.072-5.339429 1.097143-10.752 1.097143t-10.678857-1.097143q-5.339429-1.024-10.313143-3.072-4.973714-2.121143-9.508571-5.12-4.461714-2.925714-8.265143-6.802285-3.876571-3.803429-6.875429-8.338286-2.925714-4.461714-5.046857-9.508572-2.048-4.973714-3.145143-10.24-1.024-5.266286-1.024-10.678857t1.024-10.752q1.097143-5.266286 3.145143-10.24 2.048-5.046857 5.12-9.508571 2.925714-4.461714 6.802286-8.338286 3.803429-3.803429 8.265143-6.802286 4.534857-2.925714 9.508571-5.12 4.973714-1.974857 10.24-3.072 5.339429-1.024 10.752-1.024t10.678857 1.024q5.339429 1.097143 10.313143 3.145143 4.973714 2.048 9.508572 5.12 4.461714 2.925714 8.265142 6.729143 3.876571 3.876571 6.875429 8.338286 2.925714 4.461714 5.046857 9.508571 2.048 4.973714 3.145143 10.24 1.024 5.339429 1.024 10.752z m60.708571-145.92q0 5.412571-1.097142 10.678857-1.024 5.339429-3.072 10.313143-2.121143 4.973714-5.12 9.508572-2.925714 4.461714-6.802286 8.265143-3.803429 3.876571-8.338286 6.875428-4.461714 2.925714-9.508571 5.12-4.973714 1.974857-10.24 3.072-5.266286 1.024-10.678857 1.024t-10.752-1.024q-5.266286-1.097143-10.24-3.145143-5.046857-2.048-9.508572-5.12-4.461714-2.925714-8.338286-6.802285-3.803429-3.803429-6.802285-8.265143-2.925714-4.534857-5.12-9.508572-1.974857-4.973714-3.072-10.24-1.024-5.339429-1.024-10.752t1.024-10.678857q1.097143-5.339429 3.145143-10.24 2.048-5.12 5.12-9.508571 2.925714-4.534857 6.729142-8.338286 3.876571-3.803429 8.338286-6.802286 4.461714-2.998857 9.508572-5.12 4.973714-2.048 10.24-3.072 5.339429-1.097143 10.752-1.097143t10.678857 1.097143q5.266286 1.024 10.24 3.072 5.046857 2.121143 9.508571 5.12 4.534857 2.925714 8.338286 6.802286 3.803429 3.803429 6.802286 8.265143 2.998857 4.534857 5.12 9.508571 2.048 4.973714 3.072 10.24 1.097143 5.339429 1.097142 10.752z m-60.708571 0q0 5.412571-1.024 10.678857-1.097143 5.339429-3.145143 10.313143-2.048 4.973714-5.12 9.508572-2.925714 4.461714-6.802286 8.265143-3.803429 3.876571-8.265142 6.875428-4.534857 2.925714-9.508572 5.12-4.973714 1.974857-10.24 3.072-5.339429 1.024-10.752 1.024t-10.678857-1.024q-5.339429-1.097143-10.313143-3.145143-4.973714-2.048-9.508571-5.12-4.461714-2.925714-8.265143-6.802285-3.876571-3.803429-6.875429-8.265143-2.925714-4.534857-5.046857-9.508572-2.048-4.973714-3.145143-10.24-1.024-5.339429-1.024-10.752t1.024-10.678857q1.097143-5.339429 3.145143-10.24 2.048-5.12 5.12-9.508571 2.925714-4.534857 6.802286-8.338286 3.803429-3.803429 8.265143-6.802286 4.534857-2.998857 9.508571-5.12 4.973714-2.048 10.24-3.072 5.339429-1.097143 10.752-1.097143t10.678857 1.097143q5.339429 1.024 10.313143 3.072 4.973714 2.121143 9.508572 5.12 4.461714 2.925714 8.265142 6.802286 3.876571 3.803429 6.875429 8.265143 2.925714 4.534857 5.046857 9.508571 2.048 4.973714 3.145143 10.24 1.024 5.339429 1.024 10.752z" fill="#FF6C1C" p-id="5881"></path></svg>