<?xml version="1.0" standalone="no"?><!DOCTYPE svg PUBLIC "-//W3C//DTD SVG 1.1//EN" "http://www.w3.org/Graphics/SVG/1.1/DTD/svg11.dtd"><svg t="1645017794692" class="icon" viewBox="0 0 1024 1024" version="1.1" xmlns="http://www.w3.org/2000/svg" p-id="3924" xmlns:xlink="http://www.w3.org/1999/xlink" width="200" height="200"><defs><style type="text/css"></style></defs><path d="M627.858286 396.068571a115.858286 115.858286 0 1 1-231.716572 0 115.858286 115.858286 0 0 1 231.716572 0z" fill="#FF6C1C" p-id="3925"></path><path d="M510.537143 1008.420571c-181.686857 0-362.349714-506.075429-362.349714-655.433142 0-149.430857 196.754286-337.408 367.542857-337.408 170.788571 0 360.082286 187.977143 360.082285 337.408 0 149.357714-187.392 655.36-365.275428 655.36zM257.901714 352.987429q0 42.349714 26.697143 134.948571 30.134857 104.228571 76.068572 202.313143 49.810286 106.642286 100.059428 165.522286 22.454857 26.331429 40.740572 37.888 5.12 3.218286 8.777142 4.534857 3.291429-1.316571 8.045715-4.388572 18.285714-11.629714 40.96-38.180571 50.688-59.245714 101.595428-166.034286 46.884571-98.596571 77.750857-202.459428 27.501714-92.525714 27.501715-134.144 0-66.925714-82.066286-145.408-86.016-82.285714-168.228571-82.285715-83.675429 0-173.129143 83.309715-41.472 38.546286-64.804572 81.188571-19.968 36.571429-19.968 63.195429z" fill="#414141" p-id="3926"></path></svg>