<?xml version="1.0" standalone="no"?><!DOCTYPE svg PUBLIC "-//W3C//DTD SVG 1.1//EN" "http://www.w3.org/Graphics/SVG/1.1/DTD/svg11.dtd"><svg t="1645017787282" class="icon" viewBox="0 0 1024 1024" version="1.1" xmlns="http://www.w3.org/2000/svg" p-id="3784" xmlns:xlink="http://www.w3.org/1999/xlink" width="200" height="200"><defs><style type="text/css"></style></defs><path d="M22.454857 169.398857a146.285714 146.285714 0 0 1 146.285714-146.285714h186.953143a146.285714 146.285714 0 0 1 146.285715 146.285714v182.564572a146.285714 146.285714 0 0 1-146.285715 146.285714H168.740571a146.285714 146.285714 0 0 1-146.285714-146.285714V169.398857z m109.714286 0v182.564572q0 15.140571 10.678857 25.819428 10.752 10.752 25.892571 10.752h186.953143q15.140571 0 25.819429-10.752 10.752-10.678857 10.752-25.819428V169.398857q0-15.213714-10.752-25.892571-10.678857-10.678857-25.819429-10.678857H168.740571q-15.140571 0-25.892571 10.678857-10.678857 10.678857-10.678857 25.892571zM527.798857 169.398857a146.285714 146.285714 0 0 1 146.285714-146.285714h186.953143a146.285714 146.285714 0 0 1 146.285715 146.285714v182.564572a146.285714 146.285714 0 0 1-146.285715 146.285714H674.084571a146.285714 146.285714 0 0 1-146.285714-146.285714V169.398857z m109.714286 0v182.564572q0 15.140571 10.678857 25.819428 10.752 10.752 25.892571 10.752h186.953143q15.140571 0 25.819429-10.752 10.752-10.678857 10.752-25.819428V169.398857q0-15.213714-10.752-25.892571-10.678857-10.678857-25.819429-10.678857H674.084571q-15.140571 0-25.892571 10.678857-10.678857 10.678857-10.678857 25.892571zM22.454857 672.621714a146.285714 146.285714 0 0 1 146.285714-146.285714h186.953143a146.285714 146.285714 0 0 1 146.285715 146.285714v182.564572a146.285714 146.285714 0 0 1-146.285715 146.285714H168.740571a146.285714 146.285714 0 0 1-146.285714-146.285714V672.621714z m109.714286 0v182.564572q0 15.140571 10.678857 25.819428 10.752 10.752 25.892571 10.752h186.953143q15.140571 0 25.819429-10.752 10.752-10.678857 10.752-25.819428V672.621714q0-15.140571-10.752-25.892571-10.678857-10.678857-25.819429-10.678857H168.740571q-15.140571 0-25.892571 10.678857-10.678857 10.752-10.678857 25.892571z" fill="#414141" p-id="3785"></path><path d="M934.985143 772.608L561.810286 633.709714l19.163428-51.419428h54.857143v363.154285h-54.857143v-54.857142h373.174857v54.857142h-54.857142V721.188571h54.857142l-19.163428 51.419429z m38.253714-102.838857q7.899429 2.925714 14.555429 8.045714 6.582857 5.193143 11.410285 12.068572 4.754286 6.948571 7.314286 14.921142 2.486857 8.045714 2.486857 16.384v224.256q0 5.412571-1.097143 10.678858-1.024 5.339429-3.072 10.24-2.121143 5.12-5.12 9.508571-2.925714 4.534857-6.802285 8.338286-3.803429 3.803429-8.338286 6.875428-4.388571 2.925714-9.508571 5.046857-4.900571 2.048-10.24 3.072-5.266286 1.097143-10.678858 1.097143H580.973714q-5.412571 0-10.678857-1.097143-5.339429-1.024-10.313143-3.072-4.973714-2.048-9.508571-5.12-4.461714-2.925714-8.265143-6.802285-3.876571-3.803429-6.875429-8.265143-2.925714-4.534857-5.046857-9.508572-2.048-4.973714-3.145143-10.24-1.024-5.339429-1.024-10.752V582.217143q0-9.874286 3.437715-19.090286 1.901714-5.12 4.754285-9.654857 2.779429-4.608 6.509715-8.557714 3.657143-3.949714 8.045714-7.168 4.388571-3.145143 9.289143-5.412572 4.900571-2.194286 10.166857-3.437714 5.266286-1.243429 10.678857-1.462857 5.412571-0.219429 10.678857 0.658286 5.339429 0.877714 10.459429 2.706285l373.101714 138.971429z" fill="#FF6C1C" p-id="3786"></path></svg>