<?xml version="1.0" standalone="no"?><!DOCTYPE svg PUBLIC "-//W3C//DTD SVG 1.1//EN" "http://www.w3.org/Graphics/SVG/1.1/DTD/svg11.dtd"><svg t="1645017955949" class="icon" viewBox="0 0 1024 1024" version="1.1" xmlns="http://www.w3.org/2000/svg" p-id="7298" xmlns:xlink="http://www.w3.org/1999/xlink" width="200" height="200"><defs><style type="text/css"></style></defs><path d="M883.712 846.043429H140.214857v-109.714286h743.497143v109.714286z m0-188.489143H392.338286v-109.714286h491.373714v109.714286z m0-195.510857H392.338286v-109.714286h491.373714v109.714286z m0-174.372572H140.214857v-109.714286h743.497143v109.714286z m54.857143 503.515429q0 5.412571-1.024 10.678857t-3.145143 10.24q-2.048 5.046857-5.046857 9.508571-2.925714 4.534857-6.802286 8.338286-3.803429 3.803429-8.338286 6.802286-4.461714 2.998857-9.508571 5.12-4.973714 2.048-10.24 3.072-5.339429 1.097143-10.752 1.097143-5.339429 0-10.678857-1.097143-5.266286-1.024-10.24-3.072-5.046857-2.121143-9.508572-5.12-4.534857-2.925714-8.338285-6.802286-3.803429-3.803429-6.802286-8.338286-2.998857-4.461714-5.12-9.508571-2.048-4.973714-3.072-10.24-1.024-5.266286-1.024-10.678857t1.024-10.752q1.024-5.266286 3.145143-10.24 2.048-5.046857 5.046857-9.508572 2.998857-4.461714 6.802286-8.338285 3.803429-3.803429 8.338285-6.802286 4.461714-2.998857 9.508572-5.12 4.973714-2.048 10.24-3.072 5.339429-1.024 10.678857-1.024 5.412571 0 10.752 1.024 5.266286 1.024 10.24 3.145143 5.046857 2.048 9.508571 5.046857 4.534857 2.998857 8.338286 6.802286 3.803429 3.876571 6.802286 8.338285 2.998857 4.461714 5.12 9.508572 2.048 4.973714 3.072 10.24 1.024 5.339429 1.024 10.752z m-743.497143 0q0 5.412571-1.024 10.678857t-3.145143 10.24q-2.048 5.046857-5.046857 9.508571-2.998857 4.534857-6.802286 8.338286-3.803429 3.803429-8.338285 6.802286-4.461714 2.998857-9.508572 5.12-4.973714 2.048-10.24 3.072-5.339429 1.097143-10.752 1.097143-5.339429 0-10.678857-1.097143-5.266286-1.024-10.24-3.072-5.046857-2.121143-9.508571-5.12-4.534857-2.925714-8.338286-6.802286-3.803429-3.803429-6.802286-8.338286-2.998857-4.461714-5.12-9.508571-2.048-4.973714-3.072-10.24-1.097143-5.266286-1.097143-10.678857t1.097143-10.752q1.024-5.266286 3.145143-10.24 2.048-5.046857 5.046857-9.508572 2.925714-4.461714 6.802286-8.338285 3.803429-3.803429 8.338286-6.802286 4.461714-2.998857 9.508571-5.12 4.973714-2.048 10.24-3.072 5.339429-1.024 10.678857-1.024 5.412571 0 10.752 1.024 5.266286 1.024 10.24 3.145143 5.046857 2.048 9.508572 5.046857 4.534857 2.998857 8.338285 6.802286 3.803429 3.876571 6.802286 8.338285 2.998857 4.461714 5.12 9.508572 2.048 4.973714 3.072 10.24 1.024 5.339429 1.024 10.752zM938.569143 602.697143q0 5.412571-1.024 10.752-1.024 5.266286-3.145143 10.24-2.048 4.973714-5.046857 9.508571-2.925714 4.461714-6.802286 8.338286-3.803429 3.803429-8.338286 6.802286-4.461714 2.925714-9.508571 5.12-4.973714 1.974857-10.24 3.072-5.339429 1.024-10.752 1.024-5.339429 0-10.678857-1.024-5.266286-1.097143-10.24-3.145143-5.046857-2.048-9.508572-5.12-4.534857-2.925714-8.338285-6.729143-3.803429-3.876571-6.802286-8.338286-2.998857-4.534857-5.12-9.508571-2.048-4.973714-3.072-10.24-1.024-5.339429-1.024-10.752t1.024-10.678857q1.024-5.339429 3.145143-10.24 2.048-5.046857 5.046857-9.508572 2.998857-4.534857 6.802286-8.338285 3.803429-3.803429 8.338285-6.802286 4.461714-2.998857 9.508572-5.12 4.973714-2.048 10.24-3.072 5.339429-1.097143 10.678857-1.097143 5.412571 0 10.752 1.097143 5.266286 1.024 10.24 3.072 5.046857 2.121143 9.508571 5.12 4.534857 2.925714 8.338286 6.802286 3.803429 3.803429 6.802286 8.338285 2.998857 4.461714 5.12 9.508572 2.048 4.900571 3.072 10.24 1.024 5.266286 1.024 10.678857z m-491.373714 0q0 5.412571-1.024 10.752-1.097143 5.266286-3.145143 10.24-2.048 4.973714-5.12 9.508571-2.925714 4.461714-6.802286 8.338286-3.803429 3.803429-8.265143 6.802286-4.534857 2.925714-9.508571 5.12-4.973714 1.974857-10.24 3.072-5.339429 1.024-10.752 1.024t-10.678857-1.024q-5.339429-1.097143-10.313143-3.145143-4.973714-2.048-9.508572-5.12-4.461714-2.925714-8.265143-6.729143-3.876571-3.876571-6.875428-8.338286-2.925714-4.534857-5.046857-9.508571-2.048-4.973714-3.145143-10.24-1.024-5.339429-1.024-10.752t1.024-10.678857q1.097143-5.339429 3.145143-10.24 2.048-5.046857 5.12-9.508572 2.925714-4.534857 6.802285-8.338285 3.803429-3.803429 8.265143-6.802286 4.534857-2.998857 9.508572-5.12 4.973714-2.048 10.24-3.072 5.339429-1.097143 10.752-1.097143t10.678857 1.097143q5.339429 1.024 10.313143 3.072 4.973714 2.121143 9.508571 5.12 4.461714 2.925714 8.265143 6.802286 3.876571 3.803429 6.875429 8.338285 2.925714 4.461714 5.046857 9.508572 2.048 4.900571 3.145143 10.24 1.024 5.266286 1.024 10.678857z m491.373714-195.510857q0 5.412571-1.024 10.752-1.024 5.266286-3.145143 10.24-2.048 5.046857-5.046857 9.508571-2.925714 4.461714-6.802286 8.338286-3.803429 3.803429-8.338286 6.802286-4.461714 2.925714-9.508571 5.12-4.973714 1.974857-10.24 3.072-5.339429 1.024-10.752 1.024-5.339429 0-10.678857-1.024-5.266286-1.097143-10.24-3.145143-5.046857-2.048-9.508572-5.12-4.534857-2.925714-8.338285-6.729143-3.803429-3.876571-6.802286-8.338286-2.998857-4.461714-5.12-9.508571-2.048-4.973714-3.072-10.24-1.024-5.339429-1.024-10.752t1.024-10.678857q1.024-5.266286 3.145143-10.24 2.048-5.046857 5.046857-9.508572 2.998857-4.534857 6.802286-8.338286 3.803429-3.803429 8.338285-6.802285 4.461714-2.998857 9.508572-5.12 4.973714-2.048 10.24-3.072 5.339429-1.097143 10.678857-1.097143 5.412571 0 10.752 1.097143 5.266286 1.024 10.24 3.072 5.046857 2.121143 9.508571 5.12 4.534857 2.925714 8.338286 6.802285 3.803429 3.803429 6.802286 8.338286 2.998857 4.461714 5.12 9.508572 2.048 4.973714 3.072 10.24 1.024 5.266286 1.024 10.678857z m-491.373714 0q0 5.412571-1.024 10.752-1.097143 5.266286-3.145143 10.24-2.048 5.046857-5.12 9.508571-2.925714 4.461714-6.802286 8.338286-3.803429 3.803429-8.265143 6.802286-4.534857 2.925714-9.508571 5.12-4.973714 1.974857-10.24 3.072-5.339429 1.024-10.752 1.024t-10.678857-1.024q-5.339429-1.097143-10.313143-3.145143-4.973714-2.048-9.508572-5.12-4.461714-2.925714-8.265143-6.729143-3.876571-3.876571-6.875428-8.338286-2.925714-4.461714-5.046857-9.508571-2.048-4.973714-3.145143-10.24-1.024-5.339429-1.024-10.752t1.024-10.678857q1.097143-5.266286 3.145143-10.24 2.048-5.046857 5.12-9.508572 2.925714-4.534857 6.802285-8.338286 3.803429-3.803429 8.265143-6.802285 4.534857-2.998857 9.508572-5.12 4.973714-2.048 10.24-3.072 5.339429-1.097143 10.752-1.097143t10.678857 1.097143q5.339429 1.024 10.313143 3.072 4.973714 2.121143 9.508571 5.12 4.461714 2.925714 8.265143 6.802285 3.876571 3.803429 6.875429 8.338286 2.925714 4.461714 5.046857 9.508572 2.048 4.973714 3.145143 10.24 1.024 5.266286 1.024 10.678857z m491.373714-174.372572q0 5.412571-1.024 10.752-1.024 5.266286-3.145143 10.24-2.048 5.046857-5.046857 9.508572-2.925714 4.461714-6.802286 8.338285-3.803429 3.803429-8.338286 6.802286-4.461714 2.998857-9.508571 5.12-4.973714 1.974857-10.24 3.072-5.339429 1.024-10.752 1.024-5.339429 0-10.678857-1.024-5.266286-1.097143-10.24-3.145143-5.046857-2.048-9.508572-5.12-4.534857-2.925714-8.338285-6.729143-3.803429-3.876571-6.802286-8.338285-2.998857-4.461714-5.12-9.508572-2.048-4.973714-3.072-10.24-1.024-5.339429-1.024-10.752t1.024-10.678857q1.024-5.266286 3.145143-10.24 2.048-5.046857 5.046857-9.508571 2.998857-4.534857 6.802286-8.338286 3.803429-3.803429 8.338285-6.802286 4.461714-2.998857 9.508572-5.12 4.973714-2.048 10.24-3.072 5.339429-1.097143 10.678857-1.097143 5.412571 0 10.752 1.097143 5.266286 1.024 10.24 3.072 5.046857 2.121143 9.508571 5.12 4.534857 2.925714 8.338286 6.802286 3.803429 3.803429 6.802286 8.338286 2.998857 4.461714 5.12 9.508571 2.048 4.973714 3.072 10.24 1.024 5.266286 1.024 10.678857z m-743.497143 0q0 5.412571-1.024 10.752-1.024 5.266286-3.145143 10.24-2.048 5.046857-5.046857 9.508572-2.998857 4.461714-6.802286 8.338285-3.803429 3.803429-8.338285 6.802286-4.461714 2.998857-9.508572 5.12-4.973714 1.974857-10.24 3.072-5.339429 1.024-10.752 1.024-5.339429 0-10.678857-1.024-5.266286-1.097143-10.24-3.145143-5.046857-2.048-9.508571-5.12-4.534857-2.925714-8.338286-6.729143-3.803429-3.876571-6.802286-8.338285-2.998857-4.461714-5.12-9.508572-2.048-4.973714-3.072-10.24-1.097143-5.339429-1.097143-10.752t1.097143-10.678857q1.024-5.266286 3.145143-10.24 2.048-5.046857 5.046857-9.508571 2.925714-4.534857 6.802286-8.338286 3.803429-3.803429 8.338286-6.802286 4.461714-2.998857 9.508571-5.12 4.973714-2.048 10.24-3.072 5.339429-1.097143 10.678857-1.097143 5.412571 0 10.752 1.097143 5.266286 1.024 10.24 3.072 5.046857 2.121143 9.508572 5.12 4.534857 2.925714 8.338285 6.802286 3.803429 3.803429 6.802286 8.338286 2.998857 4.461714 5.12 9.508571 2.048 4.973714 3.072 10.24 1.024 5.266286 1.024 10.678857z" fill="#414141" p-id="7299"></path><path d="M299.885714 689.444571a14.628571 14.628571 0 0 0 23.844572-11.702857l-6.582857-336.164571a14.628571 14.628571 0 0 0-24.283429-10.752l-195.291429 172.105143a14.628571 14.628571 0 0 0 0.438858 22.308571L299.885714 689.444571z" fill="#FF6C1C" p-id="7300"></path></svg>