<?xml version="1.0" standalone="no"?><!DOCTYPE svg PUBLIC "-//W3C//DTD SVG 1.1//EN" "http://www.w3.org/Graphics/SVG/1.1/DTD/svg11.dtd"><svg t="1645017994626" class="icon" viewBox="0 0 1024 1024" version="1.1" xmlns="http://www.w3.org/2000/svg" p-id="7997" xmlns:xlink="http://www.w3.org/1999/xlink" width="200" height="200"><defs><style type="text/css"></style></defs><path d="M235.446857 638.683429h566.491429v341.284571H235.52V638.683429z m109.714286 109.714285v121.856h347.062857v-121.856H345.234286z" fill="#414141" p-id="7998"></path><path d="M712.265143 296.228571V89.819429h54.857143v54.857142H278.966857v-54.857142h54.857143v206.555428h-109.714286V34.889143h597.869715v261.412571h-109.714286z" fill="#414141" p-id="7999"></path><path d="M821.540571 418.230857a47.835429 47.835429 0 1 1-95.670857-0.073143 47.835429 47.835429 0 0 1 95.670857 0.073143z" fill="#FF6C1C" p-id="8000"></path><path d="M806.253714 700.123429h136.265143v54.857142h-54.857143v-471.04h54.857143v54.857143H86.381714v-54.857143h54.857143v471.04h-54.857143v-54.857142h155.794286v109.714285H86.308571q-5.412571 0-10.752-1.024-5.266286-1.097143-10.24-3.145143-5.046857-2.048-9.508571-5.12-4.461714-2.925714-8.338286-6.729142-3.803429-3.876571-6.802285-8.338286-2.998857-4.534857-5.12-9.508572-2.048-4.973714-3.072-10.24-1.024-5.339429-1.024-10.752v-471.04q0-5.339429 1.024-10.678857 1.024-5.266286 3.145142-10.24 2.048-5.046857 5.12-9.508571 2.925714-4.534857 6.729143-8.338286 3.876571-3.803429 8.338286-6.802286 4.461714-2.998857 9.508571-5.12 4.973714-2.048 10.24-3.072 5.339429-1.097143 10.752-1.097142h856.137143q5.412571 0 10.752 1.097142 5.266286 1.024 10.24 3.072 4.973714 2.121143 9.508572 5.12 4.461714 2.925714 8.338285 6.802286 3.803429 3.803429 6.802286 8.338286 2.925714 4.461714 5.12 9.508571 1.974857 4.973714 3.072 10.24 1.024 5.339429 1.024 10.678857v471.04q0 5.412571-1.024 10.678858-1.097143 5.339429-3.145143 10.313142-2.048 4.973714-5.12 9.508572-2.925714 4.461714-6.729143 8.338286-3.876571 3.803429-8.338285 6.802285-4.534857 2.925714-9.508572 5.12-4.973714 1.974857-10.24 3.072-5.339429 1.024-10.752 1.024h-136.265143v-109.714285z m54.857143 54.857142q0 5.412571-1.024 10.678858-1.097143 5.339429-3.145143 10.313142-2.048 4.973714-5.12 9.508572-2.925714 4.461714-6.729143 8.338286-3.876571 3.803429-8.338285 6.802285-4.461714 2.925714-9.508572 5.12-4.973714 1.974857-10.24 3.072-5.339429 1.024-10.752 1.024t-10.678857-1.024q-5.339429-1.097143-10.24-3.145143-5.046857-2.048-9.508571-5.12-4.534857-2.925714-8.338286-6.729142-3.803429-3.876571-6.802286-8.338286-2.998857-4.534857-5.12-9.508572-2.048-4.973714-3.072-10.24-1.097143-5.339429-1.097143-10.752t1.097143-10.678857q1.024-5.339429 3.072-10.24 2.121143-5.12 5.12-9.508571 2.925714-4.534857 6.802286-8.338286 3.803429-3.803429 8.338286-6.802286 4.461714-2.998857 9.508571-5.12 4.900571-2.048 10.24-3.072 5.266286-1.097143 10.678857-1.097142t10.752 1.097142q5.266286 1.024 10.24 3.072 5.046857 2.121143 9.508572 5.12 4.461714 2.925714 8.338285 6.802286 3.803429 3.803429 6.802286 8.265143 2.925714 4.534857 5.12 9.508571 1.974857 4.973714 3.072 10.24 1.024 5.339429 1.024 10.752z m-564.077714 0q0 5.412571-1.097143 10.678858-1.024 5.339429-3.145143 10.313142-2.048 4.973714-5.046857 9.508572-2.925714 4.461714-6.802286 8.338286-3.803429 3.803429-8.338285 6.802285-4.461714 2.925714-9.508572 5.12-4.973714 1.974857-10.24 3.072-5.339429 1.024-10.678857 1.024-5.412571 0-10.752-1.024-5.266286-1.097143-10.24-3.145143-5.046857-2.048-9.508571-5.12-4.534857-2.925714-8.338286-6.729142-3.803429-3.876571-6.802286-8.338286-2.998857-4.534857-5.12-9.508572-2.048-4.973714-3.072-10.24-1.024-5.339429-1.024-10.752t1.024-10.678857q1.024-5.339429 3.145143-10.24 2.048-5.12 5.046857-9.508571 2.998857-4.534857 6.802286-8.338286 3.803429-3.803429 8.338286-6.802286 4.461714-2.998857 9.508571-5.12 4.973714-2.048 10.24-3.072 5.339429-1.097143 10.752-1.097142 5.339429 0 10.678857 1.097142 5.266286 1.024 10.24 3.072 5.046857 2.121143 9.508572 5.12 4.534857 2.925714 8.338285 6.802286 3.803429 3.803429 6.802286 8.265143 2.998857 4.534857 5.12 9.508571 2.048 4.973714 3.072 10.24 1.097143 5.339429 1.097143 10.752z" fill="#414141" p-id="8001"></path></svg>