<?xml version="1.0" standalone="no"?><!DOCTYPE svg PUBLIC "-//W3C//DTD SVG 1.1//EN" "http://www.w3.org/Graphics/SVG/1.1/DTD/svg11.dtd"><svg t="1645017921514" class="icon" viewBox="0 0 1026 1024" version="1.1" xmlns="http://www.w3.org/2000/svg" p-id="6587" xmlns:xlink="http://www.w3.org/1999/xlink" width="200.390625" height="200"><defs><style type="text/css"></style></defs><path d="M318.317714 717.824l520.777143-514.340571 154.112 156.16-520.777143 514.267428-154.112-156.086857z m186.002286 90.843429q-0.585143 5.339429-1.755429 10.605714t-2.779428 10.386286q-1.682286 5.12-3.876572 10.093714-2.194286 4.900571-4.754285 9.654857-2.633143 4.681143-5.705143 9.069714t-6.582857 8.557715q-3.510857 4.096-7.314286 7.826285-3.949714 3.730286-8.192 7.094857-4.242286 3.364571-8.777143 6.217143-4.534857 2.925714-9.289143 5.412572-4.827429 2.413714-9.801143 4.388571-5.12 1.974857-10.24 3.437714t-10.459428 2.413715q-5.339429 0.950857-10.678857 1.462857-5.412571 0.365714-10.825143 0.292571-5.339429-0.146286-10.678857-0.731428-5.412571-0.658286-10.678857-1.828572-5.266286-1.097143-10.386286-2.779428-5.12-1.682286-10.020572-3.803429-4.973714-2.194286-9.654857-4.827428-4.754286-2.633143-9.142857-5.705143t-8.557714-6.582857q-4.096-3.510857-7.826286-7.314286-3.657143-3.949714-7.094857-8.192-3.291429-4.169143-6.217143-8.777143-2.925714-4.461714-5.339428-9.289143-2.486857-4.827429-4.388572-9.801143-2.048-5.046857-3.510857-10.24-1.462857-5.12-2.413714-10.459428-0.950857-5.339429-1.389715-10.678857-0.438857-5.412571-0.292571-10.752 0.073143-5.412571 0.731429-10.752 0.585143-5.339429 1.755428-10.605715t2.852572-10.386285q1.609143-5.12 3.803428-10.093715t4.754286-9.654857q2.633143-4.681143 5.705143-9.142857 3.072-4.388571 6.582857-8.484571 3.510857-4.096 7.387428-7.899429 3.876571-3.657143 8.045715-7.021714 4.315429-3.364571 8.777143-6.290286 4.608-2.925714 9.362285-5.339429 4.827429-2.486857 9.874286-4.388571 4.973714-1.974857 10.24-3.510857 5.12-1.462857 10.459429-2.413714 5.266286-0.950857 10.678857-1.316572 5.339429-0.438857 10.752-0.365714 5.339429 0.073143 10.752 0.731428 5.339429 0.658286 10.605714 1.755429 5.266286 1.170286 10.386286 2.852571 5.12 1.682286 10.020571 3.803429 4.973714 2.194286 9.654857 4.754286 4.754286 2.633143 9.142857 5.705143 4.388571 3.145143 8.557715 6.582857 4.096 3.510857 7.826285 7.387428 3.730286 3.876571 7.094858 8.118857 3.291429 4.242286 6.217142 8.777143 2.925714 4.534857 5.339429 9.362286 2.486857 4.754286 4.388571 9.801143 2.048 4.973714 3.510858 10.24 1.462857 5.12 2.413714 10.459428 0.950857 5.266286 1.389714 10.678858 0.438857 5.339429 0.292572 10.752-0.073143 5.412571-0.731429 10.752z m520.777143-514.267429q-0.585143 5.339429-1.755429 10.605714t-2.779428 10.386286q-1.682286 5.12-3.876572 10.020571-2.194286 4.973714-4.754285 9.654858-2.633143 4.754286-5.705143 9.142857t-6.582857 8.557714q-3.510857 4.096-7.314286 7.826286-3.949714 3.730286-8.192 7.094857-4.242286 3.291429-8.777143 6.217143-4.534857 2.925714-9.289143 5.339428-4.827429 2.486857-9.874286 4.388572-4.973714 2.048-10.24 3.510857-5.12 1.462857-10.386285 2.413714-5.339429 0.950857-10.678857 1.389714-5.412571 0.438857-10.825143 0.292572-5.339429-0.073143-10.678857-0.731429-5.412571-0.585143-10.678858-1.755428t-10.386285-2.779429q-5.12-1.682286-10.020572-3.876571-4.973714-2.194286-9.654857-4.754286-4.754286-2.633143-9.142857-5.705143t-8.557714-6.582857q-4.096-3.510857-7.826286-7.314286-3.730286-3.949714-7.094857-8.192-3.291429-4.242286-6.217143-8.777143-2.925714-4.534857-5.339429-9.289142-2.486857-4.827429-4.388571-9.801143-2.048-5.12-3.510857-10.24t-2.413714-10.459429q-0.950857-5.339429-1.389715-10.678857-0.438857-5.412571-0.292571-10.825143 0.073143-5.339429 0.731428-10.678857 0.585143-5.412571 1.755429-10.678857t2.852571-10.386286q1.609143-5.12 3.803429-10.020571 2.194286-4.973714 4.754286-9.654857 2.633143-4.754286 5.705143-9.142858t6.582857-8.557714q3.510857-4.096 7.314285-7.826286 3.949714-3.657143 8.192-7.094857 4.242286-3.291429 8.777143-6.217143 4.534857-2.925714 9.289143-5.339428 4.827429-2.486857 9.874286-4.388572 4.973714-2.048 10.24-3.510857 5.12-1.462857 10.459428-2.413714 5.266286-0.950857 10.678858-1.389714 5.339429-0.438857 10.752-0.292572 5.339429 0.073143 10.678857 0.731429 5.412571 0.585143 10.678857 1.755428t10.386286 2.852572q5.12 1.609143 10.020571 3.803428 4.973714 2.194286 9.654857 4.754286 4.754286 2.633143 9.142857 5.705143t8.557715 6.582857q4.096 3.510857 7.826285 7.387429 3.730286 3.876571 7.094857 8.045714 3.291429 4.315429 6.217143 8.777143 2.925714 4.608 5.339429 9.362286 2.486857 4.827429 4.388571 9.874285 2.048 4.973714 3.510857 10.24 1.462857 5.12 2.413715 10.459429 0.950857 5.266286 1.389714 10.678857 0.438857 5.339429 0.292571 10.752-0.073143 5.339429-0.731428 10.752z" fill="#414141" p-id="6588"></path><path d="M194.56 455.68l194.413714 181.467429 3.072 3.072L472.210286 721.188571l-155.940572 154.331429-80.164571-80.969143 77.970286-77.165714-74.898286 80.164571L44.836571 616.082286 194.56 455.68zM112.420571 645.339429q-5.339429-0.365714-10.678857-1.243429-5.266286-0.877714-10.532571-2.267429-5.12-1.462857-10.24-3.291428-5.046857-1.901714-9.874286-4.315429T61.732571 629.028571Q57.051429 626.102857 52.882286 622.884571 48.566857 619.52 44.617143 615.862857q-3.949714-3.657143-7.533714-7.753143Q33.645714 604.16 30.500571 599.771429q-3.145143-4.388571-5.851428-9.069715Q21.942857 585.947429 19.748571 581.12q-2.194286-4.973714-3.949714-10.093714t-2.925714-10.313143Q11.629714 555.446857 10.898286 550.034286q-0.731429-5.339429-0.877715-10.752-0.146286-5.339429 0.219429-10.752 0.365714-5.339429 1.243429-10.678857t2.267428-10.532572q1.462857-5.193143 3.291429-10.24 1.901714-5.12 4.315428-9.874286 2.413714-4.827429 5.266286-9.435428 2.779429-4.534857 6.070857-8.777143 3.291429-4.388571 7.021714-8.265143 3.657143-3.949714 7.753143-7.460571 4.022857-3.584 8.411429-6.729143 4.388571-3.072 9.069714-5.851429 4.681143-2.633143 9.508572-4.827428 4.973714-2.194286 10.093714-3.949715t10.313143-2.925714q5.266286-1.243429 10.605714-1.974857 5.339429-0.731429 10.752-0.877714 5.339429-0.146286 10.752 0.219428 5.339429 0.292571 10.678857 1.243429 5.339429 0.877714 10.532572 2.194286 5.193143 1.462857 10.24 3.364571 5.12 1.901714 9.874285 4.315429 4.827429 2.340571 9.435429 5.193142 4.534857 2.925714 8.777143 6.144 4.388571 3.291429 8.265143 6.948572 3.949714 3.657143 7.460571 7.753143 3.584 4.096 6.729143 8.484571 3.145143 4.388571 5.851428 8.996572 2.633143 4.681143 4.827429 9.581714 2.194286 4.900571 3.949714 10.020571t2.925715 10.386286q1.243429 5.266286 1.974857 10.605714 0.731429 5.339429 0.877714 10.678857 0.146286 5.412571-0.219429 10.825143-0.292571 5.339429-1.243428 10.678857-0.877714 5.266286-2.194286 10.532572-1.462857 5.12-3.364571 10.24-1.901714 5.046857-4.242286 9.874286-2.413714 4.827429-5.266286 9.362285-2.852571 4.608-6.144 8.850286-3.291429 4.315429-6.948571 8.265143-3.657143 3.876571-7.753143 7.460571-4.096 3.510857-8.411429 6.656-4.388571 3.145143-9.069714 5.851429-4.681143 2.706286-9.581714 4.900571-4.900571 2.194286-10.020572 3.949715t-10.386285 2.925714q-5.266286 1.243429-10.605715 1.974857-5.339429 0.731429-10.678857 0.877714-5.412571 0.146286-10.825143-0.219428z m274.578286 262.509714q-5.339429-0.365714-10.678857-1.243429T365.714286 904.338286q-5.193143-1.462857-10.24-3.291429-5.12-1.901714-9.874286-4.315428-4.827429-2.413714-9.435429-5.266286-4.534857-2.779429-8.777142-6.070857-4.388571-3.291429-8.265143-7.021715-3.949714-3.657143-7.460572-7.753142-3.584-4.022857-6.729143-8.411429-3.145143-4.388571-5.851428-9.069714-2.633143-4.681143-4.900572-9.508572-2.194286-4.973714-3.949714-10.093714-1.682286-5.12-2.925714-10.313143-1.170286-5.266286-1.901714-10.605714-0.731429-5.339429-0.877715-10.752-0.146286-5.339429 0.219429-10.752 0.292571-5.339429 1.170286-10.678857 0.950857-5.339429 2.340571-10.532572 1.389714-5.193143 3.291429-10.24 1.901714-5.12 4.242285-9.874285 2.413714-4.827429 5.266286-9.435429 2.852571-4.534857 6.144-8.777143 3.291429-4.388571 6.948571-8.265143 3.657143-3.949714 7.753143-7.460571 4.096-3.584 8.411429-6.729143 4.388571-3.145143 9.069714-5.851429 4.681143-2.633143 9.581714-4.827428 4.900571-2.194286 10.020572-3.949714t10.386286-2.925715q5.266286-1.243429 10.605714-1.974857 5.339429-0.731429 10.678857-0.877714 5.412571-0.146286 10.752 0.219428 5.412571 0.292571 10.752 1.243429 5.266286 0.877714 10.532571 2.194286 5.12 1.462857 10.24 3.364571 5.046857 1.901714 9.874286 4.242286 4.827429 2.413714 9.362286 5.266286 4.608 2.852571 8.850286 6.144 4.315429 3.291429 8.192 6.948571 3.949714 3.657143 7.533714 7.753143 3.510857 4.096 6.656 8.411428 3.145143 4.388571 5.851428 9.069715 2.706286 4.681143 4.900572 9.581714 2.194286 4.900571 3.949714 10.020571t2.925714 10.386286q1.243429 5.266286 1.974858 10.605714 0.731429 5.339429 0.804571 10.678858 0.219429 5.412571-0.146286 10.825142-0.365714 5.339429-1.243428 10.678858-0.877714 5.266286-2.267429 10.532571-1.462857 5.12-3.291428 10.24-1.901714 5.046857-4.315429 9.874286t-5.266286 9.362285q-2.779429 4.608-6.070857 8.850286-3.291429 4.315429-7.021714 8.192-3.657143 3.949714-7.753143 7.533714-4.022857 3.510857-8.411429 6.656-4.388571 3.145143-9.069714 5.851429-4.681143 2.706286-9.508571 4.900571-4.973714 2.194286-10.093715 3.949715t-10.313142 2.925714q-5.266286 1.243429-10.605715 1.974857-5.339429 0.731429-10.752 0.877714-5.339429 0.146286-10.752-0.219428z" fill="#FF6C1C" p-id="6589"></path></svg>