<?xml version="1.0" standalone="no"?><!DOCTYPE svg PUBLIC "-//W3C//DTD SVG 1.1//EN" "http://www.w3.org/Graphics/SVG/1.1/DTD/svg11.dtd"><svg t="1645017780833" class="icon" viewBox="0 0 1024 1024" version="1.1" xmlns="http://www.w3.org/2000/svg" p-id="3644" xmlns:xlink="http://www.w3.org/1999/xlink" width="200" height="200"><defs><style type="text/css"></style></defs><path d="M987.428571 512a475.428571 475.428571 0 1 1-950.857142 0 475.428571 475.428571 0 0 1 950.857142 0z m-205.970285 0q0-111.616-78.994286-190.537143Q623.689143 242.541714 512 242.541714t-190.537143 78.994286Q242.541714 400.310857 242.541714 512t78.994286 190.537143Q400.310857 781.458286 512 781.458286t190.537143-78.994286Q781.458286 623.689143 781.458286 512z" fill="#414141" p-id="3645"></path><path d="M588.068571 252.050286q59.611429 19.017143 101.961143 55.296 42.422857 36.278857 67.584 89.673143l173.348572-105.691429q-44.251429-82.944-114.322286-141.312T650.752 57.856L588.068571 252.050286z" fill="#FF6C1C" p-id="3646"></path></svg>