<?xml version="1.0" standalone="no"?><!DOCTYPE svg PUBLIC "-//W3C//DTD SVG 1.1//EN" "http://www.w3.org/Graphics/SVG/1.1/DTD/svg11.dtd"><svg t="1645017987801" class="icon" viewBox="0 0 1024 1024" version="1.1" xmlns="http://www.w3.org/2000/svg" p-id="7859" xmlns:xlink="http://www.w3.org/1999/xlink" width="200" height="200"><defs><style type="text/css"></style></defs><path d="M483.620571 997.302857Q25.161143 720.018286 25.161143 219.209143q0-6.729143 1.609143-13.238857 1.609143-6.582857 4.827428-12.434286 3.145143-5.997714 7.606857-10.971429 4.461714-5.046857 10.093715-8.777142Q275.748571 20.333714 512 20.333714q235.373714 0 474.916571 152.576 5.924571 3.803429 10.752 8.923429 4.754286 5.12 8.045715 11.337143 3.364571 6.144 5.046857 12.946285 1.682286 6.802286 1.536 13.897143-8.045714 570.294857-477.915429 780.434286-6.070857 2.706286-12.580571 3.949714-6.582857 1.170286-13.165714 0.731429-6.582857-0.365714-13.019429-2.413714-6.290286-1.974857-11.995429-5.412572z m56.758858-93.842286L512 950.418286l-22.381714-50.102857q405.869714-181.540571 413.037714-681.910858l54.857143 0.731429-29.476572 46.299429Q715.337143 130.048 512 130.048q-202.532571 0-401.188571 134.582857l-30.72-45.421714h54.857142q0 438.930286 405.430858 684.251428z" fill="#414141" p-id="7860"></path><path d="M812.251429 405.723429L517.851429 697.782857q-3.803429 3.803429-8.265143 6.729143-4.388571 2.925714-9.362286 5.046857-4.973714 2.048-10.24 3.072-5.12 1.097143-10.532571 1.097143-5.339429 0-10.605715-1.024-5.266286-0.950857-10.24-2.925714-4.900571-2.048-9.362285-4.973715-4.461714-2.925714-8.338286-6.656-148.041143-144.310857-158.208-166.765714l99.84-45.348571q1.682286 3.657143 134.948571 133.558857l-38.253714 39.277714-38.619429-38.985143 294.326858-291.986285 77.312 77.897142z m16.164571-38.912q0 5.412571-1.024 10.678857t-3.145143 10.24q-2.048 5.046857-5.046857 9.508571-2.998857 4.534857-6.802286 8.338286-3.803429 3.803429-8.338285 6.802286-4.461714 2.998857-9.508572 5.12-4.973714 2.048-10.24 3.072-5.339429 1.097143-10.752 1.097142-5.339429 0-10.678857-1.097142-5.266286-1.024-10.24-3.072-5.046857-2.121143-9.508571-5.12-4.534857-2.925714-8.338286-6.802286-3.803429-3.803429-6.802286-8.338286-2.998857-4.461714-5.12-9.508571-2.048-4.973714-3.072-10.24-1.097143-5.266286-1.097143-10.678857t1.097143-10.752q1.024-5.266286 3.145143-10.24 2.048-5.046857 5.046857-9.508572 2.925714-4.461714 6.802286-8.338286 3.803429-3.803429 8.338286-6.802285 4.461714-2.998857 9.508571-5.12 4.973714-1.974857 10.24-3.072 5.339429-1.024 10.678857-1.024 5.412571 0 10.752 1.024 5.266286 1.097143 10.24 3.145143 5.046857 2.048 9.508572 5.12 4.534857 2.925714 8.338285 6.729142 3.803429 3.876571 6.802286 8.338286 2.998857 4.461714 5.12 9.508572 2.048 4.973714 3.072 10.24 1.024 5.339429 1.024 10.752z m-440.905143 141.897142q0 5.339429-1.097143 10.678858-1.024 5.266286-3.072 10.24-2.121143 4.973714-5.12 9.508571-2.925714 4.461714-6.802285 8.338286-3.803429 3.803429-8.338286 6.802285-4.461714 2.925714-9.508572 5.12-4.973714 1.974857-10.24 3.072-5.339429 1.024-10.678857 1.024-5.412571 0-10.752-1.024-5.266286-1.097143-10.24-3.145142-5.046857-2.048-9.508571-5.12-4.461714-2.925714-8.338286-6.729143-3.803429-3.876571-6.802286-8.338286-2.998857-4.534857-5.12-9.508571-2.048-4.973714-3.072-10.24-1.024-5.339429-1.024-10.752t1.024-10.678858q1.024-5.339429 3.145143-10.24 2.048-5.046857 5.046857-9.508571 2.998857-4.534857 6.802286-8.338286 3.876571-3.803429 8.338286-6.802285 4.461714-2.998857 9.508571-5.12 4.973714-2.048 10.24-3.072 5.339429-1.097143 10.752-1.097143 5.339429 0 10.678857 1.097143 5.266286 1.024 10.24 3.072 5.046857 2.121143 9.508572 5.12 4.534857 2.925714 8.338286 6.802285 3.803429 3.803429 6.802285 8.338286 2.998857 4.461714 5.12 9.508571 2.048 4.900571 3.072 10.24 1.097143 5.266286 1.097143 10.678858z" fill="#F6691B" p-id="7861"></path></svg>