<?xml version="1.0" standalone="no"?><!DOCTYPE svg PUBLIC "-//W3C//DTD SVG 1.1//EN" "http://www.w3.org/Graphics/SVG/1.1/DTD/svg11.dtd"><svg t="1645017346220" class="icon" viewBox="0 0 1024 1024" version="1.1" xmlns="http://www.w3.org/2000/svg" p-id="3367" xmlns:xlink="http://www.w3.org/1999/xlink" width="200" height="200"><defs><style type="text/css"></style></defs><path d="M509.952 801.060571q-164.937143 0-316.635429-79.872Q27.794286 634.075429 27.794286 528.457143q0-54.345143 45.275428-112.64 39.570286-50.907429 104.886857-93.842286 150.674286-99.035429 331.995429-99.035428 180.516571 0 333.970286 100.644571 65.682286 43.081143 105.984 93.622857 46.226286 58.075429 46.226285 111.177143 0 102.912-167.497142 191.122286-154.770286 81.554286-318.683429 81.554285z m0-109.714285q136.777143 0 267.556571-68.900572 55.296-29.110857 86.381715-60.635428 22.528-22.820571 22.528-33.353143 0-14.774857-22.381715-42.934857-29.257143-36.790857-80.310857-70.217143-126.025143-82.651429-273.773714-82.651429-148.48 0-271.725714 80.969143-50.102857 32.914286-78.555429 69.485714-22.162286 28.525714-22.162286 45.348572 0 12.434286 22.381715 35.693714 30.208 31.378286 84.553143 59.977143 127.634286 67.218286 265.508571 67.218286z" fill="#414141" p-id="3368"></path><path d="M383.049143 512a128.950857 128.950857 0 1 0 257.901714 0 128.950857 128.950857 0 1 0-257.901714 0Z" fill="#FF6C1C" p-id="3369"></path></svg>