<?xml version="1.0" standalone="no"?><!DOCTYPE svg PUBLIC "-//W3C//DTD SVG 1.1//EN" "http://www.w3.org/Graphics/SVG/1.1/DTD/svg11.dtd"><svg t="1645017858981" class="icon" viewBox="0 0 1024 1024" version="1.1" xmlns="http://www.w3.org/2000/svg" p-id="5320" xmlns:xlink="http://www.w3.org/1999/xlink" width="200" height="200"><defs><style type="text/css"></style></defs><path d="M385.462857 599.917714v-473.234285h219.428572v473.234285h-219.428572z m219.428572 0q0 5.339429-0.512 10.752-0.512 5.339429-1.536 10.605715-1.097143 5.339429-2.633143 10.459428-1.609143 5.12-3.657143 10.166857-2.048 4.973714-4.608 9.728-2.486857 4.754286-5.485714 9.216-2.998857 4.461714-6.436572 8.630857-3.437714 4.169143-7.241143 8.045715-3.803429 3.803429-7.972571 7.168-4.169143 3.437714-8.630857 6.436571-4.534857 2.925714-9.289143 5.558857-4.754286 2.486857-9.728 4.608-4.973714 2.048-10.093714 3.657143-5.12 1.462857-10.459429 2.56-5.266286 1.024-10.678857 1.609143-5.339429 0.512-10.752 0.512-5.339429 0-10.752-0.512-5.339429-0.585143-10.605714-1.609143-5.339429-1.024-10.459429-2.633143-5.12-1.536-10.166857-3.657143-4.973714-2.048-9.728-4.534857-4.754286-2.56-9.216-5.558857-4.461714-2.998857-8.630857-6.436571-4.169143-3.364571-8.045715-7.241143-3.730286-3.803429-7.168-7.972572-3.437714-4.169143-6.436571-8.630857-2.925714-4.461714-5.485714-9.216-2.56-4.754286-4.608-9.728-2.121143-4.973714-3.657143-10.166857-1.536-5.12-2.633143-10.459428-1.024-5.266286-1.536-10.605715-0.585143-5.412571-0.585143-10.752 0-5.412571 0.585143-10.752 0.512-5.412571 1.536-10.678857 1.097143-5.266286 2.633143-10.459428 1.536-5.12 3.657143-10.093715 2.048-4.973714 4.608-9.728 2.486857-4.754286 5.485714-9.289143 2.998857-4.388571 6.436571-8.630857 3.437714-4.169143 7.241143-7.972571 3.803429-3.803429 7.972572-7.241143 4.169143-3.437714 8.630857-6.363429 4.461714-2.998857 9.216-5.558857 4.754286-2.56 9.728-4.608 4.973714-2.048 10.166857-3.657143 5.12-1.536 10.459429-2.56 5.266286-1.097143 10.605714-1.609142 5.412571-0.512 10.752-0.512 5.412571 0 10.752 0.512 5.412571 0.512 10.678857 1.609142 5.266286 1.024 10.459429 2.56 5.12 1.609143 10.093714 3.657143 4.973714 2.048 9.728 4.608t9.289143 5.558857q4.461714 2.925714 8.630857 6.363429 4.169143 3.437714 7.972571 7.314286 3.803429 3.730286 7.241143 7.899428 3.437714 4.169143 6.436572 8.630857 2.925714 4.534857 5.485714 9.289143 2.56 4.754286 4.608 9.728 2.048 4.973714 3.657143 10.093715 1.536 5.12 2.633143 10.459428 1.024 5.266286 1.536 10.678857 0.512 5.339429 0.512 10.752z m0-473.234285q0 5.485714-0.512 10.825142t-1.536 10.678858q-1.097143 5.266286-2.633143 10.386285-1.609143 5.12-3.657143 10.166857-2.048 4.973714-4.608 9.728-2.486857 4.754286-5.485714 9.216-2.998857 4.534857-6.436572 8.704-3.437714 4.096-7.241143 7.972572-3.803429 3.803429-7.972571 7.168-4.169143 3.437714-8.630857 6.436571-4.534857 2.998857-9.289143 5.558857-4.754286 2.56-9.728 4.608-4.973714 2.048-10.093714 3.657143-5.12 1.462857-10.459429 2.56-5.266286 1.024-10.678857 1.609143-5.339429 0.512-10.752 0.512-5.339429 0-10.752-0.512-5.339429-0.585143-10.605714-1.609143-5.339429-1.024-10.459429-2.633143-5.12-1.536-10.166857-3.657142-4.973714-1.974857-9.728-4.534858t-9.216-5.558857q-4.461714-2.925714-8.630857-6.436571-4.169143-3.364571-8.045715-7.168-3.730286-3.876571-7.168-8.045714-3.437714-4.096-6.436571-8.630858-2.925714-4.461714-5.485714-9.216-2.56-4.754286-4.608-9.728-2.121143-4.973714-3.657143-10.166857-1.536-5.12-2.633143-10.386285-1.024-5.339429-1.536-10.678858-0.585143-5.339429-0.585143-10.752t0.585143-10.752q0.512-5.339429 1.536-10.678857 1.097143-5.266286 2.633143-10.459428 1.536-5.12 3.657143-10.093715 2.048-4.973714 4.608-9.728Q400.969143 70.217143 403.968 65.828571q2.998857-4.534857 6.436571-8.704 3.437714-4.169143 7.241143-7.972571 3.803429-3.803429 7.972572-7.241143 4.169143-3.364571 8.630857-6.363428 4.461714-2.998857 9.216-5.558858 4.754286-2.56 9.728-4.608 4.973714-2.048 10.166857-3.657142 5.12-1.462857 10.459429-2.56 5.266286-1.097143 10.605714-1.609143 5.412571-0.512 10.752-0.512 5.412571 0 10.752 0.512 5.412571 0.512 10.678857 1.609143 5.266286 1.024 10.459429 2.633142 5.12 1.462857 10.093714 3.657143 4.973714 1.974857 9.728 4.534857t9.289143 5.558858q4.461714 2.925714 8.630857 6.363428 4.169143 3.437714 7.972571 7.314286 3.803429 3.730286 7.241143 7.899428 3.437714 4.169143 6.436572 8.704 2.925714 4.388571 5.485714 9.216 2.56 4.754286 4.608 9.728 2.048 4.973714 3.657143 10.093715 1.536 5.193143 2.633143 10.459428 1.024 5.339429 1.536 10.678857 0.512 5.339429 0.512 10.752z" fill="#414141" p-id="5321"></path><path d="M371.931429 879.250286a123.245714 123.245714 0 1 0 246.491428 0 123.245714 123.245714 0 1 0-246.491428 0Z" fill="#FF6C1C" p-id="5322"></path></svg>