<?xml version="1.0" standalone="no"?><!DOCTYPE svg PUBLIC "-//W3C//DTD SVG 1.1//EN" "http://www.w3.org/Graphics/SVG/1.1/DTD/svg11.dtd"><svg t="1645017910621" class="icon" viewBox="0 0 1024 1024" version="1.1" xmlns="http://www.w3.org/2000/svg" p-id="6302" xmlns:xlink="http://www.w3.org/1999/xlink" width="200" height="200"><defs><style type="text/css"></style></defs><path d="M611.377073 357.102228v554.181889h-218.411149V357.102228h218.411149z m-218.411149 0q0-5.387475 0.58243-10.702146 0.509626-5.387475 1.528878-10.629342 1.092056-5.241868 2.620933-10.410932 1.528878-5.09626 3.640186-10.046913 2.038504-4.950653 4.586634-9.682894 2.475326-4.732242 5.460279-9.246072 2.984952-4.441027 6.406727-8.590838 3.421775-4.149812 7.207568-7.935606 3.785793-3.785793 7.935605-7.207567 4.149812-3.421775 8.590839-6.406728 4.441027-2.912149 9.173268-5.460278 4.732242-2.54813 9.682894-4.586634 5.023456-2.038504 10.19252-3.640186 5.09626-1.528878 10.338128-2.620934 5.241868-1.019252 10.556539-1.528878 5.387475-0.509626 10.702146-0.509626 5.387475 0 10.77495 0.509626 5.314671 0.509626 10.556539 1.528878 5.241868 1.092056 10.410932 2.620934 5.09626 1.601682 10.119716 3.640186 4.950653 2.038504 9.682894 4.586634 4.732242 2.475326 9.173269 5.460278 4.441027 2.984952 8.590838 6.406728 4.149812 3.421775 8.008409 7.207567 3.71299 3.785793 7.134764 7.935606 3.421775 4.149812 6.406727 8.590838 2.912149 4.51383 5.460279 9.246072 2.54813 4.732242 4.586634 9.682894 2.038504 4.950653 3.640186 10.046913 1.528878 5.09626 2.620934 10.410932 1.019252 5.241868 1.528878 10.629342 0.509626 5.314671 0.509626 10.702146 0 5.314671-0.509626 10.702147-0.509626 5.314671-1.528878 10.556539-1.092056 5.314671-2.620934 10.410931-1.601682 5.09626-3.640186 10.119717-2.038504 4.950653-4.586634 9.682894-2.475326 4.732242-5.460279 9.173268-2.984952 4.441027-6.406727 8.590839-3.421775 4.149812-7.207568 8.008408-3.785793 3.71299-7.935605 7.134765-4.149812 3.421775-8.590838 6.406727-4.441027 2.912149-9.173269 5.533082-4.732242 2.475326-9.682894 4.513831-5.023456 2.111308-10.19252 3.640185-5.09626 1.528878-10.338128 2.620934-5.241868 1.019252-10.556539 1.528878-5.387475 0.58243-10.77495 0.58243-5.314671 0-10.702146-0.58243-5.314671-0.509626-10.556539-1.528878Q475.598142 463.031636 470.501882 461.575561q-5.09626-1.528878-10.119717-3.640185-4.950653-2.038504-9.682894-4.513831-4.732242-2.54813-9.173268-5.533082-4.441027-2.984952-8.590839-6.406727-4.149812-3.421775-8.008409-7.207568-3.71299-3.785793-7.134764-7.935605-3.421775-4.149812-6.406727-8.590839-2.912149-4.441027-5.460279-9.173268-2.54813-4.732242-4.586634-9.682894-2.111308-4.950653-3.640186-10.119717-1.528878-5.09626-2.620933-10.410931-1.019252-5.241868-1.528878-10.556539-0.58243-5.387475-0.58243-10.702147z m0 554.181889q0-5.387475 0.58243-10.702146 0.509626-5.387475 1.528878-10.629343 1.092056-5.241868 2.620933-10.410931 1.528878-5.09626 3.640186-10.046913 2.038504-5.023456 4.586634-9.682895 2.475326-4.732242 5.460279-9.246072 2.984952-4.441027 6.406727-8.590838 3.421775-4.149812 7.207568-8.008409 3.785793-3.71299 7.935605-7.134764 4.149812-3.421775 8.590839-6.406727 4.441027-2.912149 9.173268-5.460279 4.732242-2.54813 9.682894-4.586634 5.023456-2.038504 10.19252-3.640186 5.09626-1.528878 10.338128-2.620934 5.241868-1.019252 10.556539-1.528878 5.387475-0.509626 10.702146-0.509626 5.387475 0 10.77495 0.509626 5.314671 0.509626 10.556539 1.528878 5.241868 1.092056 10.410932 2.620934 5.09626 1.601682 10.119716 3.640186 4.950653 2.038504 9.682894 4.586634 4.732242 2.475326 9.173269 5.460279 4.441027 2.984952 8.590838 6.406727 4.149812 3.421775 8.008409 7.207568 3.71299 3.785793 7.134764 7.935605 3.421775 4.149812 6.406727 8.590838 2.912149 4.51383 5.460279 9.246072 2.54813 4.659438 4.586634 9.682895 2.038504 4.950653 3.640186 10.046913 1.528878 5.09626 2.620934 10.410931 1.019252 5.241868 1.528878 10.629343 0.509626 5.314671 0.509626 10.702146 0 5.314671-0.509626 10.702146-0.509626 5.314671-1.528878 10.556539-1.092056 5.314671-2.620934 10.410931-1.601682 5.09626-3.640186 10.119717-2.038504 4.950653-4.586634 9.682894-2.475326 4.732242-5.460279 9.173269-2.984952 4.441027-6.406727 8.590838-3.421775 4.149812-7.207568 8.008409-3.785793 3.71299-7.935605 7.134764-4.149812 3.421775-8.590838 6.406727-4.441027 2.912149-9.173269 5.460279-4.732242 2.54813-9.682894 4.586634-5.023456 2.111308-10.19252 3.640186-5.09626 1.528878-10.338128 2.620934-5.241868 1.019252-10.556539 1.528878-5.387475 0.58243-10.77495 0.582429-5.314671 0-10.702146-0.582429-5.314671-0.509626-10.556539-1.528878-5.241868-1.092056-10.410931-2.620934-5.09626-1.528878-10.119717-3.640186-4.950653-2.038504-9.682894-4.586634-4.732242-2.475326-9.173268-5.460279-4.441027-2.984952-8.590839-6.406727-4.149812-3.421775-8.008409-7.207568-3.71299-3.785793-7.134764-7.935605-3.421775-4.149812-6.406727-8.590838-2.912149-4.441027-5.460279-9.173269-2.54813-4.732242-4.586634-9.682894-2.111308-4.950653-3.640186-10.119717-1.528878-5.09626-2.620933-10.410931-1.019252-5.241868-1.528878-10.556539-0.58243-5.387475-0.58243-10.702146z" fill="#414141" p-id="6303"></path><path d="M569.806151 199.482183L283.396331 497.39499 126.140304 346.036064 412.258909 48.123256l157.474438 151.43173zM381.899759 121.363795q0.145607-5.387475 0.728037-10.702146 0.728037-5.314671 1.820093-10.556539 1.164859-5.241868 2.912149-10.338128 1.601682-5.09626 3.785793-9.974109 2.184111-4.950653 4.805045-9.61009 2.620934-4.659438 5.67869-9.100465 3.13056-4.368223 6.552335-8.445231 3.567382-4.077008 7.425979-7.789998 3.858597-3.640186 8.081212-6.989157 4.222616-3.276167 8.736446-6.188315 4.586634-2.912149 9.391679-5.314672Q446.476655 24.025226 451.572915 21.986722q5.023456-1.892897 10.192521-3.348971 5.09626-1.456074 10.410931-2.402522 5.314671-0.873645 10.629343-1.310467 5.387475-0.364019 10.702146-0.291215 5.387475 0.145607 10.702146 0.728037 5.314671 0.728037 10.556539 1.892897t10.338128 2.839345q5.09626 1.674485 10.046913 3.785793 4.877849 2.184111 9.537287 4.805045 4.732242 2.693738 9.100464 5.751494t8.445231 6.552334q4.077008 3.494578 7.789998 7.425979 3.640186 3.858597 6.989157 8.008409 3.348971 4.295419 6.188316 8.80925 2.912149 4.51383 5.314671 9.318875 2.402523 4.805045 4.368223 9.755698 1.9657 5.09626 3.348971 10.192521 1.456074 5.169064 2.402522 10.483735 0.946448 5.241868 1.310467 10.629342 0.436822 5.314671 0.291215 10.702147t-0.728037 10.702146q-0.728037 5.314671-1.820093 10.556539-1.164859 5.241868-2.912149 10.338128-1.601682 5.09626-3.785793 9.974109-2.184111 4.950653-4.805045 9.61009-2.620934 4.659438-5.751494 9.027661-3.057756 4.368223-6.552334 8.518035-3.494578 4.004204-7.353175 7.717194-3.858597 3.71299-8.081213 7.06196-4.295419 3.276167-8.736446 6.188316-4.586634 2.912149-9.391679 5.241868-4.732242 2.475326-9.755698 4.368223-5.023456 1.9657-10.192521 3.421774-5.09626 1.456074-10.410931 2.329719-5.314671 0.946448-10.629343 1.383271-5.387475 0.364019-10.77495 0.291215-5.314671-0.145607-10.629342-0.800841-5.387475-0.655233-10.556539-1.820093-5.241868-1.164859-10.338128-2.839345-5.09626-1.674485-10.046913-3.858597-4.877849-2.184111-9.537286-4.805045-4.732242-2.620934-9.100465-5.67869t-8.445231-6.552334q-4.077008-3.494578-7.789998-7.425979-3.640186-3.858597-6.989157-8.081213t-6.188315-8.736446q-2.912149-4.51383-5.314672-9.318876-2.402523-4.805045-4.368223-9.828501-1.9657-4.950653-3.348971-10.192521-1.456074-5.09626-2.402522-10.410931-0.946448-5.241868-1.310467-10.629343-0.436822-5.314671-0.291215-10.702146zM95.562743 419.203798q0.145607-5.314671 0.728037-10.629342 0.728037-5.387475 1.892897-10.629343 1.164859-5.169064 2.839345-10.265324 1.674485-5.09626 3.858596-10.046913 2.184111-4.877849 4.732242-9.537286 2.693738-4.732242 5.751494-9.100465t6.552334-8.445231q3.494578-4.077008 7.425979-7.789998 3.858597-3.640186 8.008409-6.989156 4.295419-3.348971 8.80925-6.188316 4.51383-2.912149 9.318875-5.314672 4.805045-2.402523 9.828502-4.368223 4.950653-1.9657 10.19252-3.421774 5.09626-1.456074 10.410932-2.329719 5.241868-0.946448 10.629342-1.310467 5.314671-0.436822 10.702147-0.291215 5.387475 0.072804 10.702146 0.728037 5.314671 0.728037 10.556539 1.820093 5.241868 1.164859 10.338127 2.912149 5.09626 1.601682 9.97411 3.785793 4.950653 2.184111 9.61009 4.805045 4.659438 2.620934 9.027661 5.67869 4.368223 3.13056 8.518035 6.552335 4.004204 3.567382 7.717194 7.425979 3.71299 3.858597 7.06196 8.081212 3.276167 4.222616 6.188316 8.736446 2.912149 4.586634 5.314671 9.318876 2.402523 4.805045 4.368223 9.828502 1.892897 5.023456 3.348971 10.19252 1.456074 5.09626 2.329719 10.410931 0.946448 5.314671 1.383271 10.629343 0.364019 5.387475 0.291215 10.702146-0.145607 5.387475-0.800841 10.702146t-1.820093 10.556539q-1.164859 5.241868-2.839345 10.338128-1.674485 5.09626-3.858597 10.046913-2.184111 4.877849-4.805045 9.537287-2.620934 4.732242-5.67869 9.100464t-6.552335 8.445231q-3.494578 4.077008-7.425979 7.789998-3.858597 3.640186-8.081212 6.989157t-8.736446 6.188316q-4.51383 2.912149-9.318876 5.314671-4.805045 2.402523-9.828502 4.368223-4.950653 1.9657-10.19252 3.348971-5.09626 1.456074-10.410931 2.402522-5.241868 0.946448-10.629343 1.310467-5.314671 0.436822-10.702146 0.291215t-10.702146-0.728037q-5.314671-0.728037-10.556539-1.820093-5.241868-1.164859-10.338128-2.912148-5.09626-1.601682-9.974109-3.785794-4.950653-2.184111-9.610091-4.805045-4.659438-2.620934-9.027661-5.751494-4.368223-3.057756-8.518034-6.552334-4.077008-3.494578-7.717194-7.353175-3.71299-3.931401-7.061961-8.154017-3.276167-4.222616-6.188316-8.736446-2.912149-4.51383-5.314671-9.318875-2.402523-4.732242-4.368223-9.755698-1.892897-5.023456-3.348971-10.192521-1.456074-5.09626-2.329719-10.410931-0.946448-5.314671-1.38327-10.629343-0.364019-5.387475-0.291215-10.77495z" fill="#414141" p-id="6304"></path><path d="M708.715641 490.55144L414.588628 200.938257 567.767647 45.356715l294.127014 289.54038-153.17902 155.654345z m91.659879-186.013495q5.314671 0.728037 10.483735 1.965701 5.241868 1.310467 10.338128 3.057756 5.09626 1.747289 9.901306 4.004204 4.877849 2.184111 9.464483 4.950653 4.659438 2.693738 9.02766 5.824297 4.368223 3.203364 8.299624 6.770746 4.004204 3.640186 7.64439 7.498782 3.640186 4.004204 6.916353 8.22682 3.203364 4.368223 6.042709 8.882054 2.766541 4.586634 5.09626 9.464483 2.329719 4.732242 4.222616 9.828502 1.820093 5.023456 3.203363 10.19252 1.310467 5.169064 2.184112 10.483735 0.800841 5.314671 1.092055 10.702146 0.364019 5.314671 0.145608 10.702147-0.218411 5.314671-0.946449 10.629342-0.728037 5.314671-2.038504 10.556539-1.237663 5.241868-2.984952 10.265324-1.747289 5.09626-4.004204 9.974109t-5.023457 9.464483q-2.693738 4.659438-5.824297 8.954857-3.203364 4.368223-6.770746 8.372428-3.567382 4.004204-7.498783 7.64439-3.931401 3.640186-8.226819 6.843549-4.222616 3.276167-8.80925 6.042709-4.586634 2.839345-9.464483 5.09626-4.805045 2.402523-9.828502 4.222616-5.09626 1.892897-10.19252 3.203363-5.241868 1.383271-10.556539 2.184112-5.241868 0.873645-10.629343 1.164859-5.314671 0.291215-10.702146 0.072804t-10.702146-0.946449q-5.314671-0.728037-10.483735-1.9657-5.241868-1.237663-10.338128-3.057756-5.09626-1.747289-9.901306-4.004204-4.877849-2.184111-9.464483-4.950653-4.659438-2.693738-9.027661-5.824297-4.368223-3.203364-8.299623-6.770746-4.004204-3.567382-7.64439-7.498783-3.640186-3.931401-6.916353-8.22682-3.203364-4.295419-6.042709-8.882053-2.766541-4.586634-5.09626-9.39168-2.329719-4.805045-4.222616-9.828501-1.820093-5.09626-3.203363-10.192521-1.310467-5.241868-2.184112-10.556538-0.800841-5.314671-1.092055-10.629343-0.364019-5.387475-0.145608-10.702146 0.218411-5.387475 0.946449-10.702147 0.728037-5.314671 2.038504-10.556538 1.237663-5.169064 2.984952-10.265324 1.747289-5.09626 4.004204-9.901306 2.256915-4.877849 5.023457-9.464483 2.693738-4.659438 5.824297-9.027661 3.203364-4.368223 6.770746-8.372427 3.567382-4.004204 7.498783-7.64439 3.931401-3.640186 8.226819-6.84355 4.222616-3.276167 8.80925-6.042708 4.586634-2.766541 9.464483-5.09626 4.805045-2.402523 9.828502-4.222616 5.09626-1.892897 10.19252-3.203363 5.241868-1.383271 10.556539-2.184112 5.241868-0.873645 10.629343-1.164859t10.702146-0.072804q5.387475 0.218411 10.702146 0.946448zM506.175703 15.070369q5.314671 0.728037 10.483735 1.965701 5.241868 1.237663 10.265324 3.057756 5.09626 1.747289 9.974109 4.004204 4.877849 2.184111 9.464483 4.950653 4.659438 2.693738 9.027661 5.824297 4.368223 3.203364 8.299624 6.770746 4.004204 3.567382 7.64439 7.498782 3.640186 3.931401 6.916353 8.22682 3.203364 4.295419 5.969905 8.882054 2.839345 4.586634 5.169063 9.391679 2.329719 4.805045 4.222616 9.828502 1.820093 5.09626 3.203363 10.19252 1.310467 5.241868 2.184112 10.556539 0.800841 5.314671 1.092056 10.629343 0.364019 5.387475 0.145607 10.77495-0.218411 5.314671-0.946448 10.629342-0.728037 5.314671-2.038504 10.556539-1.237663 5.169064-2.984953 10.265324-1.820093 5.09626-4.004204 9.974109-2.256915 4.805045-5.023456 9.464483-2.693738 4.659438-5.824298 8.954857-3.203364 4.368223-6.770745 8.372428-3.567382 4.004204-7.498783 7.64439-3.931401 3.640186-8.22682 6.843549-4.295419 3.276167-8.80925 6.042709-4.586634 2.766541-9.464483 5.09626-4.805045 2.402523-9.828502 4.222616-5.09626 1.892897-10.19252 3.203363-5.241868 1.383271-10.556539 2.184112-5.314671 0.873645-10.629342 1.164859-5.387475 0.291215-10.702147 0.072804-5.387475-0.218411-10.702146-0.946449-5.314671-0.728037-10.556539-1.9657-5.169064-1.310467-10.19252-3.057756-5.09626-1.747289-9.974109-4.004204-4.877849-2.184111-9.464483-4.950653-4.659438-2.693738-9.027661-5.824297-4.368223-3.203364-8.299624-6.770746-4.004204-3.640186-7.64439-7.498783-3.640186-3.931401-6.916353-8.22682-3.203364-4.295419-6.042708-8.882053-2.766541-4.586634-5.096261-9.464483-2.329719-4.732242-4.222615-9.828502-1.820093-5.023456-3.203364-10.19252-1.310467-5.169064-2.184111-10.483735-0.800841-5.314671-1.16486-10.702147-0.291215-5.314671 0-10.702146 0.145607-5.314671 0.873645-10.629343t2.038504-10.556538q1.237663-5.241868 2.984952-10.265324 1.747289-5.09626 4.004205-9.97411t4.950653-9.464483q2.766541-4.659438 5.897101-8.954857 3.13056-4.368223 6.697941-8.372427 3.640186-4.004204 7.571587-7.64439 3.931401-3.640186 8.22682-6.84355 4.222616-3.276167 8.80925-6.042708 4.586634-2.839345 9.464483-5.09626 4.805045-2.402523 9.828501-4.222616 5.023456-1.892897 10.192521-3.203363 5.241868-1.383271 10.483735-2.184112 5.314671-0.873645 10.702146-1.164859Q490.158885 13.832706 495.54636 14.123921t10.702146 0.946448z" fill="#FF6C1C" p-id="6305"></path></svg>